<svg width="40" height="40" viewBox="0 0 40 40" fill="none" xmlns="http://www.w3.org/2000/svg">
<g clip-path="url(#clip0_415_50)">
<path d="M38.2812 36.5625H37.5908V34.6231C37.5908 34.2995 37.3284 34.0371 37.0048 34.0371C34.4973 34.0371 32.1577 32.9938 29.8952 31.9847C26.9491 30.6708 23.4542 29.1374 20.641 31.5773C20.641 31.5773 20.6714 27.9406 20.641 26.9897C20.6563 25.128 21.8284 23.8531 23.3136 22.9122C23.7245 22.9949 24.5657 23.1333 25.5895 23.1333C26.9768 23.1333 28.6984 22.8788 30.1343 21.8858C33.0172 19.892 33.521 15.7709 33.541 15.5963C33.5745 15.3045 33.3867 15.0329 33.1018 14.9613C32.9315 14.9184 28.8977 13.9351 26.0147 15.9288C23.5191 17.6546 22.8065 20.9741 22.647 21.9484C21.9079 22.392 21.1737 22.9519 20.6409 23.6313V18.3232H21.5661C22.3337 18.3232 22.9583 17.6987 22.9583 16.931V15.1567C22.9583 14.9152 22.8964 14.6881 22.7879 14.4901C23.4678 13.9467 23.6626 12.9628 23.5641 12.1321C23.5623 11.8345 23.6944 11.5592 23.9265 11.3768C25.4739 10.1599 26.3614 8.33478 26.3614 6.36954C26.3614 5.49884 26.1707 4.58751 25.8177 3.79111C25.5109 3.09853 24.4394 3.57314 24.7463 4.26579C25.0343 4.91572 25.1895 5.65907 25.1895 6.36954C25.1895 7.97298 24.4652 9.46236 23.2021 10.4556C22.6835 10.8634 22.3884 11.477 22.3922 12.1394C22.5029 12.7482 22.3207 13.7645 21.5195 13.7645H20.5779V7.86267C20.5779 7.53907 20.3155 7.27673 19.992 7.27673C19.6684 7.27673 19.406 7.53907 19.406 7.86267V13.7645H18.4766C17.5829 13.5006 17.5816 12.9316 17.592 12.1159C17.6017 11.4816 17.3012 10.8627 16.7882 10.4606C15.4895 9.44259 14.7632 7.91345 14.7954 6.26532C14.8215 4.92868 15.3611 3.66517 16.3147 2.70743C17.2684 1.7497 18.5295 1.20493 19.8659 1.17337C20.9395 1.14736 21.9771 1.44696 22.8659 2.0379C23.4967 2.45736 24.1456 1.48157 23.5148 1.06212C22.4249 0.337433 21.1536 -0.0291293 19.8382 0.00180823C18.1984 0.0405582 16.6521 0.707746 15.4843 1.88056C14.3166 3.05329 13.6558 4.60236 13.6238 6.24243C13.5844 8.26204 14.4742 10.1356 16.0652 11.3828C16.2916 11.5603 16.4244 11.8277 16.4202 12.0977C16.4065 13.0085 16.4307 13.9147 17.2377 14.5245C17.1404 14.7144 17.0844 14.9288 17.0844 15.1565V16.9309C17.0844 17.6985 17.7089 18.3231 18.4766 18.3231H19.4691V23.6312C18.9362 22.9517 18.2021 22.3918 17.463 21.9482C17.3035 20.9739 16.5909 17.6545 14.0953 15.9287C11.2123 13.9349 7.17852 14.9182 7.0082 14.9611C6.72336 15.0327 6.53555 15.3043 6.56898 15.5962C6.58898 15.7706 7.09281 19.8919 9.9757 21.8856C11.9091 23.2226 14.5516 23.3635 16.7964 22.912C18.2817 23.8529 19.4537 25.1278 19.469 26.9895C19.4386 27.9404 19.469 31.58 19.469 31.58C16.6555 29.1364 13.1592 30.6699 10.2115 31.9845C7.94891 32.9936 5.6093 34.037 3.1018 34.037C2.7782 34.037 2.51586 34.2993 2.51586 34.6229V36.5625H1.71875C0.771016 36.5625 0 37.3335 0 38.2813C0 39.229 0.771016 40 1.71875 40H18.8188C19.0568 40 19.2712 39.856 19.3612 39.6356C19.7871 39.0624 20.2129 39.0624 20.6388 39.6356C20.7288 39.856 20.9431 40 21.1812 40H38.2812C39.229 40 40 39.229 40 38.2813C40 37.3335 39.229 36.5625 38.2812 36.5625ZM26.6813 16.8927C28.566 15.5893 31.1755 15.8193 32.2843 15.996C32.0584 17.0958 31.3525 19.6185 29.4677 20.922C27.583 22.2255 24.973 21.9953 23.8648 21.8186C24.0906 20.7189 24.7966 18.1961 26.6813 16.8927ZM18.2563 16.931V15.1567C18.2563 15.0352 18.3552 14.9363 18.4766 14.9363H21.5195C21.6434 14.9253 21.7324 14.9988 21.7864 15.1567V16.931C21.7864 17.0525 21.6876 17.1513 21.5661 17.1513H18.4766C18.3552 17.1513 18.2563 17.0525 18.2563 16.931ZM10.6424 20.922C8.75711 19.6181 8.05133 17.0942 7.82562 15.995C8.93234 15.8168 11.5372 15.5845 13.4288 16.8927C15.3143 18.1966 16.02 20.7209 16.2456 21.8196C15.1391 21.998 12.5341 22.2302 10.6424 20.922ZM24.4934 31.4227C25.9887 31.5256 27.6544 32.2685 29.4178 33.0549C31.5207 33.9927 33.8839 35.0468 36.4189 35.192V36.5625H20.641V33.2611C21.7498 31.9035 22.978 31.3185 24.4934 31.4227ZM38.2812 38.8281H21.5257C20.7988 37.7849 19.2012 37.7849 18.4743 38.8281H1.71875C1.0118 38.8281 1.0118 37.7344 1.71875 37.7344H6.71875C7.47633 37.7344 7.47633 36.5625 6.71875 36.5625H3.68789V35.192C6.22297 35.0468 8.58617 33.9927 10.689 33.0549C13.6523 31.7334 17.0076 30.2508 19.4658 33.2612V36.5625H10.7812C10.0237 36.5625 10.0237 37.7344 10.7812 37.7344H20.0517H38.2812C38.9882 37.7344 38.9882 38.8281 38.2812 38.8281Z" fill="#D0BB6E"/>
</g>
<defs>
<clipPath id="clip0_415_50">
<rect width="40" height="40" fill="white"/>
</clipPath>
</defs>
</svg>
