<svg width="40" height="40" viewBox="0 0 40 40" fill="none" xmlns="http://www.w3.org/2000/svg">
<g clip-path="url(#clip0_415_105)">
<path d="M39.2281 12.2746L30.7843 9.42088C30.4778 9.31775 30.1452 9.48182 30.0415 9.7884C29.9379 10.095 30.1025 10.4276 30.409 10.5312L38.7723 13.3577L34.8355 15.2769C34.6721 15.1667 34.4887 15.0821 34.2897 15.0301L22.4816 11.9441C22.1063 10.0131 19.7288 9.20266 18.2685 10.5769C17.7631 11.0525 17.4732 11.7233 17.4732 12.4171V12.43C17.4773 13.247 18.1536 13.9116 18.9807 13.9116H21.0194C21.5459 13.9116 22.0724 13.6369 22.3454 13.1198L33.3573 15.9977C29.8778 17.6941 22.0669 21.5022 21.0712 21.9877C20.3684 22.3303 19.5853 22.3078 18.9288 21.9877L1.22764 13.3577L19.2173 7.27778C19.7219 7.10715 20.278 7.10715 20.7826 7.27778L27.8062 9.65159C28.1129 9.75511 28.4453 9.59081 28.549 9.28407C28.6526 8.97749 28.4881 8.64489 28.1815 8.54129L21.1579 6.16748C20.4111 5.9152 19.5888 5.9152 18.842 6.16748L0.771752 12.2746C-0.188304 12.5993 -0.27495 13.929 0.637525 14.3737L9.91135 18.8951C9.40117 21.3206 8.62221 23.932 7.7756 26.2498C7.42902 27.1976 7.72763 28.2521 8.51846 28.8737C11.1948 30.9771 14.357 32.6021 17.5981 33.6466C19.1211 34.1373 20.8194 34.1562 22.4015 33.6466C25.6436 32.6016 28.8061 30.9761 31.4811 28.8737C32.2748 28.2496 32.5693 27.1947 32.2239 26.2498C31.3952 23.9834 30.6056 21.355 30.0882 18.8953L34.4505 16.7686V25.5878C33.7049 25.645 33.1154 26.2685 33.1154 27.0285V28.7361C33.1154 28.9898 33.2255 29.2177 33.3998 29.3764L33.1821 32.6674C33.1396 33.3103 33.6508 33.8568 34.2954 33.8568H35.7778C36.422 33.8568 36.9335 33.3106 36.891 32.6674L36.6734 29.3764C36.8476 29.2177 36.9578 28.9898 36.9578 28.7361V27.0284C36.9578 26.2684 36.3681 25.6449 35.6225 25.5878V16.7558C35.6225 16.5758 35.5942 16.4013 35.5436 16.2357L39.3624 14.3738C40.2737 13.9295 40.1898 12.5997 39.2281 12.2746ZM21.0194 12.7397H18.9807C18.7997 12.7397 18.646 12.5951 18.6451 12.427V12.4171C18.6451 12.0396 18.7966 11.6892 19.0717 11.4303C19.9155 10.6361 21.2984 11.2078 21.3532 12.35C21.3662 12.6236 21.1901 12.7397 21.0194 12.7397ZM30.4635 24.7434C27.2975 27.2212 22.8046 28.9937 21.257 29.2888C20.9391 29.3494 20.7306 29.6563 20.7912 29.9741C20.8518 30.2921 21.1596 30.5006 21.4766 30.4399C23.0953 30.1312 27.5305 28.4076 30.86 25.916C30.9419 26.1495 31.0367 26.4154 31.1232 26.652C31.2951 27.1224 31.1478 27.6448 30.7569 27.9522C27.6012 30.4323 24.2759 31.8111 22.0421 32.5309C20.7078 32.961 19.2585 32.9504 17.9575 32.5309C15.7236 31.811 12.3984 30.4323 9.24272 27.9522C8.85184 27.6449 8.70433 27.1226 8.87645 26.652C8.87988 26.6426 8.88324 26.6331 8.88668 26.6237C8.97184 26.3904 9.06622 26.1256 9.13959 25.9158C12.3904 28.3478 16.8135 30.1141 18.5225 30.4402C18.8408 30.5006 19.1473 30.2923 19.2079 29.9744C19.2685 29.6565 19.06 29.3496 18.7422 29.289C17.2812 29.0105 12.7728 27.2754 9.53609 24.7433C10.012 23.288 10.5634 21.4178 10.9969 19.4244L18.4151 23.041C19.4028 23.5226 20.5585 23.5414 21.5848 23.041L29.0026 19.4245C29.4361 21.4178 29.9875 23.2881 30.4635 24.7434ZM34.3554 32.6847L34.5592 29.6034H35.5138L35.7176 32.6847H34.3554ZM35.7858 27.0283V28.4314H34.2873V27.0283C34.2873 26.8796 34.4129 26.754 34.5616 26.754H35.5114C35.66 26.7541 35.7858 26.8796 35.7858 27.0283Z" fill="#D0BB6E"/>
</g>
<defs>
<clipPath id="clip0_415_105">
<rect width="40" height="40" fill="white"/>
</clipPath>
</defs>
</svg>
