<svg width="40" height="40" viewBox="0 0 40 40" fill="none" xmlns="http://www.w3.org/2000/svg">
<g clip-path="url(#clip0_415_100)">
<path d="M38.7878 6.18195C39.4562 6.18195 40 5.6382 40 4.96977V2.46469C40 1.79625 39.4562 1.2525 38.7878 1.2525H1.21219C0.54375 1.2525 0 1.79633 0 2.46469V4.96969C0 5.63813 0.54375 6.18188 1.21219 6.18188H1.2525V27.5554H1.21219C0.54375 27.5554 0 28.0992 0 28.7677V30.0202C0 30.6887 0.54375 31.2324 1.21219 31.2324H19.4141V35.1669C18.6869 35.4122 18.1616 36.1002 18.1616 36.9091C18.1616 37.9229 18.9863 38.7476 20 38.7476C21.0137 38.7476 21.8384 37.9228 21.8384 36.9091C21.8384 36.1003 21.3131 35.4123 20.5859 35.1669V31.2324H38.7878C39.4562 31.2324 40 30.6887 40 30.0202V28.7677C40 28.0992 39.4562 27.5555 38.7878 27.5555H38.7475V6.18195H38.7878ZM20 37.5756C19.6324 37.5756 19.3334 37.2766 19.3334 36.9091C19.3334 36.5416 19.6325 36.2425 20 36.2425C20.3675 36.2425 20.6666 36.5416 20.6666 36.9091C20.6666 37.2766 20.3676 37.5756 20 37.5756ZM37.5756 27.5554H36.2828C35.9592 27.5554 35.6969 27.8177 35.6969 28.1413C35.6969 28.4649 35.9592 28.7273 36.2828 28.7273H38.7878C38.8101 28.7273 38.8281 28.7453 38.8281 28.7676V30.0201C38.8281 30.0424 38.8101 30.0605 38.7878 30.0605H1.21219C1.18992 30.0605 1.17188 30.0424 1.17188 30.0201V28.7676C1.17188 28.7453 1.18992 28.7273 1.21219 28.7273H33.7777C34.1013 28.7273 34.3637 28.4649 34.3637 28.1413C34.3637 27.8177 34.1013 27.5554 33.7777 27.5554H2.42438V6.18195H3.71719C4.04078 6.18195 4.30313 5.91961 4.30313 5.59602C4.30313 5.27242 4.04078 5.01008 3.71719 5.01008H1.21219C1.18992 5.01008 1.17188 4.99203 1.17188 4.96977V2.46469C1.17188 2.44242 1.18992 2.42438 1.21219 2.42438H38.7878C38.8101 2.42438 38.8281 2.44242 38.8281 2.46469V4.96969C38.8281 4.99195 38.8101 5.01 38.7878 5.01H6.22227C5.89867 5.01 5.63633 5.27235 5.63633 5.59594C5.63633 5.91953 5.89867 6.18188 6.22227 6.18188H37.5756V27.5554Z" fill="#D0BB6E"/>
<path d="M15.3267 22.7525C15.6907 22.9774 16.0991 23.0909 16.5092 23.0909C16.8526 23.0909 17.1971 23.0113 17.5176 22.8511L25.4541 18.8828C26.2219 18.4989 26.6989 17.7272 26.6989 16.8688C26.699 16.0103 26.222 15.2385 25.4542 14.8546L17.5177 10.8863C16.8146 10.5348 15.9955 10.5716 15.3268 10.9849C14.658 11.3981 14.2588 12.1142 14.2588 12.9004V20.8369C14.2586 21.6231 14.6579 22.3392 15.3267 22.7525ZM15.4305 12.9004C15.4305 12.5178 15.6172 12.1829 15.9427 11.9817C16.1196 11.8724 16.3133 11.8174 16.5084 11.8174C16.6724 11.8174 16.8371 11.8563 16.9935 11.9345L24.9299 15.9027C25.3038 16.0896 25.5269 16.4508 25.5269 16.8687C25.5269 17.2866 25.3037 17.6478 24.9299 17.8346L16.9934 21.8029C16.6511 21.9739 16.2681 21.9568 15.9426 21.7556C15.6171 21.5545 15.4304 21.2196 15.4304 20.8369V12.9004H15.4305Z" fill="#D0BB6E"/>
</g>
<defs>
<clipPath id="clip0_415_100">
<rect width="40" height="40" fill="white"/>
</clipPath>
</defs>
</svg>
