<svg width="251" height="352" viewBox="0 0 251 352" fill="none" xmlns="http://www.w3.org/2000/svg">
<rect x="0.5" y="0.5" width="248" height="349.264" rx="9.5" fill="#FFFDF6" stroke="#E0D2B9"/>
<path d="M15.976 57.896C15.768 57.664 15.512 57.464 15.208 57.296C14.904 57.128 14.508 57.044 14.02 57.044C13.452 57.044 13.008 57.164 12.688 57.404C12.376 57.636 12.22 57.96 12.22 58.376C12.22 58.488 12.248 58.62 12.304 58.772C12.36 58.924 12.472 59.072 12.64 59.216C12.816 59.352 13.068 59.48 13.396 59.6L15.196 60.164C15.924 60.388 16.444 60.708 16.756 61.124C17.076 61.532 17.236 62.012 17.236 62.564C17.236 63.092 17.1 63.548 16.828 63.932C16.564 64.316 16.184 64.612 15.688 64.82C15.2 65.02 14.616 65.12 13.936 65.12C13.432 65.12 12.964 65.064 12.532 64.952C12.108 64.832 11.728 64.66 11.392 64.436C11.064 64.204 10.788 63.924 10.564 63.596C10.532 63.54 10.52 63.488 10.528 63.44C10.536 63.392 10.572 63.344 10.636 63.296L11.224 62.888C11.312 62.832 11.38 62.808 11.428 62.816C11.476 62.824 11.52 62.852 11.56 62.9C11.76 63.156 11.96 63.372 12.16 63.548C12.368 63.724 12.604 63.856 12.868 63.944C13.14 64.024 13.468 64.064 13.852 64.064C14.452 64.064 14.932 63.96 15.292 63.752C15.66 63.536 15.844 63.196 15.844 62.732C15.844 62.548 15.808 62.384 15.736 62.24C15.664 62.088 15.54 61.952 15.364 61.832C15.188 61.704 14.932 61.58 14.596 61.46L12.784 60.872C12.328 60.72 11.956 60.524 11.668 60.284C11.388 60.044 11.18 59.772 11.044 59.468C10.908 59.164 10.84 58.852 10.84 58.532C10.84 58.02 10.972 57.572 11.236 57.188C11.5 56.804 11.868 56.508 12.34 56.3C12.812 56.084 13.364 55.976 13.996 55.976C14.42 55.976 14.808 56.028 15.16 56.132C15.52 56.228 15.848 56.368 16.144 56.552C16.44 56.728 16.692 56.94 16.9 57.188C16.932 57.228 16.952 57.268 16.96 57.308C16.976 57.348 16.956 57.392 16.9 57.44L16.216 57.968C16.168 58 16.128 58.012 16.096 58.004C16.072 57.988 16.032 57.952 15.976 57.896ZM20.9721 64.16C21.2921 64.16 21.5921 64.076 21.8721 63.908C22.1601 63.732 22.4401 63.5 22.7121 63.212V58.844C22.7121 58.708 22.7881 58.64 22.9401 58.64H23.8041C23.9321 58.64 23.9961 58.704 23.9961 58.832L23.9721 64.832C23.9721 64.944 23.9241 65 23.8281 65H22.8921C22.7961 65 22.7481 64.948 22.7481 64.844V64.172C22.7481 64.132 22.7361 64.108 22.7121 64.1C22.6961 64.084 22.6681 64.096 22.6281 64.136C22.2201 64.504 21.8481 64.76 21.5121 64.904C21.1761 65.048 20.8321 65.12 20.4801 65.12C20.1201 65.12 19.7961 65.044 19.5081 64.892C19.2281 64.74 19.0041 64.524 18.8361 64.244C18.6761 63.964 18.5961 63.636 18.5961 63.26V58.856C18.5961 58.712 18.6681 58.64 18.8121 58.64H19.6881C19.8081 58.64 19.8681 58.704 19.8681 58.832V62.996C19.8681 63.34 19.9641 63.62 20.1561 63.836C20.3561 64.052 20.6281 64.16 20.9721 64.16ZM25.8802 65C25.8002 65 25.7442 64.984 25.7122 64.952C25.6802 64.92 25.6642 64.864 25.6642 64.784V56.276C25.6642 56.156 25.7202 56.096 25.8322 56.096H26.7922C26.8882 56.096 26.9362 56.156 26.9362 56.276V59.18C26.9362 59.26 26.9522 59.304 26.9842 59.312C27.0242 59.32 27.0722 59.3 27.1282 59.252C27.2162 59.164 27.3402 59.064 27.5002 58.952C27.6682 58.84 27.8722 58.74 28.1122 58.652C28.3602 58.564 28.6442 58.52 28.9642 58.52C29.5402 58.52 30.0162 58.664 30.3922 58.952C30.7682 59.232 31.0482 59.616 31.2322 60.104C31.4242 60.592 31.5202 61.152 31.5202 61.784C31.5202 62.808 31.2802 63.62 30.8002 64.22C30.3282 64.82 29.6562 65.12 28.7842 65.12C28.4402 65.12 28.1402 65.068 27.8842 64.964C27.6282 64.86 27.4162 64.732 27.2482 64.58C27.0802 64.428 26.9482 64.292 26.8522 64.172C26.8202 64.132 26.7882 64.116 26.7562 64.124C26.7322 64.124 26.7202 64.152 26.7202 64.208L26.6242 64.796C26.6002 64.932 26.5202 65 26.3842 65H25.8802ZM26.9362 62.84C26.9362 63.112 27.0082 63.356 27.1522 63.572C27.3042 63.788 27.4962 63.96 27.7282 64.088C27.9682 64.208 28.2242 64.268 28.4962 64.268C28.8242 64.268 29.1162 64.184 29.3722 64.016C29.6362 63.848 29.8402 63.584 29.9842 63.224C30.1362 62.856 30.2122 62.384 30.2122 61.808C30.2122 61.016 30.0722 60.416 29.7922 60.008C29.5122 59.6 29.1002 59.396 28.5562 59.396C28.2282 59.396 27.9242 59.472 27.6442 59.624C27.3642 59.776 27.1282 59.968 26.9362 60.2V62.84ZM34.167 65.216C34.167 65.832 34.027 66.288 33.747 66.584C33.475 66.888 33.003 67.04 32.331 67.04C31.987 67.04 31.771 67.028 31.683 67.004C31.587 66.988 31.539 66.936 31.539 66.848L31.527 66.2C31.527 66.16 31.539 66.12 31.563 66.08C31.587 66.048 31.623 66.028 31.671 66.02L32.247 65.984C32.471 65.968 32.635 65.9 32.739 65.78C32.843 65.668 32.895 65.456 32.895 65.144V58.82C32.895 58.7 32.951 58.64 33.063 58.64H34.023C34.119 58.64 34.167 58.696 34.167 58.808V65.216ZM34.203 57.368C34.203 57.536 34.119 57.62 33.951 57.62H33.063C32.927 57.62 32.859 57.544 32.859 57.392V56.3C32.859 56.164 32.919 56.096 33.039 56.096H34.023C34.143 56.096 34.203 56.16 34.203 56.288V57.368ZM36.8198 62.264C36.8198 62.624 36.9038 62.952 37.0718 63.248C37.2478 63.536 37.4798 63.768 37.7678 63.944C38.0638 64.112 38.3918 64.196 38.7518 64.196C39.1198 64.196 39.4478 64.12 39.7358 63.968C40.0238 63.816 40.2878 63.58 40.5278 63.26C40.5518 63.228 40.5758 63.212 40.5998 63.212C40.6238 63.204 40.6598 63.212 40.7078 63.236L41.3198 63.524C41.4078 63.564 41.4158 63.628 41.3438 63.716C41.1198 64.044 40.8718 64.312 40.5998 64.52C40.3358 64.728 40.0398 64.88 39.7118 64.976C39.3838 65.072 39.0198 65.12 38.6198 65.12C38.0118 65.12 37.4758 64.984 37.0118 64.712C36.5478 64.44 36.1798 64.06 35.9078 63.572C35.6438 63.084 35.5118 62.524 35.5118 61.892C35.5118 61.196 35.6478 60.6 35.9198 60.104C36.1918 59.6 36.5598 59.212 37.0238 58.94C37.4958 58.66 38.0198 58.52 38.5958 58.52C39.1878 58.52 39.7038 58.652 40.1438 58.916C40.5918 59.172 40.9398 59.544 41.1878 60.032C41.4358 60.52 41.5598 61.112 41.5598 61.808C41.5598 61.88 41.5518 61.944 41.5358 62C41.5198 62.048 41.4678 62.072 41.3798 62.072H36.9398C36.8998 62.072 36.8678 62.092 36.8438 62.132C36.8278 62.164 36.8198 62.208 36.8198 62.264ZM40.0958 61.316C40.1838 61.316 40.2398 61.304 40.2638 61.28C40.2878 61.256 40.2998 61.212 40.2998 61.148C40.2998 60.844 40.2318 60.556 40.0958 60.284C39.9678 60.012 39.7798 59.792 39.5318 59.624C39.2918 59.456 38.9918 59.372 38.6318 59.372C38.2558 59.372 37.9318 59.464 37.6598 59.648C37.3958 59.824 37.1918 60.06 37.0478 60.356C36.9118 60.652 36.8438 60.968 36.8438 61.304L40.0958 61.316ZM45.5562 58.52C46.0042 58.52 46.3922 58.596 46.7202 58.748C47.0562 58.892 47.3362 59.088 47.5602 59.336C47.7922 59.576 47.9762 59.836 48.1122 60.116C48.1602 60.228 48.1322 60.296 48.0282 60.32L47.1762 60.464C47.1042 60.48 47.0522 60.448 47.0202 60.368C46.8842 60.16 46.7482 59.988 46.6122 59.852C46.4762 59.716 46.3282 59.608 46.1682 59.528C46.0082 59.448 45.8242 59.408 45.6162 59.408C45.2482 59.408 44.9242 59.504 44.6442 59.696C44.3722 59.88 44.1602 60.152 44.0082 60.512C43.8642 60.872 43.7922 61.308 43.7922 61.82C43.7922 62.332 43.8682 62.772 44.0202 63.14C44.1722 63.5 44.3882 63.776 44.6682 63.968C44.9482 64.152 45.2802 64.244 45.6642 64.244C46.0402 64.244 46.3562 64.148 46.6122 63.956C46.8682 63.764 47.1042 63.492 47.3202 63.14C47.3442 63.108 47.3642 63.088 47.3802 63.08C47.4042 63.072 47.4402 63.076 47.4882 63.092L48.1242 63.284C48.1882 63.308 48.2042 63.368 48.1722 63.464C48.0762 63.664 47.9482 63.864 47.7882 64.064C47.6362 64.264 47.4522 64.444 47.2362 64.604C47.0282 64.756 46.7842 64.88 46.5042 64.976C46.2242 65.072 45.9082 65.12 45.5562 65.12C44.9562 65.12 44.4242 64.984 43.9602 64.712C43.5042 64.432 43.1442 64.048 42.8802 63.56C42.6242 63.064 42.4962 62.492 42.4962 61.844C42.4962 61.188 42.6282 60.612 42.8922 60.116C43.1562 59.62 43.5162 59.232 43.9722 58.952C44.4362 58.664 44.9642 58.52 45.5562 58.52ZM51.1992 59.552C51.1272 59.552 51.0912 59.592 51.0912 59.672V63.188C51.0912 63.532 51.1552 63.768 51.2832 63.896C51.4112 64.016 51.6072 64.076 51.8712 64.076H52.6392C52.6872 64.076 52.7232 64.092 52.7472 64.124C52.7712 64.148 52.7832 64.18 52.7832 64.22V64.736C52.7832 64.84 52.7232 64.908 52.6032 64.94C52.4992 64.956 52.3712 64.968 52.2192 64.976C52.0672 64.984 51.9152 64.992 51.7632 65C51.6192 65 51.4912 65 51.3792 65C50.8592 65 50.4672 64.88 50.2032 64.64C49.9472 64.392 49.8192 64.012 49.8192 63.5V59.696C49.8192 59.6 49.7792 59.552 49.6992 59.552H48.7992C48.6952 59.552 48.6432 59.504 48.6432 59.408V58.772C48.6432 58.684 48.6912 58.64 48.7872 58.64H49.7472C49.8112 58.64 49.8432 58.604 49.8432 58.532L49.9872 56.648C49.9952 56.536 50.0432 56.48 50.1312 56.48H50.9592C51.0632 56.48 51.1152 56.544 51.1152 56.672V58.532C51.1152 58.604 51.1512 58.64 51.2232 58.64H52.6632C52.7592 58.64 52.8072 58.684 52.8072 58.772V59.408C52.8072 59.504 52.7512 59.552 52.6392 59.552H51.1992ZM55.2356 60.188C55.2356 60.332 55.1516 60.404 54.9836 60.404H53.9636C53.8276 60.404 53.7596 60.34 53.7596 60.212V59.048C53.7596 58.936 53.8076 58.88 53.9036 58.88H55.1036C55.1916 58.88 55.2356 58.932 55.2356 59.036V60.188ZM55.2356 64.748C55.2356 64.892 55.1516 64.964 54.9836 64.964H53.9636C53.8276 64.964 53.7596 64.896 53.7596 64.76V63.608C53.7596 63.488 53.8076 63.428 53.9036 63.428H55.1036C55.1916 63.428 55.2356 63.48 55.2356 63.584V64.748Z" fill="#292929"/>
<path d="M10.468 36.264C10.468 36.208 10.48 36.168 10.504 36.144C10.536 36.112 10.584 36.096 10.648 36.096H17.236C17.3 36.096 17.344 36.112 17.368 36.144C17.392 36.168 17.404 36.208 17.404 36.264V37.032C17.404 37.128 17.348 37.176 17.236 37.176H14.86C14.772 37.176 14.728 37.212 14.728 37.284V44.82C14.728 44.94 14.676 45 14.572 45H13.444C13.34 45 13.288 44.944 13.288 44.832V37.308C13.288 37.22 13.244 37.176 13.156 37.176H10.636C10.524 37.176 10.468 37.128 10.468 37.032V36.264ZM20.1739 45.12C19.5579 45.12 19.0179 44.984 18.5539 44.712C18.0899 44.432 17.7299 44.048 17.4739 43.56C17.2179 43.064 17.0899 42.496 17.0899 41.856C17.0899 41.192 17.2219 40.612 17.4859 40.116C17.7499 39.612 18.1139 39.22 18.5779 38.94C19.0499 38.66 19.5859 38.52 20.1859 38.52C20.8099 38.52 21.3499 38.664 21.8059 38.952C22.2699 39.232 22.6299 39.624 22.8859 40.128C23.1419 40.624 23.2699 41.196 23.2699 41.844C23.2699 42.484 23.1379 43.052 22.8739 43.548C22.6179 44.036 22.2579 44.42 21.7939 44.7C21.3299 44.98 20.7899 45.12 20.1739 45.12ZM20.1979 44.22C20.5739 44.22 20.8939 44.124 21.1579 43.932C21.4219 43.74 21.6219 43.468 21.7579 43.116C21.9019 42.756 21.9739 42.324 21.9739 41.82C21.9739 41.316 21.9019 40.884 21.7579 40.524C21.6219 40.164 21.4179 39.888 21.1459 39.696C20.8819 39.496 20.5619 39.396 20.1859 39.396C19.8099 39.396 19.4859 39.496 19.2139 39.696C18.9499 39.888 18.7459 40.164 18.6019 40.524C18.4579 40.884 18.3859 41.316 18.3859 41.82C18.3859 42.324 18.4579 42.756 18.6019 43.116C18.7459 43.468 18.9499 43.74 19.2139 43.932C19.4859 44.124 19.8139 44.22 20.1979 44.22ZM25.8215 40.188C25.8215 40.332 25.7375 40.404 25.5695 40.404H24.5495C24.4135 40.404 24.3455 40.34 24.3455 40.212V39.048C24.3455 38.936 24.3935 38.88 24.4895 38.88H25.6895C25.7775 38.88 25.8215 38.932 25.8215 39.036V40.188ZM25.8215 44.748C25.8215 44.892 25.7375 44.964 25.5695 44.964H24.5495C24.4135 44.964 24.3455 44.896 24.3455 44.76V43.608C24.3455 43.488 24.3935 43.428 24.4895 43.428H25.6895C25.7775 43.428 25.8215 43.48 25.8215 43.584V44.748Z" fill="#292929"/>
<line x1="10.5" y1="77.5" x2="238.5" y2="77.5" stroke="#ECECEC" stroke-linecap="round"/>
<path d="M213.86 19.164C213.941 19.164 213.981 19.2007 213.981 19.274V19.89C213.981 19.912 213.97 19.9377 213.948 19.967C213.933 19.989 213.904 20 213.86 20H209.999C209.918 20 209.878 19.9633 209.878 19.89V19.274C209.878 19.2007 209.918 19.164 209.999 19.164H211.385C211.444 19.164 211.473 19.1457 211.473 19.109V13.059C211.473 12.9857 211.44 12.9563 211.374 12.971L210.01 13.477C209.915 13.499 209.867 13.455 209.867 13.345V12.905C209.867 12.8537 209.874 12.8207 209.889 12.806C209.904 12.784 209.933 12.762 209.977 12.74L211.605 11.926C211.678 11.8893 211.737 11.8673 211.781 11.86C211.825 11.8453 211.876 11.838 211.935 11.838H212.408C212.489 11.838 212.529 11.882 212.529 11.97V19.087C212.529 19.1383 212.551 19.164 212.595 19.164H213.86ZM218.736 11.728C219.169 11.728 219.569 11.8197 219.935 12.003C220.309 12.179 220.632 12.4467 220.903 12.806C221.182 13.1653 221.398 13.609 221.552 14.137C221.706 14.6577 221.783 15.259 221.783 15.941C221.783 16.8503 221.648 17.613 221.376 18.229C221.112 18.845 220.749 19.3107 220.287 19.626C219.825 19.9413 219.305 20.099 218.725 20.099C218.139 20.099 217.614 19.9413 217.152 19.626C216.69 19.3107 216.327 18.845 216.063 18.229C215.799 17.613 215.667 16.854 215.667 15.952C215.667 15.27 215.744 14.6687 215.898 14.148C216.052 13.62 216.269 13.1763 216.547 12.817C216.826 12.4503 217.152 12.179 217.526 12.003C217.9 11.8197 218.304 11.728 218.736 11.728ZM218.736 19.296C219.14 19.296 219.488 19.1823 219.781 18.955C220.075 18.7277 220.302 18.3683 220.463 17.877C220.625 17.3783 220.705 16.733 220.705 15.941C220.705 15.1343 220.621 14.4817 220.452 13.983C220.291 13.4843 220.06 13.1177 219.759 12.883C219.466 12.6483 219.121 12.531 218.725 12.531C218.329 12.531 217.981 12.6483 217.68 12.883C217.387 13.1177 217.156 13.488 216.987 13.994C216.826 14.4927 216.745 15.1417 216.745 15.941C216.745 16.733 216.826 17.3783 216.987 17.877C217.156 18.3683 217.391 18.7277 217.691 18.955C217.992 19.1823 218.34 19.296 218.736 19.296ZM224.72 15.479C224.72 15.5963 224.654 15.655 224.522 15.655H223.752C223.642 15.655 223.587 15.6 223.587 15.49V14.566C223.587 14.4707 223.627 14.423 223.708 14.423H224.61C224.683 14.423 224.72 14.4633 224.72 14.544V15.479ZM224.72 19.791C224.72 19.9083 224.654 19.967 224.522 19.967H223.752C223.642 19.967 223.587 19.9157 223.587 19.813V18.878C223.587 18.79 223.627 18.746 223.708 18.746H224.61C224.683 18.746 224.72 18.7863 224.72 18.867V19.791ZM230.345 19.164C230.426 19.164 230.466 19.2007 230.466 19.274V19.89C230.466 19.912 230.455 19.9377 230.433 19.967C230.419 19.989 230.389 20 230.345 20H226.484C226.404 20 226.363 19.9633 226.363 19.89V19.274C226.363 19.2007 226.404 19.164 226.484 19.164H227.87C227.929 19.164 227.958 19.1457 227.958 19.109V13.059C227.958 12.9857 227.925 12.9563 227.859 12.971L226.495 13.477C226.4 13.499 226.352 13.455 226.352 13.345V12.905C226.352 12.8537 226.36 12.8207 226.374 12.806C226.389 12.784 226.418 12.762 226.462 12.74L228.09 11.926C228.164 11.8893 228.222 11.8673 228.266 11.86C228.31 11.8453 228.362 11.838 228.42 11.838H228.893C228.974 11.838 229.014 11.882 229.014 11.97V19.087C229.014 19.1383 229.036 19.164 229.08 19.164H230.345ZM235.222 11.728C235.654 11.728 236.054 11.8197 236.421 12.003C236.795 12.179 237.117 12.4467 237.389 12.806C237.667 13.1653 237.884 13.609 238.038 14.137C238.192 14.6577 238.269 15.259 238.269 15.941C238.269 16.8503 238.133 17.613 237.862 18.229C237.598 18.845 237.235 19.3107 236.773 19.626C236.311 19.9413 235.79 20.099 235.211 20.099C234.624 20.099 234.1 19.9413 233.638 19.626C233.176 19.3107 232.813 18.845 232.549 18.229C232.285 17.613 232.153 16.854 232.153 15.952C232.153 15.27 232.23 14.6687 232.384 14.148C232.538 13.62 232.754 13.1763 233.033 12.817C233.311 12.4503 233.638 12.179 234.012 12.003C234.386 11.8197 234.789 11.728 235.222 11.728ZM235.222 19.296C235.625 19.296 235.973 19.1823 236.267 18.955C236.56 18.7277 236.787 18.3683 236.949 17.877C237.11 17.3783 237.191 16.733 237.191 15.941C237.191 15.1343 237.106 14.4817 236.938 13.983C236.776 13.4843 236.545 13.1177 236.245 12.883C235.951 12.6483 235.607 12.531 235.211 12.531C234.815 12.531 234.466 12.6483 234.166 12.883C233.872 13.1177 233.641 13.488 233.473 13.994C233.311 14.4927 233.231 15.1417 233.231 15.941C233.231 16.733 233.311 17.3783 233.473 17.877C233.641 18.3683 233.876 18.7277 234.177 18.955C234.477 19.1823 234.826 19.296 235.222 19.296Z" fill="black" fill-opacity="0.25"/>
<path d="M131.395 20C131.292 20 131.241 19.945 131.241 19.835V11.992C131.241 11.8893 131.285 11.838 131.373 11.838H132.429C132.487 11.838 132.528 11.8453 132.55 11.86C132.579 11.8747 132.601 11.9077 132.616 11.959L135.058 18.262C135.087 18.328 135.116 18.361 135.146 18.361C135.175 18.3537 135.204 18.317 135.234 18.251L137.676 11.981C137.705 11.8857 137.76 11.838 137.841 11.838H138.952C139.032 11.838 139.073 11.8857 139.073 11.981V19.835C139.073 19.945 139.018 20 138.908 20H138.182C138.123 20 138.079 19.989 138.05 19.967C138.028 19.945 138.017 19.9083 138.017 19.857V13.565C138.017 13.5283 138.009 13.5137 137.995 13.521C137.98 13.521 137.969 13.5357 137.962 13.565L135.542 19.857C135.505 19.9523 135.435 20 135.333 20H134.805C134.687 20 134.614 19.956 134.585 19.868L132.198 13.631C132.183 13.5943 132.168 13.5797 132.154 13.587C132.146 13.587 132.143 13.6017 132.143 13.631V19.857C132.143 19.9083 132.132 19.945 132.11 19.967C132.088 19.989 132.047 20 131.989 20H131.395ZM143.932 20.11C143.382 20.11 142.894 19.9853 142.469 19.736C142.051 19.4793 141.724 19.1273 141.49 18.68C141.262 18.2253 141.149 17.7047 141.149 17.118C141.149 16.5093 141.266 15.9777 141.501 15.523C141.743 15.061 142.073 14.7017 142.491 14.445C142.909 14.1883 143.393 14.06 143.943 14.06C144.5 14.06 144.984 14.192 145.395 14.456C145.813 14.7127 146.135 15.072 146.363 15.534C146.597 15.9887 146.715 16.513 146.715 17.107C146.715 17.6937 146.597 18.2143 146.363 18.669C146.128 19.1163 145.802 19.4683 145.384 19.725C144.973 19.9817 144.489 20.11 143.932 20.11ZM143.954 19.417C144.335 19.417 144.661 19.3253 144.933 19.142C145.204 18.9513 145.409 18.6837 145.549 18.339C145.695 17.987 145.769 17.569 145.769 17.085C145.769 16.601 145.695 16.1867 145.549 15.842C145.402 15.49 145.193 15.2187 144.922 15.028C144.65 14.8373 144.324 14.742 143.943 14.742C143.569 14.742 143.242 14.8373 142.964 15.028C142.685 15.2187 142.469 15.49 142.315 15.842C142.168 16.1867 142.095 16.601 142.095 17.085C142.095 17.5617 142.168 17.976 142.315 18.328C142.469 18.68 142.685 18.9513 142.964 19.142C143.242 19.3253 143.572 19.417 143.954 19.417ZM148.729 20C148.626 20 148.575 19.9523 148.575 19.857V14.313C148.575 14.2177 148.615 14.17 148.696 14.17H149.356C149.436 14.17 149.477 14.2103 149.477 14.291V14.929C149.477 14.9657 149.484 14.9877 149.499 14.995C149.513 15.0023 149.539 14.9913 149.576 14.962C149.818 14.7713 150.041 14.61 150.247 14.478C150.459 14.3387 150.676 14.236 150.896 14.17C151.116 14.0967 151.35 14.06 151.6 14.06C152.172 14.06 152.608 14.214 152.909 14.522C153.217 14.83 153.371 15.2297 153.371 15.721V19.824C153.371 19.9413 153.316 20 153.206 20H152.59C152.538 20 152.502 19.989 152.48 19.967C152.458 19.9377 152.447 19.901 152.447 19.857V15.93C152.447 15.5707 152.355 15.292 152.172 15.094C151.988 14.8887 151.699 14.786 151.303 14.786C151.09 14.786 150.888 14.8227 150.698 14.896C150.514 14.962 150.327 15.061 150.137 15.193C149.946 15.3177 149.733 15.479 149.499 15.677V19.835C149.499 19.945 149.444 20 149.334 20H148.729ZM155.223 21.573C155.187 21.573 155.161 21.5583 155.146 21.529C155.132 21.4997 155.132 21.4593 155.146 21.408L155.641 20.176C155.693 20.0587 155.663 20 155.553 20H155.41C155.315 20 155.267 19.956 155.267 19.868V18.889C155.267 18.8083 155.3 18.768 155.366 18.768H156.29C156.364 18.768 156.4 18.8047 156.4 18.878V19.78C156.4 19.824 156.389 19.868 156.367 19.912L155.564 21.452C155.542 21.4887 155.509 21.518 155.465 21.54C155.429 21.562 155.388 21.573 155.344 21.573H155.223ZM160.94 20C160.896 20 160.863 19.9853 160.841 19.956C160.826 19.9193 160.826 19.8717 160.841 19.813L163.69 11.992C163.712 11.9407 163.738 11.904 163.767 11.882C163.796 11.8527 163.844 11.838 163.91 11.838H164.768C164.9 11.838 164.984 11.893 165.021 12.003L167.837 19.813C167.852 19.857 167.848 19.901 167.826 19.945C167.811 19.9817 167.778 20 167.727 20H166.946C166.858 20 166.799 19.9633 166.77 19.89L166.011 17.756C165.996 17.7267 165.982 17.7047 165.967 17.69C165.952 17.6753 165.923 17.668 165.879 17.668H162.678C162.612 17.668 162.568 17.6973 162.546 17.756L161.765 19.901C161.758 19.9303 161.739 19.956 161.71 19.978C161.688 19.9927 161.651 20 161.6 20H160.94ZM165.593 16.832C165.681 16.832 165.71 16.7843 165.681 16.689L164.361 13.07C164.332 13.004 164.302 12.971 164.273 12.971C164.251 12.971 164.229 13.004 164.207 13.07L162.865 16.711C162.828 16.7917 162.85 16.832 162.931 16.832H165.593ZM170.433 14.17C170.536 14.17 170.587 14.225 170.587 14.335V14.797C170.587 14.8557 170.598 14.8887 170.62 14.896C170.649 14.896 170.686 14.8777 170.73 14.841C170.811 14.753 170.921 14.6503 171.06 14.533C171.199 14.4083 171.379 14.2983 171.599 14.203C171.826 14.1077 172.112 14.06 172.457 14.06C172.904 14.06 173.308 14.17 173.667 14.39C174.034 14.6027 174.323 14.9253 174.536 15.358C174.756 15.7907 174.866 16.337 174.866 16.997C174.866 17.657 174.76 18.218 174.547 18.68C174.334 19.142 174.037 19.4977 173.656 19.747C173.282 19.989 172.842 20.11 172.336 20.11C171.999 20.11 171.698 20.0587 171.434 19.956C171.177 19.846 170.957 19.714 170.774 19.56C170.708 19.5013 170.66 19.4793 170.631 19.494C170.609 19.5013 170.598 19.5453 170.598 19.626V21.672C170.598 21.7673 170.558 21.815 170.477 21.815H169.795C169.714 21.815 169.674 21.7673 169.674 21.672V14.346C169.674 14.28 169.685 14.236 169.707 14.214C169.736 14.1847 169.784 14.17 169.85 14.17H170.433ZM170.598 18.713C170.825 18.933 171.056 19.109 171.291 19.241C171.533 19.373 171.801 19.439 172.094 19.439C172.446 19.439 172.758 19.3473 173.029 19.164C173.308 18.9807 173.524 18.7093 173.678 18.35C173.839 17.9907 173.92 17.5433 173.92 17.008C173.92 16.4727 173.839 16.0363 173.678 15.699C173.517 15.3617 173.3 15.116 173.029 14.962C172.765 14.808 172.472 14.731 172.149 14.731C171.848 14.731 171.581 14.797 171.346 14.929C171.111 15.061 170.928 15.226 170.796 15.424C170.664 15.6147 170.598 15.8053 170.598 15.996V18.713ZM176.892 20C176.84 20 176.8 19.989 176.771 19.967C176.749 19.9377 176.738 19.901 176.738 19.857V14.313C176.738 14.2177 176.778 14.17 176.859 14.17H177.497C177.577 14.17 177.618 14.2103 177.618 14.291V15.006C177.618 15.05 177.629 15.0757 177.651 15.083C177.673 15.0903 177.702 15.0757 177.739 15.039C177.929 14.8117 178.116 14.6283 178.3 14.489C178.49 14.3423 178.681 14.236 178.872 14.17C179.062 14.0967 179.253 14.06 179.444 14.06C179.7 14.06 179.829 14.1077 179.829 14.203V14.863C179.829 14.9363 179.796 14.9657 179.73 14.951C179.664 14.9437 179.587 14.9363 179.499 14.929C179.418 14.9217 179.33 14.918 179.235 14.918C179.073 14.918 178.901 14.9547 178.718 15.028C178.534 15.094 178.362 15.1893 178.201 15.314C178.047 15.4387 177.918 15.578 177.816 15.732C177.713 15.886 177.662 16.04 177.662 16.194V19.835C177.662 19.945 177.607 20 177.497 20H176.892ZM182.373 19.813C182.373 19.8863 182.358 19.9377 182.329 19.967C182.307 19.989 182.255 20 182.175 20H181.614C181.548 20 181.504 19.989 181.482 19.967C181.46 19.945 181.449 19.9047 181.449 19.846V14.324C181.449 14.2213 181.493 14.17 181.581 14.17H182.252C182.332 14.17 182.373 14.2177 182.373 14.313V19.813ZM182.417 12.916C182.417 13.0553 182.351 13.125 182.219 13.125H181.581C181.515 13.125 181.471 13.1103 181.449 13.081C181.427 13.0443 181.416 12.9967 181.416 12.938V12.014C181.416 11.8967 181.467 11.838 181.57 11.838H182.263C182.365 11.838 182.417 11.893 182.417 12.003V12.916ZM185.515 19.813C185.515 19.8863 185.501 19.9377 185.471 19.967C185.442 19.989 185.391 20 185.317 20H184.745C184.635 20 184.58 19.9487 184.58 19.846L184.591 11.992C184.591 11.8893 184.635 11.838 184.723 11.838H185.383C185.471 11.838 185.515 11.8857 185.515 11.981V19.813ZM192.897 16.579C193.205 16.2857 193.465 16.0253 193.678 15.798C193.89 15.5633 194.059 15.347 194.184 15.149C194.316 14.9437 194.411 14.7493 194.47 14.566C194.536 14.3753 194.569 14.181 194.569 13.983C194.569 13.6677 194.488 13.4037 194.327 13.191C194.165 12.9783 193.96 12.8207 193.711 12.718C193.469 12.608 193.212 12.553 192.941 12.553C192.728 12.553 192.508 12.5897 192.281 12.663C192.053 12.729 191.833 12.8427 191.621 13.004C191.415 13.1653 191.228 13.378 191.06 13.642C191.045 13.6713 191.016 13.6897 190.972 13.697C190.935 13.7043 190.891 13.6933 190.84 13.664L190.356 13.378C190.304 13.3413 190.275 13.3047 190.268 13.268C190.268 13.224 190.282 13.18 190.312 13.136C190.649 12.6447 191.056 12.289 191.533 12.069C192.017 11.8417 192.515 11.728 193.029 11.728C193.491 11.728 193.916 11.8123 194.305 11.981C194.693 12.1497 195.005 12.4027 195.24 12.74C195.474 13.0773 195.592 13.5027 195.592 14.016C195.592 14.3387 195.533 14.643 195.416 14.929C195.306 15.215 195.119 15.512 194.855 15.82C194.598 16.128 194.253 16.4873 193.821 16.898L191.61 18.977C191.566 19.0063 191.547 19.0357 191.555 19.065C191.569 19.0943 191.61 19.109 191.676 19.109H195.537C195.632 19.109 195.68 19.1493 195.68 19.23V19.868C195.68 19.912 195.669 19.945 195.647 19.967C195.632 19.989 195.595 20 195.537 20H190.433C190.367 20 190.319 19.989 190.29 19.967C190.268 19.945 190.257 19.8973 190.257 19.824V19.373C190.257 19.3217 190.26 19.2777 190.268 19.241C190.282 19.197 190.312 19.1493 190.356 19.098C190.4 19.0467 190.466 18.9843 190.554 18.911L192.897 16.579ZM202.787 11.838C202.86 11.838 202.908 11.849 202.93 11.871C202.952 11.893 202.959 11.937 202.952 12.003L202.908 12.597C202.9 12.6483 202.889 12.6813 202.875 12.696C202.867 12.7107 202.827 12.718 202.754 12.718H199.014C198.926 12.718 198.882 12.7583 198.882 12.839L198.684 15.226C198.676 15.2773 198.687 15.3177 198.717 15.347C198.746 15.369 198.779 15.3727 198.816 15.358C199.087 15.2187 199.358 15.0977 199.63 14.995C199.908 14.885 200.246 14.83 200.642 14.83C201.126 14.83 201.577 14.918 201.995 15.094C202.413 15.27 202.746 15.5413 202.996 15.908C203.252 16.2747 203.381 16.7477 203.381 17.327C203.381 17.9137 203.245 18.416 202.974 18.834C202.71 19.2447 202.339 19.56 201.863 19.78C201.393 20 200.854 20.11 200.246 20.11C199.688 20.11 199.16 20.0147 198.662 19.824C198.17 19.626 197.752 19.34 197.408 18.966C197.378 18.922 197.36 18.8853 197.353 18.856C197.353 18.8193 197.378 18.7827 197.43 18.746L197.903 18.361C197.961 18.317 198.024 18.328 198.09 18.394C198.288 18.5773 198.482 18.7387 198.673 18.878C198.863 19.0173 199.072 19.1273 199.3 19.208C199.534 19.2813 199.806 19.318 200.114 19.318C200.59 19.318 200.994 19.2337 201.324 19.065C201.654 18.8963 201.907 18.6653 202.083 18.372C202.259 18.0713 202.347 17.734 202.347 17.36C202.347 16.964 202.262 16.6413 202.094 16.392C201.925 16.1353 201.698 15.9447 201.412 15.82C201.133 15.6953 200.821 15.633 200.477 15.633C200.088 15.633 199.74 15.7027 199.432 15.842C199.124 15.9813 198.841 16.128 198.585 16.282C198.526 16.3113 198.489 16.3223 198.475 16.315C198.46 16.3077 198.431 16.293 198.387 16.271L197.848 15.963C197.782 15.9263 197.749 15.9007 197.749 15.886C197.756 15.864 197.763 15.809 197.771 15.721L198.068 11.992C198.075 11.926 198.09 11.8857 198.112 11.871C198.141 11.849 198.207 11.838 198.31 11.838H202.787Z" fill="black" fill-opacity="0.25"/>
<rect x="10" y="88" width="67" height="10" fill="#E0D2B9"/>
<rect x="32" y="35" width="67" height="10" fill="#E0D2B9"/>
<rect x="62" y="56" width="67" height="10" fill="#E0D2B9"/>
<rect x="79" y="88" width="40" height="10" fill="#E0D2B9"/>
<rect x="130" y="103" width="67" height="10" fill="#E0D2B9"/>
<rect x="199" y="103" width="40" height="10" fill="#E0D2B9"/>
<rect x="121" y="88" width="67" height="10" fill="#E0D2B9"/>
<rect x="190" y="88" width="49" height="10" fill="#E0D2B9"/>
<rect x="10" y="178" width="67" height="10" fill="#E0D2B9"/>
<rect x="79" y="178" width="40" height="10" fill="#E0D2B9"/>
<rect x="121" y="178" width="67" height="10" fill="#E0D2B9"/>
<rect x="190" y="178" width="49" height="10" fill="#E0D2B9"/>
<rect x="10" y="223" width="67" height="10" fill="#E0D2B9"/>
<rect x="79" y="223" width="40" height="10" fill="#E0D2B9"/>
<rect x="121" y="223" width="67" height="10" fill="#E0D2B9"/>
<rect x="190" y="223" width="49" height="10" fill="#E0D2B9"/>
<rect x="10" y="118" width="67" height="10" fill="#E0D2B9"/>
<rect x="79" y="118" width="40" height="10" fill="#E0D2B9"/>
<rect x="121" y="118" width="67" height="10" fill="#E0D2B9"/>
<rect x="10" y="253" width="67" height="10" fill="#E0D2B9"/>
<rect x="79" y="253" width="40" height="10" fill="#E0D2B9"/>
<rect x="121" y="253" width="67" height="10" fill="#E0D2B9"/>
<rect x="10" y="298" width="67" height="10" fill="#E0D2B9"/>
<rect x="79" y="298" width="40" height="10" fill="#E0D2B9"/>
<rect x="121" y="298" width="67" height="10" fill="#E0D2B9"/>
<rect x="10" y="208" width="67" height="10" fill="#E0D2B9"/>
<rect x="79" y="208" width="40" height="10" fill="#E0D2B9"/>
<rect x="121" y="208" width="99" height="10" fill="#E0D2B9"/>
<rect x="10" y="313" width="67" height="10" fill="#E0D2B9"/>
<rect x="79" y="313" width="40" height="10" fill="#E0D2B9"/>
<rect x="121" y="313" width="99" height="10" fill="#E0D2B9"/>
<rect x="10" y="268" width="67" height="10" fill="#E0D2B9"/>
<rect x="79" y="268" width="40" height="10" fill="#E0D2B9"/>
<rect x="121" y="268" width="99" height="10" fill="#E0D2B9"/>
<rect x="10" y="163" width="67" height="10" fill="#E0D2B9"/>
<rect x="79" y="163" width="40" height="10" fill="#E0D2B9"/>
<rect x="121" y="163" width="67" height="10" fill="#E0D2B9"/>
<rect x="10" y="103" width="67" height="10" fill="#E0D2B9"/>
<rect x="79" y="103" width="49" height="10" fill="#E0D2B9"/>
<rect x="130" y="238" width="67" height="10" fill="#E0D2B9"/>
<rect x="199" y="238" width="40" height="10" fill="#E0D2B9"/>
<rect x="10" y="238" width="67" height="10" fill="#E0D2B9"/>
<rect x="79" y="238" width="49" height="10" fill="#E0D2B9"/>
<rect x="130" y="148" width="67" height="10" fill="#E0D2B9"/>
<rect x="199" y="148" width="40" height="10" fill="#E0D2B9"/>
<rect x="10" y="148" width="67" height="10" fill="#E0D2B9"/>
<rect x="79" y="148" width="49" height="10" fill="#E0D2B9"/>
<rect x="130" y="283" width="67" height="10" fill="#E0D2B9"/>
<rect x="199" y="283" width="40" height="10" fill="#E0D2B9"/>
<rect x="10" y="283" width="67" height="10" fill="#E0D2B9"/>
<rect x="79" y="283" width="49" height="10" fill="#E0D2B9"/>
<rect x="130" y="133" width="109" height="10" fill="#E0D2B9"/>
<rect x="10" y="133" width="67" height="10" fill="#E0D2B9"/>
<rect x="79" y="133" width="49" height="10" fill="#E0D2B9"/>
<rect x="130" y="193" width="109" height="10" fill="#E0D2B9"/>
<rect x="10" y="193" width="67" height="10" fill="#E0D2B9"/>
<rect x="79" y="193" width="49" height="10" fill="#E0D2B9"/>
<line x1="249.353" y1="2.09179" x2="2.09179" y2="349.647" stroke="#003257" stroke-width="3" stroke-linecap="round"/>
</svg>
