<svg width="326" height="355" viewBox="0 0 326 355" fill="none" xmlns="http://www.w3.org/2000/svg">
<path fill-rule="evenodd" clip-rule="evenodd" d="M280.68 4.9567L278.874 1.90414C278.069 0.544685 276.315 0.0946839 274.956 0.899035C274.713 1.04286 274.492 1.2219 274.302 1.43033C272.945 2.9137 272.338 4.32605 272.537 5.66529C272.947 8.40983 274.876 11.5447 278.304 15.1037L278.602 15.3978L278.897 15.6959L278.902 15.6916C282.456 19.124 285.59 21.0536 288.335 21.4628C289.674 21.6625 291.087 21.0552 292.57 19.6986C292.778 19.508 292.957 19.2876 293.101 19.0445C293.906 17.685 293.456 15.9309 292.096 15.1266L289.044 13.3205L288.892 13.2378C288.173 12.8796 287.318 12.9036 286.617 13.3109L285.666 13.8635L285.555 13.9209C285.069 14.1443 284.488 14.0448 284.103 13.6601L280.34 9.89675L280.256 9.80463C279.916 9.3915 279.863 8.80493 280.137 8.33449L280.689 7.38334C281.126 6.63237 281.122 5.70419 280.68 4.9567ZM291.76 18.8131C290.505 19.9609 289.429 20.4127 288.512 20.2759C286.155 19.9245 283.34 18.2373 280.086 15.1632L279.526 14.6257L279.148 14.25C275.883 10.8601 274.088 7.92787 273.724 5.48832C273.588 4.57117 274.039 3.49517 275.187 2.24018C275.298 2.1192 275.426 2.01528 275.567 1.9318C276.312 1.49087 277.262 1.69935 277.758 2.3886L277.841 2.5152L279.647 5.56776C279.868 5.94131 279.87 6.40517 279.652 6.78046L279.099 7.73162C278.575 8.63431 278.669 9.7661 279.331 10.568L279.452 10.7037L283.255 14.5086C283.993 15.2468 285.112 15.4451 286.056 15.0114L286.218 14.9288L287.22 14.3484C287.569 14.1456 287.996 14.1323 288.356 14.3118L288.47 14.3745L291.485 16.1593C292.274 16.6262 292.535 17.6443 292.068 18.4334C291.985 18.5745 291.881 18.7025 291.76 18.8131Z" fill="#C0A67B"/>
<path fill-rule="evenodd" clip-rule="evenodd" d="M240 8.5C240 6.29086 238.21 4.5 236 4.5H227C224.791 4.5 223 6.29086 223 8.5V16C223 18.2091 224.791 20 227 20H236C238.21 20 240 18.2091 240 16V8.5ZM227 5.7002H236C237.547 5.7002 238.8 6.9538 238.8 8.5002V16.0002C238.8 17.5466 237.547 18.8002 236 18.8002H227C225.454 18.8002 224.2 17.5466 224.2 16.0002V8.5002C224.2 6.9538 225.454 5.7002 227 5.7002ZM247.293 6.42115C247.427 6.59596 247.5 6.81032 247.5 7.03086V17.2104C247.5 17.7627 247.053 18.2104 246.5 18.2104C246.315 18.2104 246.134 18.1591 245.976 18.0621L241.952 15.5857C241.361 15.2217 241 14.5769 241 13.8824V10.9848C241 10.3639 241.289 9.77815 241.781 9.39956L245.891 6.23824C246.328 5.9015 246.956 5.9834 247.293 6.42115ZM242.513 10.3507L246.3 7.43704V16.8525L242.581 14.5637C242.344 14.4181 242.2 14.1602 242.2 13.8824V10.9848C242.2 10.7364 242.316 10.5021 242.513 10.3507Z" fill="#C0A67B"/>
<rect x="0.000488281" y="42" width="300" height="298" rx="10" fill="#E0D2B9"/>
<path d="M312.507 333.844C325.525 340.776 271.848 339.699 271.848 339.699C271.848 339.699 284.347 280.474 289.859 299.624C295.371 318.775 299.49 326.911 312.507 333.844Z" fill="#E0D2B9"/>
<path fill-rule="evenodd" clip-rule="evenodd" d="M285.501 319.109L286 319.596L280.601 327L278.412 324.838L279.339 323.566L280.601 324.302L285.501 319.109ZM281.119 319L281.618 319.487L276.219 326.891L272.5 323.234L273.331 322.424L276.219 324.193L281.119 319Z" fill="#3497F9"/>
<path d="M244.86 326.164C244.941 326.164 244.981 326.201 244.981 326.274V326.89C244.981 326.912 244.97 326.938 244.948 326.967C244.934 326.989 244.904 327 244.86 327H240.999C240.919 327 240.878 326.963 240.878 326.89V326.274C240.878 326.201 240.919 326.164 240.999 326.164H242.385C242.444 326.164 242.473 326.146 242.473 326.109V320.059C242.473 319.986 242.44 319.956 242.374 319.971L241.01 320.477C240.915 320.499 240.867 320.455 240.867 320.345V319.905C240.867 319.854 240.875 319.821 240.889 319.806C240.904 319.784 240.933 319.762 240.977 319.74L242.605 318.926C242.679 318.889 242.737 318.867 242.781 318.86C242.825 318.845 242.877 318.838 242.935 318.838H243.408C243.489 318.838 243.529 318.882 243.529 318.97V326.087C243.529 326.138 243.551 326.164 243.595 326.164H244.86ZM249.737 318.728C250.169 318.728 250.569 318.82 250.936 319.003C251.31 319.179 251.632 319.447 251.904 319.806C252.182 320.165 252.399 320.609 252.553 321.137C252.707 321.658 252.784 322.259 252.784 322.941C252.784 323.85 252.648 324.613 252.377 325.229C252.113 325.845 251.75 326.311 251.288 326.626C250.826 326.941 250.305 327.099 249.726 327.099C249.139 327.099 248.615 326.941 248.153 326.626C247.691 326.311 247.328 325.845 247.064 325.229C246.8 324.613 246.668 323.854 246.668 322.952C246.668 322.27 246.745 321.669 246.899 321.148C247.053 320.62 247.269 320.176 247.548 319.817C247.826 319.45 248.153 319.179 248.527 319.003C248.901 318.82 249.304 318.728 249.737 318.728ZM249.737 326.296C250.14 326.296 250.488 326.182 250.782 325.955C251.075 325.728 251.302 325.368 251.464 324.877C251.625 324.378 251.706 323.733 251.706 322.941C251.706 322.134 251.621 321.482 251.453 320.983C251.291 320.484 251.06 320.118 250.76 319.883C250.466 319.648 250.122 319.531 249.726 319.531C249.33 319.531 248.981 319.648 248.681 319.883C248.387 320.118 248.156 320.488 247.988 320.994C247.826 321.493 247.746 322.142 247.746 322.941C247.746 323.733 247.826 324.378 247.988 324.877C248.156 325.368 248.391 325.728 248.692 325.955C248.992 326.182 249.341 326.296 249.737 326.296ZM255.72 322.479C255.72 322.596 255.654 322.655 255.522 322.655H254.752C254.642 322.655 254.587 322.6 254.587 322.49V321.566C254.587 321.471 254.627 321.423 254.708 321.423H255.61C255.683 321.423 255.72 321.463 255.72 321.544V322.479ZM255.72 326.791C255.72 326.908 255.654 326.967 255.522 326.967H254.752C254.642 326.967 254.587 326.916 254.587 326.813V325.878C254.587 325.79 254.627 325.746 254.708 325.746H255.61C255.683 325.746 255.72 325.786 255.72 325.867V326.791ZM261.346 326.164C261.426 326.164 261.467 326.201 261.467 326.274V326.89C261.467 326.912 261.456 326.938 261.434 326.967C261.419 326.989 261.39 327 261.346 327H257.485C257.404 327 257.364 326.963 257.364 326.89V326.274C257.364 326.201 257.404 326.164 257.485 326.164H258.871C258.929 326.164 258.959 326.146 258.959 326.109V320.059C258.959 319.986 258.926 319.956 258.86 319.971L257.496 320.477C257.4 320.499 257.353 320.455 257.353 320.345V319.905C257.353 319.854 257.36 319.821 257.375 319.806C257.389 319.784 257.419 319.762 257.463 319.74L259.091 318.926C259.164 318.889 259.223 318.867 259.267 318.86C259.311 318.845 259.362 318.838 259.421 318.838H259.894C259.974 318.838 260.015 318.882 260.015 318.97V326.087C260.015 326.138 260.037 326.164 260.081 326.164H261.346ZM266.222 318.728C266.655 318.728 267.054 318.82 267.421 319.003C267.795 319.179 268.118 319.447 268.389 319.806C268.668 320.165 268.884 320.609 269.038 321.137C269.192 321.658 269.269 322.259 269.269 322.941C269.269 323.85 269.133 324.613 268.862 325.229C268.598 325.845 268.235 326.311 267.773 326.626C267.311 326.941 266.79 327.099 266.211 327.099C265.624 327.099 265.1 326.941 264.638 326.626C264.176 326.311 263.813 325.845 263.549 325.229C263.285 324.613 263.153 323.854 263.153 322.952C263.153 322.27 263.23 321.669 263.384 321.148C263.538 320.62 263.754 320.176 264.033 319.817C264.312 319.45 264.638 319.179 265.012 319.003C265.386 318.82 265.789 318.728 266.222 318.728ZM266.222 326.296C266.625 326.296 266.974 326.182 267.267 325.955C267.56 325.728 267.788 325.368 267.949 324.877C268.11 324.378 268.191 323.733 268.191 322.941C268.191 322.134 268.107 321.482 267.938 320.983C267.777 320.484 267.546 320.118 267.245 319.883C266.952 319.648 266.607 319.531 266.211 319.531C265.815 319.531 265.467 319.648 265.166 319.883C264.873 320.118 264.642 320.488 264.473 320.994C264.312 321.493 264.231 322.142 264.231 322.941C264.231 323.733 264.312 324.378 264.473 324.877C264.642 325.368 264.876 325.728 265.177 325.955C265.478 326.182 265.826 326.296 266.222 326.296Z" fill="black" fill-opacity="0.25"/>
</svg>
