<svg width="348" height="454" viewBox="0 0 348 454" fill="none" xmlns="http://www.w3.org/2000/svg">
<path d="M334.882 163.843C347.9 170.776 294.223 169.699 294.223 169.699C294.223 169.699 306.722 110.474 312.234 129.624C317.746 148.775 321.865 156.911 334.882 163.843Z" fill="#E0D2B9"/>
<rect x="23" y="26" width="300" height="144" rx="10" fill="#E0D2B9"/>
<path fill-rule="evenodd" clip-rule="evenodd" d="M308.001 154.109L308.5 154.596L303.1 162L300.912 159.838L301.839 158.566L303.1 159.302L308.001 154.109ZM303.619 154L304.118 154.487L298.719 161.891L295 158.234L295.83 157.424L298.719 159.193L303.619 154Z" fill="#3497F9"/>
<path d="M266.86 161.164C266.941 161.164 266.981 161.201 266.981 161.274V161.89C266.981 161.912 266.97 161.938 266.948 161.967C266.933 161.989 266.904 162 266.86 162H262.999C262.918 162 262.878 161.963 262.878 161.89V161.274C262.878 161.201 262.918 161.164 262.999 161.164H264.385C264.444 161.164 264.473 161.146 264.473 161.109V155.059C264.473 154.986 264.44 154.956 264.374 154.971L263.01 155.477C262.915 155.499 262.867 155.455 262.867 155.345V154.905C262.867 154.854 262.874 154.821 262.889 154.806C262.904 154.784 262.933 154.762 262.977 154.74L264.605 153.926C264.678 153.889 264.737 153.867 264.781 153.86C264.825 153.845 264.876 153.838 264.935 153.838H265.408C265.489 153.838 265.529 153.882 265.529 153.97V161.087C265.529 161.138 265.551 161.164 265.595 161.164H266.86ZM271.736 153.728C272.169 153.728 272.569 153.82 272.935 154.003C273.309 154.179 273.632 154.447 273.903 154.806C274.182 155.165 274.398 155.609 274.552 156.137C274.706 156.658 274.783 157.259 274.783 157.941C274.783 158.85 274.648 159.613 274.376 160.229C274.112 160.845 273.749 161.311 273.287 161.626C272.825 161.941 272.305 162.099 271.725 162.099C271.139 162.099 270.614 161.941 270.152 161.626C269.69 161.311 269.327 160.845 269.063 160.229C268.799 159.613 268.667 158.854 268.667 157.952C268.667 157.27 268.744 156.669 268.898 156.148C269.052 155.62 269.269 155.176 269.547 154.817C269.826 154.45 270.152 154.179 270.526 154.003C270.9 153.82 271.304 153.728 271.736 153.728ZM271.736 161.296C272.14 161.296 272.488 161.182 272.781 160.955C273.075 160.728 273.302 160.368 273.463 159.877C273.625 159.378 273.705 158.733 273.705 157.941C273.705 157.134 273.621 156.482 273.452 155.983C273.291 155.484 273.06 155.118 272.759 154.883C272.466 154.648 272.121 154.531 271.725 154.531C271.329 154.531 270.981 154.648 270.68 154.883C270.387 155.118 270.156 155.488 269.987 155.994C269.826 156.493 269.745 157.142 269.745 157.941C269.745 158.733 269.826 159.378 269.987 159.877C270.156 160.368 270.391 160.728 270.691 160.955C270.992 161.182 271.34 161.296 271.736 161.296ZM277.72 157.479C277.72 157.596 277.654 157.655 277.522 157.655H276.752C276.642 157.655 276.587 157.6 276.587 157.49V156.566C276.587 156.471 276.627 156.423 276.708 156.423H277.61C277.683 156.423 277.72 156.463 277.72 156.544V157.479ZM277.72 161.791C277.72 161.908 277.654 161.967 277.522 161.967H276.752C276.642 161.967 276.587 161.916 276.587 161.813V160.878C276.587 160.79 276.627 160.746 276.708 160.746H277.61C277.683 160.746 277.72 160.786 277.72 160.867V161.791ZM283.345 161.164C283.426 161.164 283.466 161.201 283.466 161.274V161.89C283.466 161.912 283.455 161.938 283.433 161.967C283.419 161.989 283.389 162 283.345 162H279.484C279.404 162 279.363 161.963 279.363 161.89V161.274C279.363 161.201 279.404 161.164 279.484 161.164H280.87C280.929 161.164 280.958 161.146 280.958 161.109V155.059C280.958 154.986 280.925 154.956 280.859 154.971L279.495 155.477C279.4 155.499 279.352 155.455 279.352 155.345V154.905C279.352 154.854 279.36 154.821 279.374 154.806C279.389 154.784 279.418 154.762 279.462 154.74L281.09 153.926C281.164 153.889 281.222 153.867 281.266 153.86C281.31 153.845 281.362 153.838 281.42 153.838H281.893C281.974 153.838 282.014 153.882 282.014 153.97V161.087C282.014 161.138 282.036 161.164 282.08 161.164H283.345ZM288.222 153.728C288.654 153.728 289.054 153.82 289.421 154.003C289.795 154.179 290.117 154.447 290.389 154.806C290.667 155.165 290.884 155.609 291.038 156.137C291.192 156.658 291.269 157.259 291.269 157.941C291.269 158.85 291.133 159.613 290.862 160.229C290.598 160.845 290.235 161.311 289.773 161.626C289.311 161.941 288.79 162.099 288.211 162.099C287.624 162.099 287.1 161.941 286.638 161.626C286.176 161.311 285.813 160.845 285.549 160.229C285.285 159.613 285.153 158.854 285.153 157.952C285.153 157.27 285.23 156.669 285.384 156.148C285.538 155.62 285.754 155.176 286.033 154.817C286.311 154.45 286.638 154.179 287.012 154.003C287.386 153.82 287.789 153.728 288.222 153.728ZM288.222 161.296C288.625 161.296 288.973 161.182 289.267 160.955C289.56 160.728 289.787 160.368 289.949 159.877C290.11 159.378 290.191 158.733 290.191 157.941C290.191 157.134 290.106 156.482 289.938 155.983C289.776 155.484 289.545 155.118 289.245 154.883C288.951 154.648 288.607 154.531 288.211 154.531C287.815 154.531 287.466 154.648 287.166 154.883C286.872 155.118 286.641 155.488 286.473 155.994C286.311 156.493 286.231 157.142 286.231 157.941C286.231 158.733 286.311 159.378 286.473 159.877C286.641 160.368 286.876 160.728 287.177 160.955C287.477 161.182 287.826 161.296 288.222 161.296Z" fill="black" fill-opacity="0.25"/>
<path d="M11.824 216.722C-1.25249 223.523 51.1894 219.699 51.1894 219.699C51.1894 219.699 42.1747 168.225 35.7661 185.381C29.3575 202.537 24.9004 209.921 11.824 216.722Z" fill="#E0D2B9"/>
<rect width="300" height="40" rx="10" transform="matrix(-1 0 0 1 323 180)" fill="#E0D2B9"/>
<circle cx="45" cy="200" r="5" fill="#D0BB6E"/>
<circle cx="60" cy="200" r="5" fill="#D0BB6E"/>
<circle cx="75" cy="200" r="5" fill="#D0BB6E"/>
<path fill-rule="evenodd" clip-rule="evenodd" d="M308.001 204.109L308.5 204.596L303.1 212L300.912 209.838L301.839 208.566L303.1 209.302L308.001 204.109ZM303.619 204L304.118 204.487L298.719 211.891L295 208.234L295.83 207.424L298.719 209.193L303.619 204Z" fill="#3497F9"/>
<path d="M267.848 211.164C267.929 211.164 267.969 211.201 267.969 211.274V211.89C267.969 211.912 267.958 211.938 267.936 211.967C267.922 211.989 267.892 212 267.848 212H263.987C263.907 212 263.866 211.963 263.866 211.89V211.274C263.866 211.201 263.907 211.164 263.987 211.164H265.373C265.432 211.164 265.461 211.146 265.461 211.109V205.059C265.461 204.986 265.428 204.956 265.362 204.971L263.998 205.477C263.903 205.499 263.855 205.455 263.855 205.345V204.905C263.855 204.854 263.863 204.821 263.877 204.806C263.892 204.784 263.921 204.762 263.965 204.74L265.593 203.926C265.667 203.889 265.725 203.867 265.769 203.86C265.813 203.845 265.865 203.838 265.923 203.838H266.396C266.477 203.838 266.517 203.882 266.517 203.97V211.087C266.517 211.138 266.539 211.164 266.583 211.164H267.848ZM272.725 203.728C273.157 203.728 273.557 203.82 273.924 204.003C274.298 204.179 274.62 204.447 274.892 204.806C275.17 205.165 275.387 205.609 275.541 206.137C275.695 206.658 275.772 207.259 275.772 207.941C275.772 208.85 275.636 209.613 275.365 210.229C275.101 210.845 274.738 211.311 274.276 211.626C273.814 211.941 273.293 212.099 272.714 212.099C272.127 212.099 271.603 211.941 271.141 211.626C270.679 211.311 270.316 210.845 270.052 210.229C269.788 209.613 269.656 208.854 269.656 207.952C269.656 207.27 269.733 206.669 269.887 206.148C270.041 205.62 270.257 205.176 270.536 204.817C270.814 204.45 271.141 204.179 271.515 204.003C271.889 203.82 272.292 203.728 272.725 203.728ZM272.725 211.296C273.128 211.296 273.476 211.182 273.77 210.955C274.063 210.728 274.29 210.368 274.452 209.877C274.613 209.378 274.694 208.733 274.694 207.941C274.694 207.134 274.609 206.482 274.441 205.983C274.279 205.484 274.048 205.118 273.748 204.883C273.454 204.648 273.11 204.531 272.714 204.531C272.318 204.531 271.969 204.648 271.669 204.883C271.375 205.118 271.144 205.488 270.976 205.994C270.814 206.493 270.734 207.142 270.734 207.941C270.734 208.733 270.814 209.378 270.976 209.877C271.144 210.368 271.379 210.728 271.68 210.955C271.98 211.182 272.329 211.296 272.725 211.296ZM278.708 207.479C278.708 207.596 278.642 207.655 278.51 207.655H277.74C277.63 207.655 277.575 207.6 277.575 207.49V206.566C277.575 206.471 277.615 206.423 277.696 206.423H278.598C278.671 206.423 278.708 206.463 278.708 206.544V207.479ZM278.708 211.791C278.708 211.908 278.642 211.967 278.51 211.967H277.74C277.63 211.967 277.575 211.916 277.575 211.813V210.878C277.575 210.79 277.615 210.746 277.696 210.746H278.598C278.671 210.746 278.708 210.786 278.708 210.867V211.791ZM284.334 211.164C284.414 211.164 284.455 211.201 284.455 211.274V211.89C284.455 211.912 284.444 211.938 284.422 211.967C284.407 211.989 284.378 212 284.334 212H280.473C280.392 212 280.352 211.963 280.352 211.89V211.274C280.352 211.201 280.392 211.164 280.473 211.164H281.859C281.917 211.164 281.947 211.146 281.947 211.109V205.059C281.947 204.986 281.914 204.956 281.848 204.971L280.484 205.477C280.388 205.499 280.341 205.455 280.341 205.345V204.905C280.341 204.854 280.348 204.821 280.363 204.806C280.377 204.784 280.407 204.762 280.451 204.74L282.079 203.926C282.152 203.889 282.211 203.867 282.255 203.86C282.299 203.845 282.35 203.838 282.409 203.838H282.882C282.962 203.838 283.003 203.882 283.003 203.97V211.087C283.003 211.138 283.025 211.164 283.069 211.164H284.334ZM288.594 208.579C288.902 208.286 289.162 208.025 289.375 207.798C289.588 207.563 289.756 207.347 289.881 207.149C290.013 206.944 290.108 206.749 290.167 206.566C290.233 206.375 290.266 206.181 290.266 205.983C290.266 205.668 290.185 205.404 290.024 205.191C289.863 204.978 289.657 204.821 289.408 204.718C289.166 204.608 288.909 204.553 288.638 204.553C288.425 204.553 288.205 204.59 287.978 204.663C287.751 204.729 287.531 204.843 287.318 205.004C287.113 205.165 286.926 205.378 286.757 205.642C286.742 205.671 286.713 205.69 286.669 205.697C286.632 205.704 286.588 205.693 286.537 205.664L286.053 205.378C286.002 205.341 285.972 205.305 285.965 205.268C285.965 205.224 285.98 205.18 286.009 205.136C286.346 204.645 286.753 204.289 287.23 204.069C287.714 203.842 288.213 203.728 288.726 203.728C289.188 203.728 289.613 203.812 290.002 203.981C290.391 204.15 290.702 204.403 290.937 204.74C291.172 205.077 291.289 205.503 291.289 206.016C291.289 206.339 291.23 206.643 291.113 206.929C291.003 207.215 290.816 207.512 290.552 207.82C290.295 208.128 289.951 208.487 289.518 208.898L287.307 210.977C287.263 211.006 287.245 211.036 287.252 211.065C287.267 211.094 287.307 211.109 287.373 211.109H291.234C291.329 211.109 291.377 211.149 291.377 211.23V211.868C291.377 211.912 291.366 211.945 291.344 211.967C291.329 211.989 291.293 212 291.234 212H286.13C286.064 212 286.016 211.989 285.987 211.967C285.965 211.945 285.954 211.897 285.954 211.824V211.373C285.954 211.322 285.958 211.278 285.965 211.241C285.98 211.197 286.009 211.149 286.053 211.098C286.097 211.047 286.163 210.984 286.251 210.911L288.594 208.579Z" fill="black" fill-opacity="0.25"/>
<path d="M334.882 382.843C347.9 389.776 294.223 388.699 294.223 388.699C294.223 388.699 306.722 329.474 312.234 348.624C317.746 367.775 321.865 375.911 334.882 382.843Z" fill="#E0D2B9"/>
<rect x="23" y="256" width="300" height="133" rx="10" fill="#E0D2B9"/>
<path fill-rule="evenodd" clip-rule="evenodd" d="M308.001 373.109L308.5 373.596L303.1 381L300.912 378.838L301.839 377.566L303.1 378.302L308.001 373.109ZM303.619 373L304.118 373.487L298.719 380.891L295 377.234L295.83 376.424L298.719 378.193L303.619 373Z" fill="#3497F9"/>
<path d="M267.236 380.164C267.317 380.164 267.357 380.201 267.357 380.274V380.89C267.357 380.912 267.346 380.938 267.324 380.967C267.309 380.989 267.28 381 267.236 381H263.375C263.294 381 263.254 380.963 263.254 380.89V380.274C263.254 380.201 263.294 380.164 263.375 380.164H264.761C264.82 380.164 264.849 380.146 264.849 380.109V374.059C264.849 373.986 264.816 373.956 264.75 373.971L263.386 374.477C263.291 374.499 263.243 374.455 263.243 374.345V373.905C263.243 373.854 263.25 373.821 263.265 373.806C263.28 373.784 263.309 373.762 263.353 373.74L264.981 372.926C265.054 372.889 265.113 372.867 265.157 372.86C265.201 372.845 265.252 372.838 265.311 372.838H265.784C265.865 372.838 265.905 372.882 265.905 372.97V380.087C265.905 380.138 265.927 380.164 265.971 380.164H267.236ZM272.112 372.728C272.545 372.728 272.945 372.82 273.311 373.003C273.685 373.179 274.008 373.447 274.279 373.806C274.558 374.165 274.774 374.609 274.928 375.137C275.082 375.658 275.159 376.259 275.159 376.941C275.159 377.85 275.024 378.613 274.752 379.229C274.488 379.845 274.125 380.311 273.663 380.626C273.201 380.941 272.681 381.099 272.101 381.099C271.515 381.099 270.99 380.941 270.528 380.626C270.066 380.311 269.703 379.845 269.439 379.229C269.175 378.613 269.043 377.854 269.043 376.952C269.043 376.27 269.12 375.669 269.274 375.148C269.428 374.62 269.645 374.176 269.923 373.817C270.202 373.45 270.528 373.179 270.902 373.003C271.276 372.82 271.68 372.728 272.112 372.728ZM272.112 380.296C272.516 380.296 272.864 380.182 273.157 379.955C273.451 379.728 273.678 379.368 273.839 378.877C274.001 378.378 274.081 377.733 274.081 376.941C274.081 376.134 273.997 375.482 273.828 374.983C273.667 374.484 273.436 374.118 273.135 373.883C272.842 373.648 272.497 373.531 272.101 373.531C271.705 373.531 271.357 373.648 271.056 373.883C270.763 374.118 270.532 374.488 270.363 374.994C270.202 375.493 270.121 376.142 270.121 376.941C270.121 377.733 270.202 378.378 270.363 378.877C270.532 379.368 270.767 379.728 271.067 379.955C271.368 380.182 271.716 380.296 272.112 380.296ZM278.096 376.479C278.096 376.596 278.03 376.655 277.898 376.655H277.128C277.018 376.655 276.963 376.6 276.963 376.49V375.566C276.963 375.471 277.003 375.423 277.084 375.423H277.986C278.059 375.423 278.096 375.463 278.096 375.544V376.479ZM278.096 380.791C278.096 380.908 278.03 380.967 277.898 380.967H277.128C277.018 380.967 276.963 380.916 276.963 380.813V379.878C276.963 379.79 277.003 379.746 277.084 379.746H277.986C278.059 379.746 278.096 379.786 278.096 379.867V380.791ZM283.721 380.164C283.802 380.164 283.842 380.201 283.842 380.274V380.89C283.842 380.912 283.831 380.938 283.809 380.967C283.795 380.989 283.765 381 283.721 381H279.86C279.78 381 279.739 380.963 279.739 380.89V380.274C279.739 380.201 279.78 380.164 279.86 380.164H281.246C281.305 380.164 281.334 380.146 281.334 380.109V374.059C281.334 373.986 281.301 373.956 281.235 373.971L279.871 374.477C279.776 374.499 279.728 374.455 279.728 374.345V373.905C279.728 373.854 279.736 373.821 279.75 373.806C279.765 373.784 279.794 373.762 279.838 373.74L281.466 372.926C281.54 372.889 281.598 372.867 281.642 372.86C281.686 372.845 281.738 372.838 281.796 372.838H282.269C282.35 372.838 282.39 372.882 282.39 372.97V380.087C282.39 380.138 282.412 380.164 282.456 380.164H283.721ZM290.787 372.838C290.86 372.838 290.908 372.849 290.93 372.871C290.952 372.893 290.959 372.937 290.952 373.003L290.908 373.597C290.9 373.648 290.889 373.681 290.875 373.696C290.867 373.711 290.827 373.718 290.754 373.718H287.014C286.926 373.718 286.882 373.758 286.882 373.839L286.684 376.226C286.676 376.277 286.687 376.318 286.717 376.347C286.746 376.369 286.779 376.373 286.816 376.358C287.087 376.219 287.358 376.098 287.63 375.995C287.908 375.885 288.246 375.83 288.642 375.83C289.126 375.83 289.577 375.918 289.995 376.094C290.413 376.27 290.746 376.541 290.996 376.908C291.252 377.275 291.381 377.748 291.381 378.327C291.381 378.914 291.245 379.416 290.974 379.834C290.71 380.245 290.339 380.56 289.863 380.78C289.393 381 288.854 381.11 288.246 381.11C287.688 381.11 287.16 381.015 286.662 380.824C286.17 380.626 285.752 380.34 285.408 379.966C285.378 379.922 285.36 379.885 285.353 379.856C285.353 379.819 285.378 379.783 285.43 379.746L285.903 379.361C285.961 379.317 286.024 379.328 286.09 379.394C286.288 379.577 286.482 379.739 286.673 379.878C286.863 380.017 287.072 380.127 287.3 380.208C287.534 380.281 287.806 380.318 288.114 380.318C288.59 380.318 288.994 380.234 289.324 380.065C289.654 379.896 289.907 379.665 290.083 379.372C290.259 379.071 290.347 378.734 290.347 378.36C290.347 377.964 290.262 377.641 290.094 377.392C289.925 377.135 289.698 376.945 289.412 376.82C289.133 376.695 288.821 376.633 288.477 376.633C288.088 376.633 287.74 376.703 287.432 376.842C287.124 376.981 286.841 377.128 286.585 377.282C286.526 377.311 286.489 377.322 286.475 377.315C286.46 377.308 286.431 377.293 286.387 377.271L285.848 376.963C285.782 376.926 285.749 376.901 285.749 376.886C285.756 376.864 285.763 376.809 285.771 376.721L286.068 372.992C286.075 372.926 286.09 372.886 286.112 372.871C286.141 372.849 286.207 372.838 286.31 372.838H290.787Z" fill="black" fill-opacity="0.25"/>
<path d="M11.824 435.722C-1.25249 442.523 51.1894 438.699 51.1894 438.699C51.1894 438.699 42.1747 387.225 35.7661 404.381C29.3575 421.537 24.9004 428.921 11.824 435.722Z" fill="#E0D2B9"/>
<rect width="300" height="40" rx="10" transform="matrix(-1 0 0 1 323 399)" fill="#E0D2B9"/>
<circle cx="45" cy="419" r="5" fill="#D0BB6E"/>
<circle cx="60" cy="419" r="5" fill="#D0BB6E"/>
<circle cx="75" cy="419" r="5" fill="#D0BB6E"/>
<path fill-rule="evenodd" clip-rule="evenodd" d="M308.001 423.109L308.5 423.596L303.1 431L300.912 428.838L301.839 427.566L303.1 428.302L308.001 423.109ZM303.619 423L304.118 423.487L298.719 430.891L295 427.234L295.83 426.424L298.719 428.193L303.619 423Z" fill="#3497F9"/>
<path d="M265.388 430.164C265.469 430.164 265.509 430.201 265.509 430.274V430.89C265.509 430.912 265.498 430.938 265.476 430.967C265.462 430.989 265.432 431 265.388 431H261.527C261.447 431 261.406 430.963 261.406 430.89V430.274C261.406 430.201 261.447 430.164 261.527 430.164H262.913C262.972 430.164 263.001 430.146 263.001 430.109V424.059C263.001 423.986 262.968 423.956 262.902 423.971L261.538 424.477C261.443 424.499 261.395 424.455 261.395 424.345V423.905C261.395 423.854 261.403 423.821 261.417 423.806C261.432 423.784 261.461 423.762 261.505 423.74L263.133 422.926C263.207 422.889 263.265 422.867 263.309 422.86C263.353 422.845 263.405 422.838 263.463 422.838H263.936C264.017 422.838 264.057 422.882 264.057 422.97V430.087C264.057 430.138 264.079 430.164 264.123 430.164H265.388ZM270.265 422.728C270.697 422.728 271.097 422.82 271.464 423.003C271.838 423.179 272.16 423.447 272.432 423.806C272.71 424.165 272.927 424.609 273.081 425.137C273.235 425.658 273.312 426.259 273.312 426.941C273.312 427.85 273.176 428.613 272.905 429.229C272.641 429.845 272.278 430.311 271.816 430.626C271.354 430.941 270.833 431.099 270.254 431.099C269.667 431.099 269.143 430.941 268.681 430.626C268.219 430.311 267.856 429.845 267.592 429.229C267.328 428.613 267.196 427.854 267.196 426.952C267.196 426.27 267.273 425.669 267.427 425.148C267.581 424.62 267.797 424.176 268.076 423.817C268.354 423.45 268.681 423.179 269.055 423.003C269.429 422.82 269.832 422.728 270.265 422.728ZM270.265 430.296C270.668 430.296 271.016 430.182 271.31 429.955C271.603 429.728 271.83 429.368 271.992 428.877C272.153 428.378 272.234 427.733 272.234 426.941C272.234 426.134 272.149 425.482 271.981 424.983C271.819 424.484 271.588 424.118 271.288 423.883C270.994 423.648 270.65 423.531 270.254 423.531C269.858 423.531 269.509 423.648 269.209 423.883C268.915 424.118 268.684 424.488 268.516 424.994C268.354 425.493 268.274 426.142 268.274 426.941C268.274 427.733 268.354 428.378 268.516 428.877C268.684 429.368 268.919 429.728 269.22 429.955C269.52 430.182 269.869 430.296 270.265 430.296ZM276.248 426.479C276.248 426.596 276.182 426.655 276.05 426.655H275.28C275.17 426.655 275.115 426.6 275.115 426.49V425.566C275.115 425.471 275.155 425.423 275.236 425.423H276.138C276.211 425.423 276.248 425.463 276.248 425.544V426.479ZM276.248 430.791C276.248 430.908 276.182 430.967 276.05 430.967H275.28C275.17 430.967 275.115 430.916 275.115 430.813V429.878C275.115 429.79 275.155 429.746 275.236 429.746H276.138C276.211 429.746 276.248 429.786 276.248 429.867V430.791ZM280.521 427.579C280.829 427.286 281.089 427.025 281.302 426.798C281.514 426.563 281.683 426.347 281.808 426.149C281.94 425.944 282.035 425.749 282.094 425.566C282.16 425.375 282.193 425.181 282.193 424.983C282.193 424.668 282.112 424.404 281.951 424.191C281.789 423.978 281.584 423.821 281.335 423.718C281.093 423.608 280.836 423.553 280.565 423.553C280.352 423.553 280.132 423.59 279.905 423.663C279.677 423.729 279.457 423.843 279.245 424.004C279.039 424.165 278.852 424.378 278.684 424.642C278.669 424.671 278.64 424.69 278.596 424.697C278.559 424.704 278.515 424.693 278.464 424.664L277.98 424.378C277.928 424.341 277.899 424.305 277.892 424.268C277.892 424.224 277.906 424.18 277.936 424.136C278.273 423.645 278.68 423.289 279.157 423.069C279.641 422.842 280.139 422.728 280.653 422.728C281.115 422.728 281.54 422.812 281.929 422.981C282.317 423.15 282.629 423.403 282.864 423.74C283.098 424.077 283.216 424.503 283.216 425.016C283.216 425.339 283.157 425.643 283.04 425.929C282.93 426.215 282.743 426.512 282.479 426.82C282.222 427.128 281.877 427.487 281.445 427.898L279.234 429.977C279.19 430.006 279.171 430.036 279.179 430.065C279.193 430.094 279.234 430.109 279.3 430.109H283.161C283.256 430.109 283.304 430.149 283.304 430.23V430.868C283.304 430.912 283.293 430.945 283.271 430.967C283.256 430.989 283.219 431 283.161 431H278.057C277.991 431 277.943 430.989 277.914 430.967C277.892 430.945 277.881 430.897 277.881 430.824V430.373C277.881 430.322 277.884 430.278 277.892 430.241C277.906 430.197 277.936 430.149 277.98 430.098C278.024 430.047 278.09 429.984 278.178 429.911L280.521 427.579ZM288.222 422.728C288.654 422.728 289.054 422.82 289.421 423.003C289.795 423.179 290.117 423.447 290.389 423.806C290.667 424.165 290.884 424.609 291.038 425.137C291.192 425.658 291.269 426.259 291.269 426.941C291.269 427.85 291.133 428.613 290.862 429.229C290.598 429.845 290.235 430.311 289.773 430.626C289.311 430.941 288.79 431.099 288.211 431.099C287.624 431.099 287.1 430.941 286.638 430.626C286.176 430.311 285.813 429.845 285.549 429.229C285.285 428.613 285.153 427.854 285.153 426.952C285.153 426.27 285.23 425.669 285.384 425.148C285.538 424.62 285.754 424.176 286.033 423.817C286.311 423.45 286.638 423.179 287.012 423.003C287.386 422.82 287.789 422.728 288.222 422.728ZM288.222 430.296C288.625 430.296 288.973 430.182 289.267 429.955C289.56 429.728 289.787 429.368 289.949 428.877C290.11 428.378 290.191 427.733 290.191 426.941C290.191 426.134 290.106 425.482 289.938 424.983C289.776 424.484 289.545 424.118 289.245 423.883C288.951 423.648 288.607 423.531 288.211 423.531C287.815 423.531 287.466 423.648 287.166 423.883C286.872 424.118 286.641 424.488 286.473 424.994C286.311 425.493 286.231 426.142 286.231 426.941C286.231 427.733 286.311 428.378 286.473 428.877C286.641 429.368 286.876 429.728 287.177 429.955C287.477 430.182 287.826 430.296 288.222 430.296Z" fill="black" fill-opacity="0.25"/>
<rect x="126" width="94" height="21" rx="10" fill="#E8E8E8"/>
<rect x="126" y="230" width="94" height="21" rx="10" fill="#E8E8E8"/>
</svg>
