<svg width="339" height="457" viewBox="0 0 339 457" fill="none" xmlns="http://www.w3.org/2000/svg">
<path d="M325.882 435.843C338.9 442.776 285.223 441.699 285.223 441.699C285.223 441.699 297.722 382.474 303.234 401.624C308.746 420.775 312.865 428.911 325.882 435.843Z" fill="#E0D2B9"/>
<rect x="14" y="345" width="300" height="97" rx="10" fill="#E0D2B9"/>
<path fill-rule="evenodd" clip-rule="evenodd" d="M299.501 426.109L300 426.596L294.6 434L292.412 431.838L293.339 430.566L294.6 431.302L299.501 426.109ZM295.119 426L295.618 426.487L290.219 433.891L286.5 430.234L287.33 429.424L290.219 431.193L295.119 426Z" fill="#C0A67B"/>
<path d="M259.086 433.164C259.166 433.164 259.207 433.201 259.207 433.274V433.89C259.207 433.912 259.196 433.938 259.174 433.967C259.159 433.989 259.13 434 259.086 434H255.225C255.144 434 255.104 433.963 255.104 433.89V433.274C255.104 433.201 255.144 433.164 255.225 433.164H256.611C256.669 433.164 256.699 433.146 256.699 433.109V427.059C256.699 426.986 256.666 426.956 256.6 426.971L255.236 427.477C255.14 427.499 255.093 427.455 255.093 427.345V426.905C255.093 426.854 255.1 426.821 255.115 426.806C255.129 426.784 255.159 426.762 255.203 426.74L256.831 425.926C256.904 425.889 256.963 425.867 257.007 425.86C257.051 425.845 257.102 425.838 257.161 425.838H257.634C257.714 425.838 257.755 425.882 257.755 425.97V433.087C257.755 433.138 257.777 433.164 257.821 433.164H259.086ZM263.83 425.728C264.365 425.728 264.835 425.823 265.238 426.014C265.641 426.197 265.957 426.458 266.184 426.795C266.411 427.132 266.525 427.525 266.525 427.972C266.525 428.317 266.437 428.625 266.261 428.896C266.085 429.167 265.803 429.439 265.414 429.71C265.304 429.783 265.3 429.842 265.403 429.886C265.74 430.018 266.015 430.179 266.228 430.37C266.448 430.561 266.613 430.781 266.723 431.03C266.833 431.272 266.888 431.54 266.888 431.833C266.888 432.295 266.756 432.698 266.492 433.043C266.235 433.388 265.876 433.652 265.414 433.835C264.952 434.018 264.413 434.11 263.797 434.11C263.196 434.11 262.671 434.026 262.224 433.857C261.777 433.688 261.432 433.446 261.19 433.131C260.955 432.808 260.838 432.423 260.838 431.976C260.838 431.587 260.933 431.239 261.124 430.931C261.322 430.616 261.645 430.319 262.092 430.04C262.18 429.989 262.224 429.948 262.224 429.919C262.231 429.882 262.191 429.842 262.103 429.798C261.898 429.681 261.714 429.541 261.553 429.38C261.399 429.219 261.278 429.032 261.19 428.819C261.102 428.606 261.058 428.364 261.058 428.093C261.058 427.646 261.172 427.246 261.399 426.894C261.634 426.535 261.96 426.252 262.378 426.047C262.796 425.834 263.28 425.728 263.83 425.728ZM263.841 426.498C263.511 426.498 263.21 426.564 262.939 426.696C262.668 426.828 262.451 427.008 262.29 427.235C262.136 427.455 262.059 427.712 262.059 428.005C262.059 428.672 262.437 429.09 263.192 429.259L264.325 429.523C264.428 429.552 264.549 429.527 264.688 429.446C264.835 429.365 264.978 429.248 265.117 429.094C265.256 428.94 265.37 428.764 265.458 428.566C265.546 428.368 265.59 428.166 265.59 427.961C265.59 427.528 265.432 427.176 265.117 426.905C264.802 426.634 264.376 426.498 263.841 426.498ZM263.852 433.34C264.461 433.34 264.945 433.208 265.304 432.944C265.663 432.68 265.843 432.324 265.843 431.877C265.843 431.54 265.751 431.265 265.568 431.052C265.385 430.839 265.088 430.685 264.677 430.59L263.247 430.238C263.137 430.209 263.001 430.231 262.84 430.304C262.679 430.37 262.517 430.48 262.356 430.634C262.195 430.781 262.055 430.96 261.938 431.173C261.828 431.378 261.773 431.606 261.773 431.855C261.773 432.324 261.949 432.691 262.301 432.955C262.66 433.212 263.177 433.34 263.852 433.34ZM269.72 429.479C269.72 429.596 269.654 429.655 269.522 429.655H268.752C268.642 429.655 268.587 429.6 268.587 429.49V428.566C268.587 428.471 268.627 428.423 268.708 428.423H269.61C269.683 428.423 269.72 428.463 269.72 428.544V429.479ZM269.72 433.791C269.72 433.908 269.654 433.967 269.522 433.967H268.752C268.642 433.967 268.587 433.916 268.587 433.813V432.878C268.587 432.79 268.627 432.746 268.708 432.746H269.61C269.683 432.746 269.72 432.786 269.72 432.867V433.791ZM275.345 433.164C275.426 433.164 275.466 433.201 275.466 433.274V433.89C275.466 433.912 275.455 433.938 275.433 433.967C275.419 433.989 275.389 434 275.345 434H271.484C271.404 434 271.363 433.963 271.363 433.89V433.274C271.363 433.201 271.404 433.164 271.484 433.164H272.87C272.929 433.164 272.958 433.146 272.958 433.109V427.059C272.958 426.986 272.925 426.956 272.859 426.971L271.495 427.477C271.4 427.499 271.352 427.455 271.352 427.345V426.905C271.352 426.854 271.36 426.821 271.374 426.806C271.389 426.784 271.418 426.762 271.462 426.74L273.09 425.926C273.164 425.889 273.222 425.867 273.266 425.86C273.31 425.845 273.362 425.838 273.42 425.838H273.893C273.974 425.838 274.014 425.882 274.014 425.97V433.087C274.014 433.138 274.036 433.164 274.08 433.164H275.345ZM280.222 425.728C280.654 425.728 281.054 425.82 281.421 426.003C281.795 426.179 282.117 426.447 282.389 426.806C282.667 427.165 282.884 427.609 283.038 428.137C283.192 428.658 283.269 429.259 283.269 429.941C283.269 430.85 283.133 431.613 282.862 432.229C282.598 432.845 282.235 433.311 281.773 433.626C281.311 433.941 280.79 434.099 280.211 434.099C279.624 434.099 279.1 433.941 278.638 433.626C278.176 433.311 277.813 432.845 277.549 432.229C277.285 431.613 277.153 430.854 277.153 429.952C277.153 429.27 277.23 428.669 277.384 428.148C277.538 427.62 277.754 427.176 278.033 426.817C278.311 426.45 278.638 426.179 279.012 426.003C279.386 425.82 279.789 425.728 280.222 425.728ZM280.222 433.296C280.625 433.296 280.973 433.182 281.267 432.955C281.56 432.728 281.787 432.368 281.949 431.877C282.11 431.378 282.191 430.733 282.191 429.941C282.191 429.134 282.106 428.482 281.938 427.983C281.776 427.484 281.545 427.118 281.245 426.883C280.951 426.648 280.607 426.531 280.211 426.531C279.815 426.531 279.466 426.648 279.166 426.883C278.872 427.118 278.641 427.488 278.473 427.994C278.311 428.493 278.231 429.142 278.231 429.941C278.231 430.733 278.311 431.378 278.473 431.877C278.641 432.368 278.876 432.728 279.177 432.955C279.477 433.182 279.826 433.296 280.222 433.296Z" fill="black" fill-opacity="0.25"/>
<path d="M325.882 302.843C338.9 309.776 285.223 308.699 285.223 308.699C285.223 308.699 297.722 249.474 303.234 268.624C308.746 287.775 312.865 295.911 325.882 302.843Z" fill="#E0D2B9"/>
<rect x="14" y="235" width="300" height="74" rx="10" fill="#E0D2B9"/>
<path fill-rule="evenodd" clip-rule="evenodd" d="M299.501 293.109L300 293.596L294.6 301L292.412 298.838L293.339 297.566L294.6 298.302L299.501 293.109ZM295.119 293L295.618 293.487L290.219 300.891L286.5 297.234L287.33 296.424L290.219 298.193L295.119 293Z" fill="#C0A67B"/>
<path d="M257.356 300.164C257.437 300.164 257.477 300.201 257.477 300.274V300.89C257.477 300.912 257.466 300.938 257.444 300.967C257.43 300.989 257.4 301 257.356 301H253.495C253.415 301 253.374 300.963 253.374 300.89V300.274C253.374 300.201 253.415 300.164 253.495 300.164H254.881C254.94 300.164 254.969 300.146 254.969 300.109V294.059C254.969 293.986 254.936 293.956 254.87 293.971L253.506 294.477C253.411 294.499 253.363 294.455 253.363 294.345V293.905C253.363 293.854 253.371 293.821 253.385 293.806C253.4 293.784 253.429 293.762 253.473 293.74L255.101 292.926C255.175 292.889 255.233 292.867 255.277 292.86C255.321 292.845 255.373 292.838 255.431 292.838H255.904C255.985 292.838 256.025 292.882 256.025 292.97V300.087C256.025 300.138 256.047 300.164 256.091 300.164H257.356ZM262.683 292.959C262.72 292.915 262.757 292.886 262.793 292.871C262.83 292.849 262.885 292.838 262.958 292.838H263.695C263.783 292.838 263.827 292.882 263.827 292.97V297.92C263.827 297.986 263.857 298.019 263.915 298.019H264.949C265.052 298.019 265.103 298.056 265.103 298.129V298.668C265.103 298.763 265.052 298.811 264.949 298.811H263.926C263.86 298.811 263.827 298.848 263.827 298.921V300.835C263.827 300.945 263.769 301 263.651 301H262.903C262.808 301 262.76 300.952 262.76 300.857V298.888C262.76 298.837 262.727 298.811 262.661 298.811H259.097C258.987 298.811 258.932 298.763 258.932 298.668V298.107C258.932 298.056 258.947 298.004 258.976 297.953C259.006 297.894 259.05 297.825 259.108 297.744L262.683 292.959ZM262.639 298.019C262.705 298.019 262.738 297.993 262.738 297.942V294.279C262.738 294.191 262.727 294.143 262.705 294.136C262.683 294.129 262.643 294.162 262.584 294.235L259.9 297.876C259.827 297.971 259.853 298.019 259.977 298.019H262.639ZM267.786 296.479C267.786 296.596 267.72 296.655 267.588 296.655H266.818C266.708 296.655 266.653 296.6 266.653 296.49V295.566C266.653 295.471 266.693 295.423 266.774 295.423H267.676C267.749 295.423 267.786 295.463 267.786 295.544V296.479ZM267.786 300.791C267.786 300.908 267.72 300.967 267.588 300.967H266.818C266.708 300.967 266.653 300.916 266.653 300.813V299.878C266.653 299.79 266.693 299.746 266.774 299.746H267.676C267.749 299.746 267.786 299.786 267.786 299.867V300.791ZM269.727 293.982C269.676 293.931 269.676 293.876 269.727 293.817C269.954 293.568 270.2 293.362 270.464 293.201C270.735 293.04 271.021 292.922 271.322 292.849C271.623 292.768 271.938 292.728 272.268 292.728C272.84 292.728 273.328 292.82 273.731 293.003C274.142 293.179 274.457 293.425 274.677 293.74C274.904 294.048 275.018 294.4 275.018 294.796C275.018 295.192 274.893 295.551 274.644 295.874C274.402 296.189 274.061 296.424 273.621 296.578C273.54 296.607 273.5 296.633 273.5 296.655C273.5 296.677 273.54 296.703 273.621 296.732C273.922 296.813 274.197 296.948 274.446 297.139C274.703 297.322 274.904 297.55 275.051 297.821C275.198 298.092 275.271 298.4 275.271 298.745C275.271 299.2 275.154 299.607 274.919 299.966C274.684 300.325 274.332 300.608 273.863 300.813C273.401 301.011 272.822 301.11 272.125 301.11C271.758 301.11 271.41 301.07 271.08 300.989C270.75 300.901 270.442 300.769 270.156 300.593C269.877 300.417 269.617 300.201 269.375 299.944C269.346 299.907 269.335 299.874 269.342 299.845C269.349 299.816 269.371 299.786 269.408 299.757L269.881 299.383C269.932 299.346 269.969 299.332 269.991 299.339C270.013 299.346 270.035 299.361 270.057 299.383C270.277 299.61 270.497 299.79 270.717 299.922C270.937 300.054 271.168 300.153 271.41 300.219C271.652 300.278 271.916 300.307 272.202 300.307C272.847 300.307 273.346 300.164 273.698 299.878C274.05 299.592 274.226 299.225 274.226 298.778C274.226 298.426 274.127 298.129 273.929 297.887C273.731 297.645 273.474 297.462 273.159 297.337C272.844 297.212 272.51 297.15 272.158 297.15L271.179 297.139C271.091 297.139 271.047 297.102 271.047 297.029V296.457C271.047 296.391 271.091 296.354 271.179 296.347L271.971 296.336C272.352 296.336 272.693 296.27 272.994 296.138C273.302 296.006 273.544 295.83 273.72 295.61C273.896 295.383 273.984 295.126 273.984 294.84C273.984 294.591 273.911 294.367 273.764 294.169C273.617 293.971 273.416 293.813 273.159 293.696C272.902 293.579 272.609 293.52 272.279 293.52C271.898 293.52 271.546 293.593 271.223 293.74C270.9 293.887 270.596 294.096 270.31 294.367C270.281 294.404 270.251 294.422 270.222 294.422C270.193 294.422 270.156 294.404 270.112 294.367L269.727 293.982ZM280.222 292.728C280.654 292.728 281.054 292.82 281.421 293.003C281.795 293.179 282.117 293.447 282.389 293.806C282.667 294.165 282.884 294.609 283.038 295.137C283.192 295.658 283.269 296.259 283.269 296.941C283.269 297.85 283.133 298.613 282.862 299.229C282.598 299.845 282.235 300.311 281.773 300.626C281.311 300.941 280.79 301.099 280.211 301.099C279.624 301.099 279.1 300.941 278.638 300.626C278.176 300.311 277.813 299.845 277.549 299.229C277.285 298.613 277.153 297.854 277.153 296.952C277.153 296.27 277.23 295.669 277.384 295.148C277.538 294.62 277.754 294.176 278.033 293.817C278.311 293.45 278.638 293.179 279.012 293.003C279.386 292.82 279.789 292.728 280.222 292.728ZM280.222 300.296C280.625 300.296 280.973 300.182 281.267 299.955C281.56 299.728 281.787 299.368 281.949 298.877C282.11 298.378 282.191 297.733 282.191 296.941C282.191 296.134 282.106 295.482 281.938 294.983C281.776 294.484 281.545 294.118 281.245 293.883C280.951 293.648 280.607 293.531 280.211 293.531C279.815 293.531 279.466 293.648 279.166 293.883C278.872 294.118 278.641 294.488 278.473 294.994C278.311 295.493 278.231 296.142 278.231 296.941C278.231 297.733 278.311 298.378 278.473 298.877C278.641 299.368 278.876 299.728 279.177 299.955C279.477 300.182 279.826 300.296 280.222 300.296Z" fill="black" fill-opacity="0.25"/>
<path d="M325.882 192.843C338.9 199.776 285.223 198.699 285.223 198.699C285.223 198.699 297.722 139.474 303.234 158.624C308.746 177.775 312.865 185.911 325.882 192.843Z" fill="#E0D2B9"/>
<rect x="14" y="140" width="300" height="59" rx="10" fill="#E0D2B9"/>
<path fill-rule="evenodd" clip-rule="evenodd" d="M299.501 183.109L300 183.596L294.6 191L292.412 188.838L293.339 187.566L294.6 188.302L299.501 183.109ZM295.119 183L295.618 183.487L290.219 190.891L286.5 187.234L287.33 186.424L290.219 188.193L295.119 183Z" fill="#C0A67B"/>
<path d="M257.388 190.164C257.469 190.164 257.509 190.201 257.509 190.274V190.89C257.509 190.912 257.498 190.938 257.476 190.967C257.462 190.989 257.432 191 257.388 191H253.527C253.447 191 253.406 190.963 253.406 190.89V190.274C253.406 190.201 253.447 190.164 253.527 190.164H254.913C254.972 190.164 255.001 190.146 255.001 190.109V184.059C255.001 183.986 254.968 183.956 254.902 183.971L253.538 184.477C253.443 184.499 253.395 184.455 253.395 184.345V183.905C253.395 183.854 253.403 183.821 253.417 183.806C253.432 183.784 253.461 183.762 253.505 183.74L255.133 182.926C255.207 182.889 255.265 182.867 255.309 182.86C255.353 182.845 255.405 182.838 255.463 182.838H255.936C256.017 182.838 256.057 182.882 256.057 182.97V190.087C256.057 190.138 256.079 190.164 256.123 190.164H257.388ZM261.649 187.579C261.957 187.286 262.217 187.025 262.43 186.798C262.642 186.563 262.811 186.347 262.936 186.149C263.068 185.944 263.163 185.749 263.222 185.566C263.288 185.375 263.321 185.181 263.321 184.983C263.321 184.668 263.24 184.404 263.079 184.191C262.917 183.978 262.712 183.821 262.463 183.718C262.221 183.608 261.964 183.553 261.693 183.553C261.48 183.553 261.26 183.59 261.033 183.663C260.805 183.729 260.585 183.843 260.373 184.004C260.167 184.165 259.98 184.378 259.812 184.642C259.797 184.671 259.768 184.69 259.724 184.697C259.687 184.704 259.643 184.693 259.592 184.664L259.108 184.378C259.056 184.341 259.027 184.305 259.02 184.268C259.02 184.224 259.034 184.18 259.064 184.136C259.401 183.645 259.808 183.289 260.285 183.069C260.769 182.842 261.267 182.728 261.781 182.728C262.243 182.728 262.668 182.812 263.057 182.981C263.445 183.15 263.757 183.403 263.992 183.74C264.226 184.077 264.344 184.503 264.344 185.016C264.344 185.339 264.285 185.643 264.168 185.929C264.058 186.215 263.871 186.512 263.607 186.82C263.35 187.128 263.005 187.487 262.573 187.898L260.362 189.977C260.318 190.006 260.299 190.036 260.307 190.065C260.321 190.094 260.362 190.109 260.428 190.109H264.289C264.384 190.109 264.432 190.149 264.432 190.23V190.868C264.432 190.912 264.421 190.945 264.399 190.967C264.384 190.989 264.347 191 264.289 191H259.185C259.119 191 259.071 190.989 259.042 190.967C259.02 190.945 259.009 190.897 259.009 190.824V190.373C259.009 190.322 259.012 190.278 259.02 190.241C259.034 190.197 259.064 190.149 259.108 190.098C259.152 190.047 259.218 189.984 259.306 189.911L261.649 187.579ZM267.26 186.479C267.26 186.596 267.194 186.655 267.062 186.655H266.292C266.182 186.655 266.127 186.6 266.127 186.49V185.566C266.127 185.471 266.167 185.423 266.248 185.423H267.15C267.223 185.423 267.26 185.463 267.26 185.544V186.479ZM267.26 190.791C267.26 190.908 267.194 190.967 267.062 190.967H266.292C266.182 190.967 266.127 190.916 266.127 190.813V189.878C266.127 189.79 266.167 189.746 266.248 189.746H267.15C267.223 189.746 267.26 189.786 267.26 189.867V190.791ZM272.148 182.728C272.581 182.728 272.981 182.82 273.347 183.003C273.721 183.179 274.044 183.447 274.315 183.806C274.594 184.165 274.81 184.609 274.964 185.137C275.118 185.658 275.195 186.259 275.195 186.941C275.195 187.85 275.06 188.613 274.788 189.229C274.524 189.845 274.161 190.311 273.699 190.626C273.237 190.941 272.717 191.099 272.137 191.099C271.551 191.099 271.026 190.941 270.564 190.626C270.102 190.311 269.739 189.845 269.475 189.229C269.211 188.613 269.079 187.854 269.079 186.952C269.079 186.27 269.156 185.669 269.31 185.148C269.464 184.62 269.681 184.176 269.959 183.817C270.238 183.45 270.564 183.179 270.938 183.003C271.312 182.82 271.716 182.728 272.148 182.728ZM272.148 190.296C272.552 190.296 272.9 190.182 273.193 189.955C273.487 189.728 273.714 189.368 273.875 188.877C274.037 188.378 274.117 187.733 274.117 186.941C274.117 186.134 274.033 185.482 273.864 184.983C273.703 184.484 273.472 184.118 273.171 183.883C272.878 183.648 272.533 183.531 272.137 183.531C271.741 183.531 271.393 183.648 271.092 183.883C270.799 184.118 270.568 184.488 270.399 184.994C270.238 185.493 270.157 186.142 270.157 186.941C270.157 187.733 270.238 188.378 270.399 188.877C270.568 189.368 270.803 189.728 271.103 189.955C271.404 190.182 271.752 190.296 272.148 190.296ZM280.222 182.728C280.654 182.728 281.054 182.82 281.421 183.003C281.795 183.179 282.117 183.447 282.389 183.806C282.667 184.165 282.884 184.609 283.038 185.137C283.192 185.658 283.269 186.259 283.269 186.941C283.269 187.85 283.133 188.613 282.862 189.229C282.598 189.845 282.235 190.311 281.773 190.626C281.311 190.941 280.79 191.099 280.211 191.099C279.624 191.099 279.1 190.941 278.638 190.626C278.176 190.311 277.813 189.845 277.549 189.229C277.285 188.613 277.153 187.854 277.153 186.952C277.153 186.27 277.23 185.669 277.384 185.148C277.538 184.62 277.754 184.176 278.033 183.817C278.311 183.45 278.638 183.179 279.012 183.003C279.386 182.82 279.789 182.728 280.222 182.728ZM280.222 190.296C280.625 190.296 280.973 190.182 281.267 189.955C281.56 189.728 281.787 189.368 281.949 188.877C282.11 188.378 282.191 187.733 282.191 186.941C282.191 186.134 282.106 185.482 281.938 184.983C281.776 184.484 281.545 184.118 281.245 183.883C280.951 183.648 280.607 183.531 280.211 183.531C279.815 183.531 279.466 183.648 279.166 183.883C278.872 184.118 278.641 184.488 278.473 184.994C278.311 185.493 278.231 186.142 278.231 186.941C278.231 187.733 278.311 188.378 278.473 188.877C278.641 189.368 278.876 189.728 279.177 189.955C279.477 190.182 279.826 190.296 280.222 190.296Z" fill="black" fill-opacity="0.25"/>
<path d="M325.882 97.8433C338.9 104.776 285.223 103.699 285.223 103.699C285.223 103.699 297.722 44.4737 303.234 63.6243C308.746 82.7748 312.865 90.9108 325.882 97.8433Z" fill="#E0D2B9"/>
<rect x="14" y="26" width="300" height="78" rx="10" fill="#E0D2B9"/>
<path fill-rule="evenodd" clip-rule="evenodd" d="M299.501 88.109L300 88.5957L294.6 96L292.412 93.8383L293.339 92.5664L294.6 93.3024L299.501 88.109ZM295.119 88L295.618 88.4868L290.219 95.891L286.5 92.2336L287.33 91.4235L290.219 93.1934L295.119 88Z" fill="#C0A67B"/>
<path d="M258.86 95.164C258.941 95.164 258.981 95.2007 258.981 95.274V95.89C258.981 95.912 258.97 95.9377 258.948 95.967C258.933 95.989 258.904 96 258.86 96H254.999C254.918 96 254.878 95.9633 254.878 95.89V95.274C254.878 95.2007 254.918 95.164 254.999 95.164H256.385C256.444 95.164 256.473 95.1457 256.473 95.109V89.059C256.473 88.9857 256.44 88.9563 256.374 88.971L255.01 89.477C254.915 89.499 254.867 89.455 254.867 89.345V88.905C254.867 88.8537 254.874 88.8207 254.889 88.806C254.904 88.784 254.933 88.762 254.977 88.74L256.605 87.926C256.678 87.8893 256.737 87.8673 256.781 87.86C256.825 87.8453 256.876 87.838 256.935 87.838H257.408C257.489 87.838 257.529 87.882 257.529 87.97V95.087C257.529 95.1383 257.551 95.164 257.595 95.164H258.86ZM263.736 87.728C264.169 87.728 264.569 87.8197 264.935 88.003C265.309 88.179 265.632 88.4467 265.903 88.806C266.182 89.1653 266.398 89.609 266.552 90.137C266.706 90.6577 266.783 91.259 266.783 91.941C266.783 92.8503 266.648 93.613 266.376 94.229C266.112 94.845 265.749 95.3107 265.287 95.626C264.825 95.9413 264.305 96.099 263.725 96.099C263.139 96.099 262.614 95.9413 262.152 95.626C261.69 95.3107 261.327 94.845 261.063 94.229C260.799 93.613 260.667 92.854 260.667 91.952C260.667 91.27 260.744 90.6687 260.898 90.148C261.052 89.62 261.269 89.1763 261.547 88.817C261.826 88.4503 262.152 88.179 262.526 88.003C262.9 87.8197 263.304 87.728 263.736 87.728ZM263.736 95.296C264.14 95.296 264.488 95.1823 264.781 94.955C265.075 94.7277 265.302 94.3683 265.463 93.877C265.625 93.3783 265.705 92.733 265.705 91.941C265.705 91.1343 265.621 90.4817 265.452 89.983C265.291 89.4843 265.06 89.1177 264.759 88.883C264.466 88.6483 264.121 88.531 263.725 88.531C263.329 88.531 262.981 88.6483 262.68 88.883C262.387 89.1177 262.156 89.488 261.987 89.994C261.826 90.4927 261.745 91.1417 261.745 91.941C261.745 92.733 261.826 93.3783 261.987 93.877C262.156 94.3683 262.391 94.7277 262.691 94.955C262.992 95.1823 263.34 95.296 263.736 95.296ZM269.72 91.479C269.72 91.5963 269.654 91.655 269.522 91.655H268.752C268.642 91.655 268.587 91.6 268.587 91.49V90.566C268.587 90.4707 268.627 90.423 268.708 90.423H269.61C269.683 90.423 269.72 90.4633 269.72 90.544V91.479ZM269.72 95.791C269.72 95.9083 269.654 95.967 269.522 95.967H268.752C268.642 95.967 268.587 95.9157 268.587 95.813V94.878C268.587 94.79 268.627 94.746 268.708 94.746H269.61C269.683 94.746 269.72 94.7863 269.72 94.867V95.791ZM275.345 95.164C275.426 95.164 275.466 95.2007 275.466 95.274V95.89C275.466 95.912 275.455 95.9377 275.433 95.967C275.419 95.989 275.389 96 275.345 96H271.484C271.404 96 271.363 95.9633 271.363 95.89V95.274C271.363 95.2007 271.404 95.164 271.484 95.164H272.87C272.929 95.164 272.958 95.1457 272.958 95.109V89.059C272.958 88.9857 272.925 88.9563 272.859 88.971L271.495 89.477C271.4 89.499 271.352 89.455 271.352 89.345V88.905C271.352 88.8537 271.36 88.8207 271.374 88.806C271.389 88.784 271.418 88.762 271.462 88.74L273.09 87.926C273.164 87.8893 273.222 87.8673 273.266 87.86C273.31 87.8453 273.362 87.838 273.42 87.838H273.893C273.974 87.838 274.014 87.882 274.014 87.97V95.087C274.014 95.1383 274.036 95.164 274.08 95.164H275.345ZM280.222 87.728C280.654 87.728 281.054 87.8197 281.421 88.003C281.795 88.179 282.117 88.4467 282.389 88.806C282.667 89.1653 282.884 89.609 283.038 90.137C283.192 90.6577 283.269 91.259 283.269 91.941C283.269 92.8503 283.133 93.613 282.862 94.229C282.598 94.845 282.235 95.3107 281.773 95.626C281.311 95.9413 280.79 96.099 280.211 96.099C279.624 96.099 279.1 95.9413 278.638 95.626C278.176 95.3107 277.813 94.845 277.549 94.229C277.285 93.613 277.153 92.854 277.153 91.952C277.153 91.27 277.23 90.6687 277.384 90.148C277.538 89.62 277.754 89.1763 278.033 88.817C278.311 88.4503 278.638 88.179 279.012 88.003C279.386 87.8197 279.789 87.728 280.222 87.728ZM280.222 95.296C280.625 95.296 280.973 95.1823 281.267 94.955C281.56 94.7277 281.787 94.3683 281.949 93.877C282.11 93.3783 282.191 92.733 282.191 91.941C282.191 91.1343 282.106 90.4817 281.938 89.983C281.776 89.4843 281.545 89.1177 281.245 88.883C280.951 88.6483 280.607 88.531 280.211 88.531C279.815 88.531 279.466 88.6483 279.166 88.883C278.872 89.1177 278.641 89.488 278.473 89.994C278.311 90.4927 278.231 91.1417 278.231 91.941C278.231 92.733 278.311 93.3783 278.473 93.877C278.641 94.3683 278.876 94.7277 279.177 94.955C279.477 95.1823 279.826 95.296 280.222 95.296Z" fill="black" fill-opacity="0.25"/>
<rect x="117" width="94" height="21" rx="10" fill="#E8E8E8"/>
<rect x="117" y="114" width="94" height="21" rx="10" fill="#E8E8E8"/>
<rect x="117" y="209" width="94" height="21" rx="10" fill="#E8E8E8"/>
<rect x="117" y="319" width="94" height="21" rx="10" fill="#E8E8E8"/>
<line x1="314.347" y1="12.0927" x2="2.09267" y2="448.653" stroke="#003257" stroke-width="3" stroke-linecap="round"/>
</svg>
