<svg width="120" height="120" viewBox="0 0 120 120" fill="none" xmlns="http://www.w3.org/2000/svg">
<g clip-path="url(#clip0_384_120)">
<path d="M114.627 57.8206C117.634 54.8133 119.539 50.8254 119.99 46.5917C120.046 46.0634 119.861 45.5382 119.485 45.1625C119.109 44.7868 118.583 44.6016 118.056 44.6574C113.822 45.1083 109.834 47.0131 106.827 50.0206C106.136 50.7118 105.506 51.4566 104.936 52.2425C104.781 48.0218 104.044 43.8952 102.763 39.9598C105.949 37.4794 108.27 34.0034 109.326 30.102C110.437 25.9962 110.104 21.5897 108.388 17.6935C108.173 17.2074 107.751 16.8441 107.238 16.7054C106.725 16.5666 106.178 16.6672 105.747 16.9789C102.3 19.4775 99.7896 23.1146 98.6784 27.2201C98.4232 28.1633 98.2477 29.1225 98.1443 30.0877C96.6141 27.6462 94.8394 25.3383 92.8331 23.1959C91.5771 18.6511 88.7848 14.6333 84.9633 11.8779C81.1263 9.11138 76.4079 7.7295 71.681 7.98825C71.1506 8.01732 70.6617 8.2845 70.3512 8.71552C70.0406 9.14653 69.9413 9.6945 70.0814 10.2071C71.3299 14.7748 74.1305 18.814 77.9677 21.5804C81.5006 24.1278 85.7794 25.5008 90.1259 25.5008C90.142 25.5008 90.1582 25.5 90.1746 25.5C92.0074 27.4449 93.6326 29.5388 95.0381 31.7536C94.1883 31.3791 93.3103 31.0634 92.408 30.8192C88.3024 29.7083 83.8955 30.0413 79.9995 31.7576C79.5134 31.9718 79.1501 32.3942 79.0113 32.907C78.8726 33.4198 78.9731 33.9678 79.2848 34.3979C81.7835 37.8451 85.4205 40.3554 89.5261 41.4668C91.1184 41.8979 92.7558 42.1114 94.3915 42.1114C96.1252 42.1114 97.8553 41.8655 99.5283 41.3893C100.62 44.8428 101.259 48.4526 101.415 52.1422C100.864 51.3933 100.259 50.6818 99.5969 50.0201C96.5894 47.0126 92.6016 45.1081 88.368 44.6569C87.8393 44.6 87.3145 44.7861 86.9388 45.162C86.5631 45.5377 86.3775 46.0629 86.4338 46.5912C86.8847 50.8247 88.7895 54.8126 91.797 57.8201C92.4923 58.5155 93.2452 59.1589 94.0345 59.7326C94.8199 60.3033 95.9194 60.129 96.4899 59.3438C97.0606 58.5584 96.8864 57.459 96.101 56.8885C95.46 56.4228 94.8483 55.8999 94.2827 55.3344C92.3827 53.4343 91.0542 51.1362 90.371 48.5947C92.9126 49.2779 95.2106 50.6063 97.1109 52.5064C99.0689 54.4643 100.417 56.8458 101.08 59.48C100.441 64.2275 98.9972 68.7233 96.8876 72.8234C96.7791 71.8899 96.604 70.9625 96.3534 70.0505C95.2266 65.9492 92.7023 62.3218 89.2455 59.8362C88.8143 59.5259 88.2656 59.4275 87.7538 59.5683C87.2414 59.7092 86.8205 60.0739 86.6081 60.5607C84.9066 64.4633 84.5902 68.8714 85.717 72.9727C86.6182 76.2528 88.4152 79.2282 90.8665 81.5602C88.4297 84.2785 85.6406 86.6738 82.5708 88.6744C82.9296 87.8297 83.2305 86.9586 83.4614 86.0642C84.525 81.946 84.1404 77.5435 82.3791 73.6674C82.1592 73.1839 81.7327 72.8255 81.2182 72.6926C80.7038 72.56 80.1572 72.6671 79.7306 72.9833C76.3127 75.5218 73.8445 79.1876 72.7809 83.3058C71.9323 86.592 72.0084 90.0584 72.9677 93.2947C68.8861 94.6423 64.5272 95.3743 60 95.3743C55.4728 95.3743 51.1137 94.6423 47.0323 93.2947C47.9916 90.0584 48.0677 86.5918 47.2191 83.3058C46.1555 79.1876 43.6875 75.5218 40.2694 72.9833C39.843 72.6666 39.2962 72.56 38.7818 72.6926C38.2676 72.8255 37.8408 73.1836 37.6209 73.6674C35.8596 77.5435 35.4752 81.946 36.5386 86.0642C36.7694 86.9586 37.0706 87.8297 37.4292 88.6744C34.3596 86.674 31.5703 84.2785 29.1335 81.5602C31.5846 79.2282 33.3818 76.253 34.283 72.9727C35.4098 68.8714 35.0934 64.4635 33.3919 60.5607C33.1795 60.0736 32.7584 59.709 32.2462 59.5683C31.7339 59.4277 31.1855 59.5261 30.7544 59.8362C27.2976 62.3218 24.7734 65.9492 23.6466 70.0503C23.396 70.9622 23.2209 71.8899 23.1124 72.8234C21.4912 69.6727 20.2645 66.2876 19.492 62.7352C22.7714 61.9191 25.8005 60.2232 28.203 57.8206C31.2105 54.8131 33.1151 50.8252 33.5662 46.5917C33.6225 46.0634 33.4369 45.5382 33.0612 45.1625C32.6855 44.7868 32.16 44.6016 31.6319 44.6574C27.3984 45.1083 23.4105 47.0131 20.403 50.0206C19.7414 50.6822 19.1365 51.3938 18.5852 52.1426C18.788 47.3342 19.8115 42.661 21.5885 38.2932C23.4764 36.3345 25.834 34.9374 28.5103 34.2129C31.1041 33.511 33.7584 33.5026 36.303 34.1754C34.4454 36.0397 32.1492 37.3714 29.5554 38.0736C28.7234 38.2988 27.87 38.4542 27.0192 38.5351C26.0526 38.6272 25.3441 39.4852 25.436 40.4518C25.5227 41.3616 26.2882 42.0429 27.184 42.0429C27.2398 42.0429 27.2962 42.0404 27.3527 42.035C28.4006 41.9351 29.4509 41.7441 30.4739 41.4671C34.5794 40.3557 38.2165 37.8453 40.7152 34.3981C41.0269 33.968 41.1274 33.42 40.9887 32.9072C40.8499 32.3944 40.4866 31.9721 40.0005 31.7579C36.1045 30.0413 31.6976 29.7083 27.592 30.8194C26.6897 31.0636 25.8117 31.3793 24.9619 31.7539C26.3676 29.539 27.9926 27.4451 29.8254 25.5003C29.8416 25.5003 29.8577 25.501 29.8741 25.501C34.2204 25.501 38.4996 24.128 42.0323 21.5806C45.8695 18.814 48.6701 14.7748 49.9186 10.2073C50.0587 9.69474 49.9596 9.14677 49.6488 8.71575C49.338 8.28474 48.8494 8.01755 48.319 7.98849C43.5905 7.73021 38.8737 9.11161 35.0367 11.8782C31.2152 14.6335 28.4229 18.6514 27.1669 23.1961C25.1606 25.3386 23.3859 27.6462 21.8557 30.0877C21.7521 29.1225 21.5768 28.1633 21.3216 27.2201C20.2104 23.1146 17.6998 19.4775 14.2526 16.9789C13.8227 16.6672 13.2745 16.5666 12.7617 16.7054C12.2489 16.8441 11.8266 17.2074 11.6123 17.6935C9.89577 21.5897 9.56249 25.9962 10.6739 30.102C11.7298 34.0032 14.051 37.4794 17.2373 39.9598C15.9555 43.895 15.2191 48.0218 15.0644 52.2425C14.494 51.4568 13.8642 50.7118 13.173 50.0206C10.1658 47.0131 6.17788 45.1086 1.94413 44.6574C1.41515 44.6004 0.890614 44.7865 0.514911 45.1625C0.139208 45.5382 -0.046417 46.0634 0.00983301 46.5917C0.460771 50.8252 2.36554 54.8133 5.37304 57.8206C8.23124 60.6788 11.9756 62.5383 15.9741 63.1032C16.8204 67.1661 18.2173 71.029 20.0819 74.6117C19.2047 74.2154 18.2965 73.8828 17.3623 73.6259C13.2607 72.499 8.8528 72.8154 4.95022 74.517C4.46319 74.7293 4.09851 75.1505 3.95788 75.6626C3.81702 76.175 3.91546 76.7232 4.22577 77.1547C6.71108 80.6112 10.3385 83.1357 14.4401 84.2626C16.0537 84.706 17.715 84.9258 19.3741 84.9258C21.7195 84.9258 24.0593 84.481 26.257 83.6124C29.028 86.7577 32.2284 89.5156 35.7691 91.7893C34.7932 91.8809 33.8224 92.0464 32.8669 92.2929C28.7489 93.3565 25.0828 95.8245 22.5445 99.2426C22.2276 99.669 22.1208 100.216 22.2537 100.73C22.3866 101.244 22.7447 101.671 23.2284 101.891C25.668 103 28.3162 103.563 30.9708 103.563C32.5338 103.563 34.0992 103.368 35.6252 102.973C39.5426 101.962 43.0488 99.6772 45.5665 96.5147C49.0936 97.7131 52.8164 98.484 56.6723 98.7673L49.1759 109.262C48.6115 110.052 48.7945 111.15 49.5846 111.714C50.3747 112.279 51.4725 112.096 52.0366 111.306L60 100.157L67.9636 111.306C68.3067 111.786 68.847 112.042 69.3954 112.042C69.7491 112.042 70.106 111.936 70.4156 111.715C71.2057 111.15 71.3885 110.052 70.8244 109.263L63.3279 98.7675C67.1841 98.4842 70.9066 97.7133 74.4338 96.515C76.9514 99.6774 80.4576 101.962 84.375 102.974C85.9015 103.368 87.4662 103.563 89.0295 103.563C91.6838 103.563 94.3322 103 96.7718 101.891C97.2553 101.671 97.6137 101.245 97.7466 100.73C97.8795 100.216 97.7726 99.6692 97.4557 99.2429C94.9172 95.8247 91.2513 93.3568 87.1331 92.2932C86.1778 92.0464 85.2068 91.8811 84.2311 91.7895C87.7718 89.5161 90.9724 86.7579 93.7432 83.6126C95.9412 84.4815 98.2805 84.9261 100.626 84.9261C102.285 84.9261 103.947 84.7062 105.56 84.2628C109.662 83.1357 113.289 80.6115 115.774 77.1549C116.085 76.7236 116.183 76.1752 116.042 75.6629C115.901 75.1508 115.537 74.7296 115.05 74.5172C111.147 72.8159 106.74 72.4995 102.638 73.6261C101.704 73.8828 100.796 74.2156 99.9183 74.6119C101.783 71.0293 103.18 67.1663 104.026 63.1034C108.025 62.5383 111.769 60.6788 114.627 57.8206ZM90.4444 38.0738C87.8505 37.3716 85.5544 36.0399 83.6965 34.1757C86.2409 33.5028 88.8954 33.5112 91.4892 34.2132C94.0831 34.9154 96.379 36.2471 98.2369 38.1113C95.693 38.784 93.0384 38.7758 90.4444 38.0738ZM89.1068 72.0418C88.3948 69.4505 88.3765 66.7962 89.0395 64.2493C90.9108 66.0999 92.2514 68.3909 92.9632 70.9822C93.675 73.5734 93.6935 76.2275 93.0305 78.7747C91.1592 76.9238 89.8188 74.6328 89.1068 72.0418ZM76.1848 84.1854C76.8567 81.5834 78.1617 79.272 80.0044 77.393C80.7066 79.9294 80.7291 82.5837 80.0573 85.1858C79.3854 87.7876 78.0804 90.099 76.238 91.9779C75.5356 89.4415 75.513 86.787 76.1848 84.1854ZM39.9956 77.3928C41.8383 79.272 43.1433 81.5834 43.8152 84.1852C44.4872 86.787 44.4644 89.4413 43.7623 91.9777C41.9196 90.0985 40.6146 87.7871 39.9429 85.1853C39.2712 82.5835 39.2934 79.9292 39.9956 77.3928ZM27.0368 70.9819C27.7488 68.3909 29.0892 66.0999 30.9605 64.2493C31.6235 66.7962 31.6052 69.4503 30.8932 72.0418C30.1812 74.6328 28.8408 76.924 26.9695 78.7747C26.3065 76.2275 26.3248 73.5732 27.0368 70.9819ZM22.8891 52.5066C24.7891 50.6065 27.0874 49.2781 29.629 48.5949C28.9458 51.1365 27.6173 53.4345 25.7173 55.3346C23.8172 57.2347 21.5191 58.5631 18.9773 59.2463C19.6605 56.7047 20.989 54.4069 22.8891 52.5066ZM37.0929 14.73C39.6764 12.8672 42.6314 11.7797 45.7479 11.5287C44.5254 14.4064 42.5599 16.8664 39.9764 18.7292C37.3927 20.592 34.4379 21.6797 31.3214 21.9305C32.5439 19.0529 34.5094 16.5926 37.0929 14.73ZM14.0674 29.184C13.3655 26.5901 13.3573 23.9356 14.0299 21.3912C15.8941 23.2489 17.2258 25.545 17.928 28.1389C18.63 30.7327 18.6382 33.387 17.9655 35.9316C16.1011 34.0737 14.7694 31.7775 14.0674 29.184ZM7.85882 55.3348C5.95874 53.4347 4.6303 51.1367 3.9471 48.5951C6.48866 49.2783 8.78671 50.6068 10.6868 52.5068C12.5869 54.4069 13.9153 56.705 14.5985 59.2465C12.0572 58.5633 9.75913 57.2349 7.85882 55.3348ZM15.3712 80.8728C12.78 80.1608 10.489 78.8204 8.63835 76.9489C11.1851 76.2856 13.8391 76.3041 16.4309 77.0161C19.0219 77.7282 21.3131 79.0686 23.1637 80.9398C20.6168 81.6029 17.9625 81.5848 15.3712 80.8728ZM34.7461 99.5696C32.1445 100.242 29.4902 100.219 26.9536 99.5166C28.8328 97.674 31.1442 96.369 33.746 95.697C36.348 95.025 39.0023 95.0478 41.5387 95.75C39.6593 97.5924 37.3479 98.8976 34.7461 99.5696ZM93.0466 99.5164C90.51 100.219 87.8559 100.241 85.2541 99.5693C82.6523 98.8974 80.3409 97.5924 78.4617 95.7497C80.9981 95.0476 83.6527 95.025 86.2542 95.6968C88.8558 96.3687 91.1674 97.674 93.0466 99.5164ZM109.313 52.5066C111.213 50.6065 113.511 49.2781 116.053 48.5949C115.369 51.1365 114.041 53.4345 112.141 55.3346C110.241 57.2347 107.943 58.5631 105.401 59.2463C106.085 56.7047 107.413 54.4069 109.313 52.5066ZM102.072 28.1389C102.774 25.545 104.106 23.2489 105.97 21.3912C106.643 23.9356 106.635 26.5899 105.933 29.184C105.231 31.7778 103.899 34.074 102.035 35.9316C101.362 33.387 101.37 30.7327 102.072 28.1389ZM80.0236 18.7292C77.4401 16.8664 75.4746 14.4064 74.2521 11.5287C77.3684 11.7797 80.3238 12.8675 82.9071 14.73C85.4906 16.5929 87.4561 19.0529 88.6786 21.9305C85.5626 21.6795 82.6071 20.5918 80.0236 18.7292ZM103.569 77.0161C106.161 76.3041 108.814 76.2858 111.362 76.9489C109.511 78.8201 107.22 80.1608 104.629 80.8728C102.038 81.5848 99.3834 81.6029 96.8363 80.9398C98.6871 79.0683 100.978 77.7279 103.569 77.0161Z" fill="#C0A67B"/>
</g>
<defs>
<clipPath id="clip0_384_120">
<rect width="120" height="120" fill="white"/>
</clipPath>
</defs>
</svg>
