<svg width="36" height="36" viewBox="0 0 36 36" fill="none" xmlns="http://www.w3.org/2000/svg">
<path d="M15.0007 28.5C14.6502 28.5007 14.3106 28.3787 14.0407 28.155C13.8888 28.0291 13.7632 27.8745 13.6712 27.6999C13.5792 27.5254 13.5225 27.3345 13.5044 27.138C13.4863 26.9415 13.5071 26.7434 13.5657 26.555C13.6242 26.3666 13.7194 26.1916 13.8457 26.04L20.5657 18L14.0857 9.94503C13.9611 9.7916 13.868 9.61506 13.8119 9.42555C13.7557 9.23604 13.7376 9.0373 13.7585 8.84076C13.7794 8.64422 13.839 8.45374 13.9337 8.28029C14.0285 8.10683 14.1566 7.95382 14.3107 7.83003C14.4659 7.69348 14.6476 7.59048 14.8445 7.52749C15.0414 7.46451 15.2492 7.4429 15.4548 7.46403C15.6605 7.48516 15.8595 7.54856 16.0395 7.65027C16.2195 7.75197 16.3765 7.88977 16.5007 8.05503L23.7457 17.055C23.9663 17.3234 24.0869 17.6601 24.0869 18.0075C24.0869 18.355 23.9663 18.6916 23.7457 18.96L16.2457 27.96C16.0952 28.1416 15.9041 28.2851 15.6877 28.3789C15.4714 28.4727 15.236 28.5142 15.0007 28.5Z" fill="#C0A67B"/>
</svg>
