<svg width="90" height="90" viewBox="0 0 90 90" fill="none" xmlns="http://www.w3.org/2000/svg">
<g clip-path="url(#clip0_267_414)">
<path d="M78.2162 59.3477H38.8501C38.1217 59.3477 37.5312 59.9381 37.5312 60.6665C37.5312 61.395 38.1217 61.9854 38.8501 61.9854H78.2162C78.9446 61.9854 79.5351 61.395 79.5351 60.6665C79.5349 59.9381 78.9446 59.3477 78.2162 59.3477Z" fill="#C0A67B"/>
<path d="M78.2162 66.5576H38.8501C38.1217 66.5576 37.5312 67.1481 37.5312 67.8765C37.5312 68.6049 38.1217 69.1954 38.8501 69.1954H78.2162C78.9446 69.1954 79.5351 68.6049 79.5351 67.8765C79.5349 67.1481 78.9446 66.5576 78.2162 66.5576Z" fill="#C0A67B"/>
<path d="M67.7974 73.7671H38.8501C38.1217 73.7671 37.5312 74.3575 37.5312 75.086C37.5312 75.8144 38.1217 76.4049 38.8501 76.4049H67.7974C68.5259 76.4049 69.1163 75.8144 69.1163 75.086C69.1163 74.3575 68.5259 73.7671 67.7974 73.7671Z" fill="#C0A67B"/>
<path d="M86.481 21.5619L75.6819 10.7627C75.4344 10.5154 75.099 10.3764 74.7492 10.3764H59.8355V4.63184C59.8355 2.07773 57.7576 0 55.2035 0H7.7658C5.2117 0 3.13379 2.07791 3.13379 4.63184V74.9918C3.13379 77.5459 5.2117 79.6236 7.7658 79.6236H25.3058C26.0342 79.6236 26.6247 79.0332 26.6247 78.3047C26.6247 77.5763 26.0342 76.9859 25.3058 76.9859H7.7658C6.66611 76.9859 5.77156 76.0913 5.77156 74.9916V4.63184C5.77156 3.53215 6.66629 2.6376 7.7658 2.6376H51.4003L34.1745 9.24978C32.0459 10.0668 30.5193 12.0234 30.2241 14.2755C30.1361 14.8275 30.1758 15.1508 30.1656 15.7758H11.2514C9.96764 15.7758 8.92297 16.8203 8.92297 18.1042V29.9185C8.92297 31.2022 9.96746 32.2469 11.2514 32.2469H30.1658V35.7885H11.2514C9.96764 35.7885 8.92297 36.833 8.92297 38.1169V49.9312C8.92297 51.2149 9.96746 52.2596 11.2514 52.2596H30.1658V56.2416H10.2419C9.51342 56.2416 8.92297 56.832 8.92297 57.5604C8.92297 58.2889 9.51342 58.8793 10.2419 58.8793H30.1658V62.9531H10.2419C9.51342 62.9531 8.92297 63.5435 8.92297 64.2719C8.92297 65.0004 9.51342 65.5908 10.2419 65.5908H30.1658V85.3685C30.1658 87.9226 32.2437 90.0005 34.7976 90.0005H82.2352C84.7893 90.0005 86.867 87.9226 86.867 85.3685V22.4944C86.8672 22.1446 86.7283 21.8092 86.481 21.5619ZM76.0679 14.8792L82.3644 21.1757H78.0621C76.9626 21.1757 76.0679 20.2809 76.0679 19.1814V14.8792ZM38.6005 10.3764L56.7699 3.40189C57.0369 3.74115 57.1978 4.16777 57.1978 4.63201V10.3764H38.6005ZM11.5606 29.6091V18.4136H30.1656V29.6091H11.5606ZM11.5606 49.6216V38.4261H30.1656V49.6216H11.5606ZM82.2352 87.3624H34.7976C33.6979 87.3624 32.8034 86.4677 32.8034 85.3682V15.0082C32.8034 13.9194 33.6886 13.014 34.7976 13.014H73.4303V19.1812C73.4303 21.7354 75.5082 23.8133 78.0621 23.8133H84.2294V85.368C84.2294 86.4677 83.3348 87.3624 82.2352 87.3624Z" fill="#C0A67B"/>
</g>
<defs>
<clipPath id="clip0_267_414">
<rect width="90" height="90" fill="white"/>
</clipPath>
</defs>
</svg>
