<svg width="100" height="88" viewBox="0 0 100 88" fill="none" xmlns="http://www.w3.org/2000/svg">
<path d="M95.5225 42.1839C98.0288 39.6779 99.6159 36.3546 99.9918 32.8265C100.039 32.3863 99.884 31.9486 99.5709 31.6355C99.2579 31.3224 98.8194 31.1681 98.3799 31.2146C94.852 31.5904 91.5286 33.1777 89.0225 35.6839C88.4465 36.2599 87.9217 36.8806 87.4463 37.5355C87.3172 34.0183 86.7038 30.5794 85.6356 27.2999C88.2909 25.2329 90.2252 22.3363 91.1051 19.0851C92.0311 15.6636 91.7534 11.9915 90.3231 8.74465C90.1446 8.33958 89.7926 8.03684 89.3653 7.92122C88.9379 7.80559 88.4813 7.88938 88.1229 8.14915C85.2502 10.2314 83.1581 13.2622 82.2321 16.6835C82.0194 17.4695 81.8731 18.2689 81.787 19.0732C80.5118 17.0386 79.0329 15.1154 77.361 13.33C76.3143 9.5427 73.9874 6.19446 70.8028 3.89837C67.6053 1.5929 63.6733 0.441334 59.7342 0.656959C59.2922 0.681177 58.8848 0.903834 58.626 1.26301C58.3672 1.62219 58.2844 2.07883 58.4012 2.50598C59.4416 6.31243 61.7754 9.67844 64.9731 11.9837C67.9172 14.1066 71.4828 15.2507 75.1049 15.2507C75.1184 15.2507 75.1319 15.2501 75.1455 15.2501C76.6729 16.8708 78.0272 18.6157 79.1985 20.4615C78.4903 20.1493 77.7586 19.8863 77.0067 19.6827C73.5854 18.757 69.9129 19.0345 66.6663 20.4648C66.2612 20.6433 65.9584 20.9952 65.8428 21.4226C65.7272 21.8499 65.811 22.3066 66.0707 22.665C68.153 25.5376 71.1838 27.6296 74.6051 28.5558C75.9321 28.915 77.2965 29.0929 78.6596 29.0929C80.1043 29.0929 81.5461 28.888 82.9403 28.4911C83.8502 31.3691 84.3827 34.3773 84.5123 37.4519C84.053 36.8279 83.5489 36.2349 82.9975 35.6835C80.4912 33.1773 77.168 31.5902 73.6401 31.2142C73.1995 31.1667 72.7622 31.3218 72.4491 31.6351C72.136 31.9482 71.9813 32.3859 72.0282 32.8261C72.4039 36.354 73.9912 39.6773 76.4975 42.1835C77.077 42.763 77.7043 43.2991 78.3622 43.7773C79.0166 44.2529 79.9329 44.1075 80.4082 43.4533C80.8838 42.7988 80.7387 41.8825 80.0842 41.4072C79.55 41.0191 79.0403 40.5833 78.569 40.112C76.9856 38.5286 75.8786 36.6136 75.3092 34.4956C77.4272 35.065 79.3422 36.172 80.9258 37.7554C82.5575 39.387 83.6807 41.3716 84.2336 43.5667C83.701 47.523 82.4977 51.2695 80.7397 54.6863C80.6493 53.9083 80.5034 53.1355 80.2946 52.3755C79.3555 48.9577 77.252 45.9349 74.3713 43.8636C74.012 43.605 73.5547 43.523 73.1282 43.6404C72.7012 43.7577 72.3504 44.0616 72.1735 44.4673C70.7555 47.7195 70.4918 51.3929 71.4309 54.8107C72.1819 57.5441 73.6793 60.0236 75.7221 61.9669C73.6914 64.2322 71.3672 66.2282 68.809 67.8954C69.108 67.1915 69.3588 66.4656 69.5512 65.7202C70.4375 62.2884 70.117 58.6197 68.6493 55.3896C68.4661 54.9866 68.1106 54.688 67.6819 54.5773C67.2532 54.4667 66.7977 54.556 66.4422 54.8195C63.594 56.9349 61.5372 59.9898 60.6508 63.4216C59.9436 66.1601 60.0071 69.0488 60.8065 71.7456C57.4051 72.8687 53.7727 73.4786 50 73.4786C46.2274 73.4786 42.5948 72.8687 39.1936 71.7456C39.993 69.0488 40.0565 66.1599 39.3493 63.4216C38.4629 59.9898 36.4063 56.9349 33.5579 54.8195C33.2026 54.5556 32.7469 54.4667 32.3182 54.5773C31.8897 54.688 31.534 54.9865 31.3508 55.3896C29.8831 58.6197 29.5627 62.2884 30.4489 65.7202C30.6413 66.4656 30.8922 67.1915 31.1911 67.8954C28.633 66.2284 26.3086 64.2322 24.278 61.9669C26.3205 60.0236 27.8182 57.5443 28.5692 54.8107C29.5082 51.3929 29.2446 47.7197 27.8266 44.4673C27.6497 44.0615 27.2987 43.7575 26.8719 43.6404C26.445 43.5232 25.9879 43.6052 25.6288 43.8636C22.7481 45.9349 20.6446 48.9577 19.7055 52.3753C19.4967 53.1353 19.3508 53.9083 19.2604 54.6863C17.9094 52.0607 16.8872 49.2398 16.2434 46.2794C18.9762 45.5993 21.5004 44.1861 23.5026 42.1839C26.0088 39.6777 27.5959 36.3544 27.9719 32.8265C28.0188 32.3863 27.8641 31.9486 27.551 31.6355C27.2379 31.3224 26.8 31.1681 26.36 31.2146C22.8321 31.5904 19.5088 33.1777 17.0026 35.6839C16.4512 36.2353 15.9471 36.8283 15.4877 37.4523C15.6567 33.4452 16.5096 29.5509 17.9905 25.9111C19.5637 24.2788 21.5284 23.1146 23.7586 22.5109C25.9202 21.9259 28.1321 21.9189 30.2526 22.4796C28.7045 24.0331 26.7911 25.1429 24.6295 25.7281C23.9362 25.9158 23.225 26.0452 22.5161 26.1126C21.7106 26.1894 21.1202 26.9044 21.1967 27.7099C21.269 28.4681 21.9069 29.0359 22.6534 29.0359C22.6998 29.0359 22.7469 29.0337 22.794 29.0292C23.6672 28.946 24.5424 28.7868 25.395 28.556C28.8163 27.6298 31.8471 25.5378 33.9293 22.6652C34.1891 22.3068 34.2729 21.8501 34.1573 21.4228C34.0416 20.9954 33.7389 20.6435 33.3338 20.465C30.0872 19.0345 26.4147 18.757 22.9934 19.6829C22.2414 19.8865 21.5098 20.1495 20.8016 20.4616C21.9731 18.6159 23.3272 16.871 24.8545 15.2503C24.868 15.2503 24.8815 15.2509 24.8952 15.2509C28.517 15.2509 32.083 14.1068 35.027 11.9839C38.2247 9.67844 40.5584 6.31243 41.5989 2.50618C41.7157 2.07903 41.633 1.62239 41.3741 1.26321C41.1151 0.904029 40.7079 0.681373 40.2659 0.657154C36.3254 0.441919 32.3948 1.59309 29.1973 3.89856C26.0127 6.19465 23.6858 9.5429 22.6391 13.3302C20.9672 15.1156 19.4883 17.0386 18.2131 19.0732C18.1268 18.2689 17.9807 17.4695 17.768 16.6835C16.842 13.2622 14.7498 10.2314 11.8772 8.14915C11.519 7.88938 11.0622 7.80559 10.6348 7.92122C10.2075 8.03684 9.85551 8.33958 9.677 8.74465C8.24653 11.9915 7.96879 15.6636 8.89496 19.0851C9.77485 22.3361 11.7092 25.2329 14.3645 27.2999C13.2963 30.5792 12.6827 34.0183 12.5538 37.5355C12.0784 36.8808 11.5536 36.2599 10.9776 35.6839C8.47153 33.1777 5.14828 31.5906 1.62016 31.2146C1.17934 31.1671 0.742229 31.3222 0.429143 31.6355C0.116058 31.9486 -0.03863 32.3863 0.00824503 32.8265C0.384026 36.3544 1.97133 39.6779 4.47758 42.1839C6.85942 44.5658 9.97973 46.1154 13.3118 46.5861C14.017 49.9718 15.1811 53.1909 16.735 56.1765C16.0039 55.8462 15.2471 55.5691 14.4686 55.355C11.0506 54.4159 7.37739 54.6796 4.12524 56.0976C3.71938 56.2745 3.41547 56.6255 3.29828 57.0523C3.1809 57.4792 3.26293 57.9361 3.52153 58.2956C5.59262 61.1761 8.61547 63.2798 12.0334 64.2189C13.3782 64.5884 14.7625 64.7716 16.1452 64.7716C18.0997 64.7716 20.0495 64.4009 21.8809 63.6771C24.1901 66.2982 26.8571 68.5964 29.8077 70.4911C28.9944 70.5675 28.1854 70.7054 27.3891 70.9109C23.9575 71.7972 20.9024 73.8538 18.7872 76.7023C18.5231 77.0575 18.434 77.5134 18.5448 77.9419C18.6555 78.3704 18.9539 78.7261 19.3571 78.9093C21.3901 79.8331 23.5969 80.3025 25.809 80.3025C27.1116 80.3025 28.4161 80.1398 29.6877 79.8113C32.9522 78.9681 35.8741 77.0644 37.9721 74.429C40.9114 75.4277 44.0137 76.0701 47.227 76.3062L40.9799 85.0521C40.5096 85.7105 40.6622 86.6253 41.3205 87.0954C41.979 87.5659 42.8938 87.4132 43.3639 86.7548L50 77.4642L56.6364 86.755C56.9223 87.1552 57.3725 87.3687 57.8295 87.3687C58.1243 87.3687 58.4217 87.28 58.6797 87.0956C59.3381 86.6253 59.4905 85.7105 59.0204 85.0523L52.7733 76.3064C55.9868 76.0702 59.0889 75.4279 62.0282 74.4292C64.1262 77.0646 67.0481 78.9685 70.3125 79.8115C71.5846 80.14 72.8885 80.3027 74.1913 80.3027C76.4032 80.3027 78.6102 79.8333 80.6432 78.9095C81.0461 78.7263 81.3448 78.3708 81.4555 77.9421C81.5663 77.5134 81.4772 77.0577 81.2131 76.7025C79.0977 73.854 76.0428 71.7974 72.611 70.9111C71.8149 70.7054 71.0057 70.5677 70.1926 70.4913C73.1432 68.5968 75.8104 66.2984 78.1194 63.6773C79.951 64.4013 81.9004 64.7718 83.8551 64.7718C85.2377 64.7718 86.6223 64.5886 87.967 64.2191C91.3848 63.2798 94.4079 61.1763 96.4788 58.2958C96.7372 57.9365 96.8192 57.4794 96.702 57.0525C96.5846 56.6257 96.2807 56.2747 95.875 56.0978C92.6229 54.68 88.9497 54.4163 85.5317 55.3552C84.753 55.5691 83.9963 55.8464 83.2653 56.1767C84.8192 53.1911 85.9832 49.972 86.6885 46.5863C90.0205 46.1154 93.1407 44.5658 95.5225 42.1839ZM75.3704 25.7282C73.2088 25.1431 71.2954 24.0333 69.7471 22.4798C71.8674 21.9191 74.0795 21.9261 76.2411 22.5111C78.4026 23.0962 80.3159 24.206 81.8641 25.7595C79.7442 26.32 77.5321 26.3132 75.3704 25.7282ZM74.2557 54.0349C73.6623 51.8755 73.6471 49.6636 74.1997 47.5411C75.759 49.0833 76.8762 50.9925 77.4694 53.1519C78.0625 55.3113 78.078 57.523 77.5254 59.6456C75.9661 58.1033 74.8491 56.1941 74.2557 54.0349ZM63.4873 64.1546C64.0473 61.9863 65.1348 60.0601 66.6703 58.4943C67.2555 60.6079 67.2743 62.8199 66.7145 64.9882C66.1545 67.1564 65.067 69.0826 63.5317 70.6484C62.9463 68.5347 62.9276 66.3226 63.4873 64.1546ZM33.3297 58.4941C34.8653 60.0601 35.9528 61.9863 36.5127 64.1544C37.0727 66.3226 37.0538 68.5345 36.4686 70.6482C34.933 69.0822 33.8456 67.156 33.2858 64.9878C32.726 62.8197 32.7446 60.6077 33.3297 58.4941ZM22.5307 53.1517C23.1241 50.9925 24.2411 49.0833 25.8004 47.5411C26.353 49.6636 26.3377 51.8753 25.7444 54.0349C25.151 56.1941 24.034 58.1035 22.4747 59.6456C21.9221 57.523 21.9373 55.3111 22.5307 53.1517ZM19.0743 37.7556C20.6577 36.1722 22.5729 35.0652 24.6909 34.4958C24.1215 36.6138 23.0145 38.5288 21.4311 40.1122C19.8477 41.6956 17.9327 42.8027 15.8145 43.372C16.3838 41.254 17.4909 39.3392 19.0743 37.7556ZM30.9108 6.27512C33.0637 4.72278 35.5262 3.81653 38.1233 3.60735C37.1045 6.0054 35.4666 8.0554 33.3137 9.60774C31.1606 11.1601 28.6983 12.0665 26.1012 12.2755C27.12 9.87747 28.7579 7.82727 30.9108 6.27512ZM11.7229 18.32C11.1379 16.1585 11.1311 13.9464 11.6916 11.8261C13.2452 13.3741 14.3549 15.2876 14.9401 17.4491C15.525 19.6107 15.5319 21.8226 14.9713 23.9431C13.4176 22.3948 12.3079 20.4814 11.7229 18.32ZM6.54906 40.1124C4.96567 38.529 3.85864 36.614 3.2893 34.496C5.40727 35.0654 7.32231 36.1724 8.90571 37.7558C10.4891 39.3392 11.5961 41.2542 12.1655 43.3722C10.0477 42.8029 8.13266 41.6958 6.54906 40.1124ZM12.8094 61.3941C10.65 60.8007 8.74086 59.6837 7.19867 58.1241C9.32094 57.5714 11.5327 57.5868 13.6924 58.1802C15.8516 58.7736 17.761 59.8906 19.3032 61.4499C17.1807 62.0025 14.9688 61.9874 12.8094 61.3941ZM28.9551 76.9747C26.7872 77.5347 24.5752 77.5158 22.4614 76.9306C24.0274 75.3951 25.9536 74.3075 28.1217 73.7476C30.2901 73.1876 32.502 73.2066 34.6157 73.7917C33.0495 75.3271 31.1233 76.4148 28.9551 76.9747ZM77.5389 76.9304C75.425 77.5158 73.2133 77.5343 71.0452 76.9745C68.877 76.4146 66.9508 75.3271 65.3848 73.7915C67.4985 73.2064 69.7106 73.1876 71.8786 73.7474C74.0465 74.3074 75.9729 75.3951 77.5389 76.9304ZM91.0942 37.7556C92.6776 36.1722 94.5926 35.0652 96.7106 34.4958C96.1413 36.6138 95.0342 38.5288 93.4508 40.1122C91.8674 41.6956 89.9524 42.8027 87.8344 43.372C88.4039 41.254 89.511 39.3392 91.0942 37.7556ZM85.0602 17.4491C85.6452 15.2876 86.7549 13.3741 88.3084 11.8261C88.8692 13.9464 88.8622 16.1583 88.2772 18.32C87.6922 20.4816 86.5825 22.395 85.0289 23.9431C84.4684 21.8226 84.475 19.6107 85.0602 17.4491ZM66.6864 9.60774C64.5334 8.0554 62.8955 6.0054 61.8768 3.60735C64.4737 3.81653 66.9366 4.72297 69.0893 6.27512C71.2422 7.82747 72.8801 9.87747 73.8989 12.2755C71.3022 12.0663 68.8393 11.1599 66.6864 9.60774ZM86.3077 58.1802C88.4672 57.5868 90.6788 57.5716 92.8014 58.1241C91.2592 59.6835 89.35 60.8007 87.1907 61.3941C85.0313 61.9874 82.8196 62.0025 80.6969 61.4499C82.2393 59.8904 84.1485 58.7734 86.3077 58.1802Z" fill="#C0A67B"/>
</svg>
