<svg width="50" height="50" viewBox="0 0 50 50" fill="none" xmlns="http://www.w3.org/2000/svg">
<g clip-path="url(#clip0_288_668)">
<path d="M47.2784 12.2345H43.4805C42.824 12.2345 42.273 12.6883 42.1207 13.2983H40.0579C39.416 13.2983 38.817 13.1802 38.2775 12.9472C37.4851 12.605 36.6456 12.4315 35.7825 12.4315H28.203C27.0949 12.4315 26.1869 13.2816 26.136 14.3668C26.1247 14.604 26.1537 14.836 26.22 15.0555C25.2607 15.1997 24.5164 15.9877 24.4703 16.9672C24.4595 17.1959 24.486 17.4198 24.5475 17.6323C23.4901 17.6405 22.5927 18.4684 22.5337 19.5497C22.4899 19.4215 22.4333 19.2954 22.3629 19.1734L19.2599 13.7989L20.2219 14.0284C20.7872 14.163 21.3912 14.0589 21.8786 13.7417C23.2104 12.8752 23.1594 10.9081 21.6736 10.3645L20.8078 10.0479C20.3786 9.8909 19.9931 9.66668 19.6621 9.38152C19.0254 8.83288 17.9643 8.12369 16.5248 7.8609C16.0324 7.77105 15.6081 7.47369 15.3606 7.04507L14.5713 5.67786C15.0232 5.24094 15.1409 4.53693 14.8128 3.96847C14.8127 3.96847 14.8127 3.96837 14.8127 3.96837L12.9136 0.679366C12.5388 0.0303346 11.7058 -0.19291 11.0569 0.181801L2.0425 5.38626C1.39347 5.76097 1.17042 6.59399 1.54513 7.24302L3.44398 10.532C3.77504 11.1055 4.4439 11.3529 5.04586 11.179L6.07653 12.9641C6.39753 13.5201 6.5948 14.098 6.66277 14.6816C6.76258 15.5391 7.03201 16.3529 7.46356 17.1003L11.2534 23.6644C11.8074 24.6239 12.9976 24.985 13.963 24.4868C14.1739 24.3779 14.3603 24.2368 14.5173 24.0696C15.1216 24.8283 16.1764 25.079 17.0478 24.6291C17.2512 24.524 17.4318 24.389 17.5852 24.2297C18.0662 25.048 19.0741 25.4447 20.0029 25.1204C19.9539 25.1861 19.9073 25.2541 19.8653 25.3268L16.7623 30.7015L16.4801 29.7536C16.1325 28.5864 14.8745 27.9462 13.7258 28.3533C12.913 28.6416 12.4317 29.4722 12.5813 30.3284L12.7399 31.2366C12.8185 31.6867 12.817 32.1326 12.7356 32.5619C12.5789 33.3877 12.4952 34.6613 12.9873 36.0393C13.1557 36.5107 13.1103 37.0268 12.8629 37.4554L12.0738 38.8222C11.4619 38.6456 10.7992 38.9023 10.4725 39.4683L8.57363 42.7573C8.19804 43.4078 8.42041 44.2385 9.0712 44.6141L18.0854 49.8184C18.735 50.1933 19.5676 49.9695 19.9421 49.3209L21.8412 46.0318C22.1692 45.4633 22.0517 44.7592 21.5997 44.3224L22.6311 42.5359C22.952 41.98 23.3538 41.5203 23.8254 41.1695C24.5182 40.6542 25.0882 40.0139 25.5195 39.2666L26.5422 37.4953C26.7445 37.145 26.6244 36.6971 26.2741 36.4948C25.9235 36.2925 25.4757 36.4126 25.2736 36.7629L24.251 38.5342C23.9199 39.1076 23.4827 39.5988 22.951 39.9942C22.3183 40.4648 21.7838 41.0736 21.3625 41.8035L20.3526 43.5524L13.3638 39.5174L14.1316 38.1877C14.5944 37.3862 14.6802 36.4234 14.367 35.5465C13.9854 34.4783 14.0518 33.4824 14.1748 32.8349C14.2893 32.2316 14.2921 31.609 14.183 30.9844L14.0243 30.0761C13.9985 29.9287 14.0807 29.7817 14.2155 29.7338C14.5763 29.6062 14.9674 29.8067 15.0762 30.1716L15.6299 32.0314C15.7504 32.4358 16.0991 32.729 16.5183 32.7781C16.9357 32.8271 17.3442 32.6231 17.5553 32.2577L21.134 26.0592C21.2937 25.7829 21.6389 25.6694 21.9031 25.8058C22.1955 25.9568 22.2965 26.316 22.136 26.5947C22.1359 26.5948 22.1358 26.5949 22.1358 26.5951L18.8802 32.234C18.678 32.5843 18.798 33.0323 19.1483 33.2345C19.4991 33.437 19.9468 33.3164 20.1488 32.9665C23.8015 26.6396 22.1784 29.4509 24.3548 25.6814C24.5143 25.4052 24.8596 25.2917 25.1238 25.4282C25.4148 25.5783 25.5184 25.9372 25.3565 26.2174C25.0533 26.7425 21.7453 32.4724 21.1322 33.5343C20.9299 33.8845 21.05 34.3325 21.4002 34.5348C21.751 34.7372 22.1988 34.6166 22.4008 34.2667L25.6564 28.6278C25.8187 28.3467 26.1817 28.2583 26.4562 28.4347C26.7068 28.5955 26.7808 28.9511 26.6213 29.2273L25.8083 30.6354C25.8071 30.6375 23.3853 34.8322 23.3842 34.8344C23.1819 35.1847 23.3019 35.6326 23.6522 35.8349C24.003 36.0373 24.4508 35.9167 24.6527 35.5668L27.0755 31.3704C27.2372 31.0904 27.5995 31.0002 27.8753 31.1773C28.1259 31.3381 28.2 31.6937 28.0406 31.9699L26.983 33.8016C26.7808 34.1519 26.9008 34.5999 27.2511 34.8021C27.6015 35.0044 28.0494 34.8843 28.2516 34.5341L29.3091 32.7023C29.8632 31.7427 29.5809 30.5314 28.6665 29.9445C28.4667 29.8162 28.2513 29.7253 28.0281 29.6731C28.383 28.7701 28.0727 27.7315 27.2475 27.2019C27.0547 27.0781 26.8475 26.9892 26.6327 26.9361C27.1574 26.0105 26.8856 24.8023 25.9461 24.2138C26.1335 24.2683 26.3319 24.2978 26.5372 24.2978H32.7433L32.0636 25.0161C31.2264 25.9008 31.3011 27.3105 32.228 28.1016C32.8843 28.6614 33.8444 28.6624 34.5108 28.1052L35.2178 27.5137C35.5683 27.2206 35.9552 26.9989 36.3676 26.8548C37.1612 26.5777 38.306 26.0134 39.2533 24.898C39.5773 24.5165 40.0471 24.2977 40.5419 24.2977H42.1206C42.273 24.9077 42.8239 25.3615 43.4804 25.3615H47.2783C48.0278 25.3615 48.6375 24.7517 48.6375 24.0023V20.2308C48.6375 19.8263 48.3097 19.4983 47.9051 19.4983C47.5005 19.4983 47.1726 19.8263 47.1726 20.2308V23.8968H43.5423C43.5423 22.6708 43.5423 14.9197 43.5423 13.6993H47.1726V16.813C47.1726 17.2175 47.5005 17.5454 47.9051 17.5454C48.3097 17.5454 48.6375 17.2175 48.6375 16.813V13.5938C48.6376 12.8443 48.0279 12.2345 47.2784 12.2345ZM18.7263 48.4968L9.89504 43.3981L11.7102 40.2543C13.2134 41.1221 19.7649 44.9047 20.5415 45.3529L18.7263 48.4968ZM2.86663 6.602L11.6979 1.5033L13.5131 4.64719C13.4813 4.66555 4.78091 9.68875 4.68179 9.74588L2.86663 6.602ZM19.6459 23.6767C19.3703 23.8536 19.0079 23.764 18.846 23.4836C17.3168 20.8349 15.9379 18.4466 14.6216 16.1668C14.4192 15.8165 13.9713 15.6965 13.6211 15.8987C13.2708 16.1009 13.1507 16.5489 13.353 16.8992L16.6087 22.5381L16.6094 22.5393C16.7697 22.8184 16.6674 23.1769 16.3759 23.3273C16.1117 23.4639 15.7664 23.3503 15.6069 23.0741C14.1864 20.6138 14.9545 21.9442 12.3697 17.467C12.1675 17.1166 11.7194 16.9967 11.3692 17.1989C11.0189 17.4011 10.8989 17.8491 11.1011 18.1994L13.5236 22.3954C13.5237 22.3955 13.5237 22.3957 13.5238 22.3958L13.5248 22.3976C13.6848 22.6766 13.5824 23.0346 13.2911 23.185C13.0268 23.3218 12.6816 23.2081 12.522 22.9318L8.73223 16.3676C8.40107 15.7943 8.19443 15.17 8.11777 14.5121C8.02656 13.7288 7.76659 12.9616 7.3452 12.2316L6.33532 10.4826L13.3241 6.4477L14.0919 7.7775C14.5547 8.57907 15.3455 9.13464 16.2616 9.30183C17.3774 9.50555 18.2067 10.061 18.7058 10.4912C19.171 10.892 19.7088 11.2057 20.3043 11.4236L21.1702 11.7402C21.5056 11.8629 21.3866 12.3141 21.0794 12.5139C20.9248 12.6144 20.741 12.6462 20.5616 12.6034L18.6742 12.1531C17.7741 11.9389 17.0536 12.9073 17.5154 13.7074L21.0942 19.9058C21.2537 20.182 21.1795 20.5376 20.929 20.6985C20.6535 20.8751 20.2912 20.786 20.1292 20.5054L16.8735 14.8665C16.6712 14.5162 16.2232 14.396 15.873 14.5984C15.5227 14.8006 15.4027 15.2486 15.605 15.5989C19.8461 22.9447 18.8319 21.1879 19.811 22.8839C19.9705 23.1604 19.8964 23.516 19.6459 23.6767ZM23.1128 24.9043C22.9594 24.7446 22.7786 24.6094 22.575 24.5044C22.0617 24.2394 21.4855 24.2196 20.9745 24.4013C21.4274 23.7781 21.5002 22.9212 21.1051 22.1972C21.32 22.1442 21.5274 22.0551 21.7203 21.9314C22.2869 21.5677 22.6101 20.964 22.6426 20.3292C22.9169 21.114 23.6645 21.6756 24.5477 21.697C24.4861 21.9097 24.4595 22.1338 24.4703 22.3626C24.5024 23.0462 24.875 23.6361 25.4231 23.9794C24.5574 23.7333 23.6056 24.0965 23.1128 24.9043ZM38.1371 23.95C37.4027 24.8145 36.5071 25.2549 35.8849 25.472C35.305 25.6746 34.7644 25.9835 34.278 26.3903L33.571 26.9818C33.4561 27.0778 33.2875 27.0803 33.1789 26.9875C32.889 26.7402 32.8649 26.301 33.1276 26.0231L34.4612 24.6139C35.0973 23.942 34.6181 22.8331 33.6947 22.8331H26.5373C26.2184 22.8331 25.9475 22.5912 25.9334 22.2938C25.9182 21.966 26.1776 21.6977 26.5006 21.6977H33.0118C33.4164 21.6977 33.7442 21.3698 33.7442 20.9653C33.7442 20.5608 33.4164 20.2328 33.0118 20.2328C32.0009 20.2328 25.6079 20.2328 24.5998 20.2328C24.2808 20.2328 24.0099 19.9908 23.9959 19.6936C23.9804 19.3647 24.241 19.0974 24.563 19.0974H33.0118C33.4164 19.0974 33.7442 18.7694 33.7442 18.3649C33.7442 17.9604 33.4164 17.6325 33.0118 17.6325H26.5006C26.1782 17.6325 25.9181 17.3647 25.9335 17.0363C25.9475 16.7389 26.2184 16.497 26.5373 16.497H33.0118C33.4164 16.497 33.7442 16.1691 33.7442 15.7646C33.7442 15.3601 33.4164 15.0322 33.0118 15.0322H28.1662C28.1661 15.0322 28.166 15.0322 28.166 15.0322C27.8444 15.0319 27.5837 14.7651 27.5992 14.436C27.6132 14.1385 27.8841 13.8966 28.2031 13.8966H35.7825C36.4448 13.8966 37.0888 14.0297 37.6968 14.2923C38.4208 14.605 39.2152 14.7635 40.0581 14.7635H42.0777V22.8334H40.5422C39.6165 22.8331 38.7399 23.2402 38.1371 23.95Z" fill="#C0A67B"/>
</g>
<defs>
<clipPath id="clip0_288_668">
<rect width="50" height="50" fill="white"/>
</clipPath>
</defs>
</svg>
