<svg width="50" height="50" viewBox="0 0 50 50" fill="none" xmlns="http://www.w3.org/2000/svg">
<g clip-path="url(#clip0_288_621)">
<path d="M28.1711 19.6073C28.4701 19.8786 28.4949 20.3409 28.2237 20.6398C27.9552 20.9416 27.4928 20.9665 27.191 20.6951C27.1884 20.6924 26.6236 20.1719 25.6465 20.0224V24.9637C25.9564 25.0828 26.2887 25.2046 26.6375 25.3292C27.9912 25.8081 28.8078 26.7217 29.1677 27.7736C29.3975 28.4463 29.4334 29.1688 29.3006 29.8691C29.1703 30.5612 28.8714 31.2283 28.4313 31.8014C27.7863 32.6374 26.834 33.2685 25.6464 33.4595V34.7578C25.6464 35.162 25.3196 35.4914 24.9155 35.4914C24.5114 35.4914 24.1819 35.1619 24.1819 34.7578V33.5121C23.7086 33.4955 23.2988 33.4512 22.8892 33.3516C22.269 33.1966 21.6905 32.9253 20.9515 32.4436C20.6137 32.2221 20.5196 31.7681 20.741 31.4303C20.9625 31.0926 21.4138 30.9985 21.7542 31.2172C22.3494 31.6075 22.7923 31.8207 23.238 31.9314C23.5259 32.0034 23.8277 32.0366 24.182 32.0505V25.9465C24.0686 25.8967 23.9605 25.8468 23.8526 25.7998C22.6927 25.2627 21.555 24.6482 21.1619 23.3443C20.9958 22.7963 20.9736 22.1872 21.0899 21.5975C21.3529 20.266 22.2748 19.1476 23.5952 18.7517C23.7946 18.6908 23.9911 18.6438 24.1821 18.6078V17.4313C24.1821 17.0271 24.5116 16.7006 24.9157 16.7006C25.3198 16.7006 25.6466 17.0272 25.6466 17.4313V18.5524C27.2133 18.7269 28.1655 19.6045 28.1711 19.6073ZM36.3567 41.673C36.7498 41.7533 37.0073 42.1382 36.9271 42.534C36.8496 42.927 36.4648 43.1845 36.069 43.1043L32.7968 42.4398C32.4037 42.3624 32.1462 41.9775 32.2265 41.5816L32.8908 38.3096C32.9685 37.9166 33.3532 37.6591 33.7492 37.7393C34.145 37.8169 34.3996 38.2016 34.3222 38.5975L33.9762 40.2945C36.1824 38.8966 38.0398 37.0003 39.3936 34.758C40.9189 32.2306 41.7964 29.2658 41.7964 26.0961C41.7964 21.4565 39.9141 17.2598 36.8772 14.2203C33.8377 11.1806 29.6382 9.30105 24.9986 9.30105C20.3618 9.30105 16.1624 11.1806 13.1229 14.2203C10.0861 17.2597 8.20371 21.4565 8.20371 26.0961C8.20371 26.5003 7.87705 26.8269 7.47295 26.8269C7.06875 26.8269 6.73936 26.5003 6.73936 26.0961C6.73936 21.0524 8.78506 16.4875 12.0876 13.185C15.3929 9.87966 19.9577 7.83669 24.9987 7.83669C30.0425 7.83669 34.6074 9.87966 37.9127 13.185C41.2151 16.4876 43.261 21.0524 43.261 26.0961C43.261 29.5398 42.3059 32.7621 40.6449 35.5137C39.2223 37.8751 37.2761 39.8876 34.9701 41.3934L36.3567 41.673ZM27.742 4.96042C28.0078 5.26491 27.9772 5.72995 27.6728 5.99294C27.3655 6.25876 26.9031 6.22829 26.6374 5.9238L24.4478 3.40466C24.1819 3.10017 24.2152 2.63513 24.5197 2.37214L27.0388 0.17966C27.3434 -0.0860624 27.8056 -0.0528593 28.0715 0.251633C28.3372 0.556125 28.304 1.01843 27.9994 1.28415L26.8699 2.26697C32.7636 2.72097 38.0564 5.31482 41.9763 9.26784C46.2589 13.589 48.9052 19.5353 48.9052 26.0961C48.9052 32.6957 46.2284 38.6722 41.9043 42.9991C37.5776 47.3259 31.6009 50 24.9986 50C18.3991 50 12.4225 47.3259 8.0957 42.999C3.77168 38.6722 1.09473 32.6956 1.09473 26.096C1.09473 25.6919 1.42412 25.3624 1.82832 25.3624C2.23252 25.3624 2.55918 25.6919 2.55918 26.096C2.55918 32.2914 5.07275 37.9026 9.13379 41.9636C13.1921 46.0247 18.8033 48.5355 24.9986 48.5355C31.1967 48.5355 36.808 46.0247 40.8664 41.9636C44.9274 37.9026 47.4409 32.2914 47.4409 26.096C47.4409 19.9311 44.9577 14.3503 40.9383 10.2976C37.2344 6.56052 32.2294 4.11882 26.6567 3.71189L27.742 4.96042ZM33.9069 19.3858C33.6634 19.0647 33.7271 18.6052 34.051 18.3616C34.372 18.1179 34.8315 18.1816 35.0752 18.5055C35.8833 19.5768 36.5257 20.7865 36.9631 22.0932C37.3865 23.3555 37.6163 24.701 37.6163 26.0961C37.6163 29.5786 36.2017 32.7316 33.9206 35.0154C31.6368 37.2992 28.4838 38.711 24.9985 38.711C23.6062 38.711 22.2607 38.4812 20.9984 38.0604C19.6918 37.623 18.482 36.9808 17.4079 36.1697C17.0868 35.9261 17.0231 35.4693 17.2667 35.1455C17.5104 34.8244 17.9671 34.7607 18.291 35.0015C19.2433 35.7213 20.3118 36.2915 21.4607 36.6735C22.568 37.0444 23.7584 37.2466 24.9985 37.2466C28.0796 37.2466 30.8672 35.998 32.8852 33.9801C34.9034 31.962 36.1491 29.1743 36.1491 26.0961C36.1491 24.8531 35.9498 23.6628 35.5788 22.5554C35.1942 21.4066 34.6267 20.3381 33.9069 19.3858ZM16.0932 32.8063C16.3367 33.1274 16.273 33.587 15.9492 33.8305C15.6281 34.0742 15.1686 34.0077 14.9249 33.6866C14.1166 32.6125 13.4716 31.4055 13.037 30.0989C12.6134 28.8366 12.3837 27.4885 12.3837 26.096C12.3837 22.6108 13.7955 19.4577 16.0794 17.1766C18.3632 14.8928 21.5162 13.481 24.9986 13.481C26.3939 13.481 27.7392 13.7081 29.0016 14.1316C30.3081 14.569 31.518 15.2112 32.592 16.0223C32.9132 16.2632 32.9768 16.7227 32.7331 17.0466C32.4896 17.3677 32.0327 17.4313 31.7089 17.1878C30.7567 16.4708 29.6881 15.9006 28.5393 15.5157C27.4319 15.1448 26.2416 14.9455 24.9987 14.9455C21.9204 14.9455 19.1328 16.194 17.1147 18.212C15.0966 20.2301 13.851 23.0177 13.851 26.096C13.851 27.3389 14.0503 28.5265 14.4213 29.6339C14.806 30.7855 15.3734 31.854 16.0932 32.8063ZM24.182 20.1055C23.2906 20.3353 22.7038 20.9748 22.5266 21.8773C22.4546 22.2399 22.4656 22.6053 22.5626 22.9264C22.7813 23.6545 23.5397 24.0199 24.182 24.3355V20.1055ZM26.1502 26.7079C25.9787 26.6469 25.8098 26.586 25.6465 26.5252V31.9703C26.3329 31.8014 26.8866 31.411 27.2742 30.9099C27.576 30.5197 27.7753 30.0684 27.8639 29.6006C27.9525 29.141 27.9303 28.6731 27.7835 28.244C27.562 27.5909 27.0361 27.0207 26.1502 26.7079Z" fill="#C0A67B"/>
</g>
<defs>
<clipPath id="clip0_288_621">
<rect width="50" height="50" fill="white"/>
</clipPath>
</defs>
</svg>
