<svg width="50" height="50" viewBox="0 0 50 50" fill="none" xmlns="http://www.w3.org/2000/svg">
<path d="M50 9.71908C50 8.29468 48.8415 7.13615 47.4171 7.13615H33.5186V3.15552C33.5186 1.41563 32.103 0 30.3631 0H19.6369C17.897 0 16.4814 1.41563 16.4814 3.15552V7.13615H2.58293C1.15852 7.13615 0 8.29468 0 9.71908V13.6086C0 15.2897 0.43602 16.8713 1.20087 18.2457V37.3535C1.20087 39.5176 2.96135 41.2785 5.12581 41.2785H44.8742C47.0383 41.2785 48.7991 39.5176 48.7991 37.3535V18.2457C49.564 16.8713 50 15.2897 50 13.6086V9.71908ZM17.9462 3.15552C17.9462 2.22321 18.7046 1.46484 19.6369 1.46484H30.3631C31.2954 1.46484 32.0538 2.22321 32.0538 3.15552V7.13615H17.9462V3.15552ZM47.3343 37.3539C47.3343 38.71 46.2307 39.8136 44.8742 39.8136H5.12581C3.7693 39.8136 2.66571 38.71 2.66571 37.3539V20.2278C4.40788 22.0432 6.85768 23.1754 9.56688 23.1754H16.8274C17.2318 23.1754 17.5598 22.8474 17.5598 22.443C17.5598 22.0383 17.2318 21.7106 16.8274 21.7106H9.56688C5.09949 21.7102 1.46484 18.0759 1.46484 13.6086V9.71908C1.46484 9.10263 1.96648 8.601 2.58293 8.601H47.4171C48.0335 8.601 48.5352 9.10263 48.5352 9.71908V13.6086C48.5352 18.0759 44.9005 21.7102 40.4331 21.7102H33.1779C32.7732 21.7102 32.4455 22.0383 32.4455 22.4426C32.4455 22.8474 32.7732 23.175 33.1779 23.175H40.4331C43.1423 23.175 45.5921 22.0432 47.3343 20.2274V37.3539Z" fill="#C0A67B"/>
<path d="M28.8305 19.6262H21.1694C19.9865 19.6262 19.0244 20.5883 19.0244 21.7708V23.5073C19.0244 24.6902 19.9865 25.6523 21.1694 25.6523H28.8305C30.013 25.6523 30.9751 24.6898 30.9751 23.5073V21.7708C30.9751 20.5883 30.013 19.6262 28.8305 19.6262ZM29.5103 23.5073C29.5103 23.8823 29.2055 24.1875 28.8305 24.1875H21.1694C20.7944 24.1875 20.4893 23.8823 20.4893 23.5073V21.7708C20.4893 21.3959 20.7944 21.0907 21.1694 21.0907H28.8305C29.2055 21.0907 29.5103 21.3959 29.5103 21.7708V23.5073Z" fill="#C0A67B"/>
</svg>
