<svg width="50" height="50" viewBox="0 0 50 50" fill="none" xmlns="http://www.w3.org/2000/svg">
<g clip-path="url(#clip0_288_628)">
<path d="M49.9988 17.3864V15.1846C49.9958 14.9602 49.8892 14.7055 49.6508 14.5612L26.9198 0.54745C25.7359 -0.182483 24.2649 -0.182483 23.081 0.54745L0.350066 14.5612C0.160723 14.6816 -0.000204112 14.9059 0.00204184 15.1846V17.3863C-0.0115315 19.1087 1.53446 20.5012 3.2698 20.3204C3.05419 20.7171 2.93154 21.1715 2.93154 21.6541C2.93154 23.2407 4.2712 24.5294 5.86104 24.4525V33.6373C5.86104 34.0418 6.18895 34.3697 6.59342 34.3697C6.99788 34.3697 7.32579 34.0418 7.32579 33.6373V24.4525H11.7445V41.4675H7.32579V37.055C7.32579 36.6506 6.99788 36.3227 6.59342 36.3227C6.18895 36.3227 5.86104 36.6506 5.86104 37.055V41.4675C4.27794 41.4174 2.93154 42.6568 2.93154 44.2659C2.93154 44.7485 3.05419 45.2029 3.2698 45.5996H1.71092C0.768692 45.5996 0.00204184 46.3671 0.00204184 47.3105V48.2891C0.00204184 49.2325 0.768692 50 1.71092 50H48.29C49.2322 50 49.9988 49.2325 49.9988 48.2891V47.3105C49.9988 46.3671 49.2322 45.5996 48.29 45.5996H46.7311C46.9467 45.203 47.0693 44.7485 47.0693 44.2659C47.0693 42.6662 45.7291 41.3996 44.1398 41.4675V24.4526C45.7133 24.5022 47.0693 23.2643 47.0693 21.6542C47.0693 21.1716 46.9467 20.7171 46.7311 20.3205C48.4269 20.4241 50.0116 19.1822 49.9988 17.3864ZM5.7257 22.9879C4.99264 22.9879 4.39629 22.3896 4.39629 21.6542C4.39629 20.9188 4.99264 20.3205 5.7257 20.3205H13.3447C14.0778 20.3205 14.6741 20.9188 14.6741 21.6542C14.6741 22.3896 14.0778 22.9879 13.3447 22.9879H5.7257ZM15.8006 20.3205H18.7351C18.5195 20.7172 18.3969 21.1716 18.3969 21.6542C18.3969 23.2408 19.7365 24.5295 21.3264 24.4526V41.4676C19.7436 41.4179 18.3969 42.6565 18.3969 44.266C18.3969 44.7486 18.5195 45.203 18.7351 45.5997H15.8006C16.0162 45.2031 16.1389 44.7486 16.1389 44.266C16.1389 42.6664 14.7987 41.3997 13.2094 41.4676V24.4526C14.7835 24.5022 16.1389 23.2643 16.1389 21.6542C16.1389 21.1716 16.0162 20.7171 15.8006 20.3205ZM31.2659 20.3205H34.2003C33.9847 20.7172 33.8621 21.1716 33.8621 21.6542C33.8621 23.2408 35.2017 24.5295 36.7916 24.4526V41.4676C35.2093 41.4185 33.8621 42.6562 33.8621 44.266C33.8621 44.7486 33.9847 45.203 34.2003 45.5997H31.2659C31.4815 45.2031 31.6041 44.7486 31.6041 44.266C31.6041 42.6663 30.2639 41.3997 28.6746 41.4676V24.4526C30.2483 24.5023 31.6041 23.2643 31.6041 21.6542C31.6041 21.1716 31.4815 20.7171 31.2659 20.3205ZM28.8101 42.9322C29.543 42.9322 30.1394 43.5305 30.1394 44.2659C30.1394 45.0013 29.543 45.5996 28.8101 45.5996H21.191C20.4581 45.5996 19.8617 45.0013 19.8617 44.2659C19.8617 43.5305 20.4581 42.9322 21.191 42.9322H28.8101ZM22.7911 41.4675V24.4526H27.2099V41.4676H22.7911V41.4675ZM28.8101 22.9879H21.191C20.4581 22.9879 19.8617 22.3896 19.8617 21.6542C19.8617 20.9188 20.4581 20.3205 21.191 20.3205H28.8101C29.543 20.3205 30.1394 20.9188 30.1394 21.6542C30.1394 22.3896 29.543 22.9879 28.8101 22.9879ZM5.7257 42.9322H13.3447C14.0778 42.9322 14.6741 43.5305 14.6741 44.2659C14.6741 45.0013 14.0778 45.5996 13.3447 45.5996H5.7257C4.99264 45.5996 4.39629 45.0013 4.39629 44.2659C4.39629 43.5305 4.99264 42.9322 5.7257 42.9322ZM48.29 47.0644C48.4245 47.0644 48.5341 47.1748 48.5341 47.3105V48.2891C48.5341 48.4248 48.4245 48.5353 48.29 48.5353H1.71092C1.57635 48.5353 1.46679 48.4248 1.46679 48.2891V47.3105C1.46679 47.1748 1.57635 47.0644 1.71092 47.0644H48.29ZM44.2753 42.9322C45.0083 42.9322 45.6047 43.5305 45.6047 44.2659C45.6047 45.0013 45.0083 45.5996 44.2753 45.5996H36.6562C35.9232 45.5996 35.3268 45.0013 35.3268 44.2659C35.3268 43.5305 35.9232 42.9322 36.6562 42.9322H44.2753ZM38.2563 41.4675V24.4526H42.6751V41.4676H38.2563V41.4675ZM44.2753 22.9879H36.6562C35.9232 22.9879 35.3268 22.3896 35.3268 21.6542C35.3268 20.9188 35.9232 20.3205 36.6562 20.3205H44.2753C45.0083 20.3205 45.6047 20.9188 45.6047 21.6542C45.6046 22.3896 45.0082 22.9879 44.2753 22.9879ZM2.93154 18.8557C2.12388 18.8557 1.46679 18.1966 1.46679 17.3864V15.917H35.3035C35.708 15.917 36.0359 15.5891 36.0359 15.1846C36.0359 14.7801 35.708 14.4522 35.3035 14.4522H3.31794L23.8498 1.79434C24.5596 1.35677 25.4414 1.35677 26.1511 1.79434L46.6829 14.4522H38.7212C38.3168 14.4522 37.9889 14.7801 37.9889 15.1846C37.9889 15.5891 38.3168 15.917 38.7212 15.917H48.5341V17.3863C48.5341 18.1965 47.877 18.8556 47.0693 18.8556H2.93154V18.8557ZM24.3212 6.10217H26.6986C27.103 6.10217 27.4309 5.77426 27.4309 5.36979C27.4309 4.96533 27.103 4.63742 26.6986 4.63742H25.7328V4.09038C25.7328 3.68592 25.4049 3.35801 25.0004 3.35801C24.596 3.35801 24.2681 3.68592 24.2681 4.09038V4.64025C23.3271 4.67082 22.5699 5.50045 22.5699 6.51835V7.28403C22.5699 7.77013 22.7414 8.23123 23.0528 8.58218C23.3814 8.95257 23.8437 9.16506 24.3212 9.16496H25.6796C25.8151 9.16496 25.9661 9.33585 25.9661 9.58124V10.347C25.9661 10.5923 25.8151 10.7633 25.6796 10.7633H23.3022C22.8977 10.7633 22.5698 11.0912 22.5698 11.4957C22.5698 11.9001 22.8977 12.228 23.3022 12.228H24.268V12.7751C24.268 13.1795 24.5959 13.5075 25.0003 13.5075C25.4048 13.5075 25.7327 13.1795 25.7327 12.7751V12.2252C26.6737 12.1946 27.4308 11.365 27.4308 10.3471V9.58134C27.4308 8.5441 26.6453 7.70031 25.6795 7.70031H24.3211C24.1205 7.69455 24.0364 7.45687 24.0346 7.28403V6.51835C24.0348 6.27306 24.1857 6.10217 24.3212 6.10217Z" fill="#C0A67B"/>
</g>
<defs>
<clipPath id="clip0_288_628">
<rect width="50" height="50" fill="white"/>
</clipPath>
</defs>
</svg>
