<svg width="50" height="50" viewBox="0 0 50 50" fill="none" xmlns="http://www.w3.org/2000/svg">
<path d="M38.898 47.0159C39.3026 47.0159 39.6304 46.6881 39.6304 46.2835V45.8343C40.8733 45.5636 41.8398 44.601 42.0858 43.3103C42.3212 42.0742 41.8084 40.5303 40.1253 39.8648C39.9564 39.798 39.792 39.7332 39.6305 39.6719V36.074C40.1509 36.2897 40.4066 36.7072 40.5069 36.9211C40.6785 37.2873 41.1148 37.4451 41.481 37.2731C41.8472 37.1014 42.0048 36.6652 41.8331 36.299C41.3998 35.3751 40.603 34.7524 39.6305 34.547V34.1001C39.6305 33.6955 39.3027 33.3677 38.8981 33.3677C38.4935 33.3677 38.1657 33.6955 38.1657 34.1001V34.5546C36.9335 34.8319 35.977 35.7904 35.7326 37.0733C35.4971 38.3094 36.0099 39.8533 37.6914 40.5181C37.8533 40.582 38.0107 40.6441 38.1657 40.7032V44.2992C37.9368 44.2002 37.7658 44.0661 37.6454 43.9442C37.3194 43.6142 37.1358 43.1588 37.1417 42.695C37.1468 42.2905 36.823 41.9585 36.4186 41.9534C36.4155 41.9533 36.4124 41.9533 36.4091 41.9533C36.0089 41.9533 35.6821 42.2752 35.677 42.6765C35.6663 43.5293 36.0038 44.3665 36.6031 44.9734C37.0292 45.4049 37.5684 45.6972 38.1657 45.8297V46.2833C38.1656 46.6881 38.4935 47.0159 38.898 47.0159ZM40.6468 43.036C40.5489 43.5503 40.2055 44.0667 39.6305 44.3068V41.2461C40.5559 41.6312 40.7642 42.4197 40.6468 43.036ZM37.1715 37.3477C37.2682 36.8401 37.6042 36.3308 38.1657 36.0866V39.1276C37.2595 38.7394 37.0549 37.959 37.1715 37.3477Z" fill="#C0A67B"/>
<path d="M49.2676 43.7012C49.6722 43.7012 50 43.3733 50 42.9688V41.4746C50 38.5113 48.8462 35.7263 46.7514 33.6326C45.785 32.6657 44.6711 31.8998 43.4607 31.3548C43.3164 30.3556 42.8548 29.4662 42.1826 28.7868L43.2085 26.9719C43.5666 26.3397 43.5901 25.5728 43.2716 24.9198C42.9529 24.2667 42.3335 23.8131 41.6146 23.7062C41.5345 23.6942 41.4578 23.6697 41.3853 23.6325C41.3162 23.5973 41.2497 23.5479 41.1937 23.4902L40.4911 22.767C40.0725 22.3362 39.5108 22.0989 38.9099 22.0989C38.309 22.0989 37.7474 22.3362 37.3285 22.7672L36.6258 23.4906C36.5139 23.6061 36.3644 23.6825 36.2045 23.7062C35.1147 23.8681 34.3238 24.7859 34.3238 25.8888C34.3238 26.2661 34.423 26.6406 34.6101 26.9713L35.6363 28.7868C34.9626 29.4678 34.5002 30.3597 34.357 31.3617C33.2148 31.878 32.1752 32.5824 31.2776 33.435C30.3167 32.3396 29.0406 31.5666 27.6061 31.2281L20.504 29.5502V27.2784C22.968 25.9287 24.6792 23.3698 24.833 20.4054H25.6905C27.3999 20.4054 28.7905 19.0147 28.7905 17.3054C28.7905 15.9936 27.9711 14.8703 26.8175 14.4185V10.3014C26.8175 4.62109 22.1964 0 16.5162 0C10.836 0 6.21494 4.62109 6.21494 10.3013V14.4184C5.06133 14.8702 4.24189 15.9936 4.24189 17.3053C4.24189 19.0146 5.63252 20.4053 7.34189 20.4053H8.19941C8.35322 23.3697 10.0645 25.9286 12.5284 27.2783V29.5503L5.42666 31.2285C2.23154 31.9818 0 34.8014 0 38.085V42.9688C0 43.3733 0.327832 43.7012 0.732422 43.7012C1.13701 43.7012 1.46484 43.3733 1.46484 42.9688V38.085C1.46484 35.4841 3.23223 33.2509 5.76318 32.6542L8.95254 31.9006L6.93447 38.8414C6.87148 39.0579 6.91191 39.2912 7.04365 39.4741L9.76641 43.2513L8.89102 45.4089C8.80088 45.631 8.8252 45.8831 8.95605 46.084L10.5531 48.5352H1.71875C1.57871 48.5352 1.46484 48.4213 1.46484 48.2812V46.3867C1.46484 45.9821 1.13701 45.6543 0.732422 45.6543C0.327832 45.6543 0 45.9821 0 46.3867V48.2812C0 49.2289 0.771094 50 1.71875 50H47.2949C48.7864 50 50 48.7864 50 47.2949V46.3867C50 45.9821 49.6722 45.6543 49.2676 45.6543C48.863 45.6543 48.5352 45.9821 48.5352 46.3867V47.2949C48.5352 47.9788 47.9788 48.5352 47.2949 48.5352H30.5244C29.8405 48.5352 29.2842 47.9788 29.2842 47.2949V46.3867C29.2842 45.9821 28.9563 45.6543 28.5518 45.6543C28.1472 45.6543 27.8193 45.9821 27.8193 46.3867V47.2949C27.8193 47.7418 27.9289 48.1634 28.1217 48.5352H22.4794L24.0764 46.0839C24.2072 45.883 24.2315 45.6309 24.1414 45.4088L23.266 43.2512L25.9888 39.474C26.1206 39.2911 26.1609 39.0577 26.0979 38.8413L24.0798 31.9002L27.2693 32.6538C28.4563 32.9339 29.5069 33.5888 30.2783 34.5188C28.7412 36.4227 27.8193 38.8428 27.8193 41.4746V42.9688C27.8193 43.3733 28.1472 43.7012 28.5518 43.7012C28.9563 43.7012 29.2842 43.3733 29.2842 42.9688V41.4746C29.2842 36.1668 33.602 31.8486 38.9092 31.8486C41.4811 31.8486 43.8981 32.85 45.7156 34.6685C47.5338 36.4856 48.5352 38.9027 48.5352 41.4746V42.9688C48.5352 43.3733 48.863 43.7012 49.2676 43.7012ZM17.0896 37.1787H15.9428L15.0851 35.8521L16.5162 34.421L17.9474 35.8521L17.0896 37.1787ZM13.0318 30.9366L13.7637 31.6685L15.4804 33.3853L12.6444 36.2212L11.7849 31.2313L13.0318 30.9366ZM14.0257 36.9115L14.7847 38.0854L14.0272 44.2489L12.9488 37.9884L14.0257 36.9115ZM16.1921 38.6436H16.8403L18.0559 48.5352H14.9766L16.1921 38.6436ZM18.2477 38.0855L19.0067 36.9115L20.0836 37.9883L19.0051 44.2489L18.2477 38.0855ZM20.388 36.221L17.5521 33.3852L19.2687 31.6684L20.0007 30.9364L21.2475 31.2311L20.388 36.221ZM27.3257 17.3054C27.3257 18.2069 26.5921 18.9405 25.6905 18.9405H24.8445V15.6703H25.6905C26.5922 15.6703 27.3257 16.4038 27.3257 17.3054ZM16.5162 1.46484C21.3887 1.46484 25.3526 5.42891 25.3526 10.3013V14.2055H24.2716L23.2036 11.6424C23.024 11.2115 22.6863 10.8792 22.2527 10.7064C21.8191 10.5339 21.3453 10.5431 20.9189 10.7328L14.7676 13.4668L14.7884 13.4228C15.0082 12.9584 14.8942 12.4213 14.5049 12.0862C14.1151 11.751 13.5672 11.7187 13.1406 12.0055L9.48115 14.4672C9.34678 14.3073 9.14561 14.2056 8.92041 14.2056H7.67979V10.3014C7.67979 5.42891 11.6438 1.46484 16.5162 1.46484ZM5.70674 17.3054C5.70674 16.4038 6.44033 15.6703 7.34189 15.6703H8.18789V18.9405H7.34189C6.44023 18.9405 5.70674 18.2069 5.70674 17.3054ZM9.65273 19.9688V16.117L12.9762 13.8814C12.8846 14.2541 12.9886 14.6482 13.2662 14.9325C13.5989 15.2733 14.0952 15.3686 14.5303 15.1751L21.5139 12.0713C21.5989 12.0334 21.6739 12.0527 21.711 12.0674C21.7481 12.0821 21.8157 12.1198 21.8516 12.2058L23.3797 15.8734V19.9688C23.3797 23.7534 20.3008 26.8324 16.5162 26.8324C12.7316 26.8324 9.65273 23.7534 9.65273 19.9688ZM16.5162 28.2974C17.3955 28.2974 18.2429 28.1594 19.0392 27.9057V29.8263L16.5162 32.3492L13.9933 29.8263V27.9057C14.7896 28.1594 15.6369 28.2974 16.5162 28.2974ZM10.3923 45.6049L11.2761 43.4267C11.3708 43.1932 11.3389 42.9274 11.1915 42.723L8.44082 38.9072L10.4377 32.0396L13.2792 48.5352H12.3014L10.3923 45.6049ZM21.8409 42.723C21.6936 42.9274 21.6616 43.1932 21.7563 43.4267L22.6401 45.6049L20.7311 48.5352H19.7532L22.5948 32.0396L24.5917 38.9072L21.8409 42.723ZM36.4192 25.1553C36.8956 25.0848 37.3424 24.8559 37.677 24.5109L38.3791 23.7881C38.5196 23.6436 38.7081 23.5639 38.91 23.5639C39.1118 23.5639 39.3003 23.6435 39.4407 23.7879L40.1437 24.5115C40.3128 24.6853 40.5064 24.8284 40.7175 24.9363C40.9311 25.046 41.1603 25.1196 41.3992 25.1553C41.644 25.1916 41.8467 25.34 41.9551 25.5623C42.0634 25.7843 42.0558 26.035 41.9336 26.2506L40.9907 27.9187C40.3656 27.6027 39.6587 27.4243 38.9095 27.4243C38.1603 27.4243 37.4533 27.6026 36.8282 27.9186L35.8851 26.2501C35.8211 26.1371 35.7887 26.0155 35.7887 25.8888C35.7887 25.5709 36.0054 25.2168 36.4192 25.1553ZM36.0376 30.7616C36.5221 29.6539 37.6253 28.8893 38.9095 28.8893C40.1921 28.8893 41.2941 29.6521 41.7797 30.7576C40.8549 30.5115 39.892 30.3839 38.9092 30.3839C37.9163 30.3838 36.9539 30.5157 36.0376 30.7616Z" fill="#C0A67B"/>
</svg>
