<svg width="50" height="50" viewBox="0 0 50 50" fill="none" xmlns="http://www.w3.org/2000/svg">
<g clip-path="url(#clip0_288_634)">
<path d="M40.0325 19.869C40.7508 19.869 41.3352 19.2846 41.3352 18.5662V15.6755C41.3352 14.9556 40.7508 14.3699 40.0325 14.3699H33.3085C32.5902 14.3699 32.0059 14.9556 32.0059 15.6755V18.5662C32.0059 19.2846 32.5902 19.869 33.3085 19.869H40.0325ZM33.4707 15.8347H39.8704V18.404H33.4707V15.8347Z" fill="#C0A67B"/>
<path d="M47.673 2.83203H2.32412C1.04258 2.83203 0 3.87822 0 5.16426V41.1633C0 42.4508 1.04258 43.4982 2.32412 43.4982H3.15576V46.0099C3.15576 46.6484 3.67432 47.168 4.31172 47.168H11.6198C12.2572 47.168 12.7758 46.6484 12.7758 46.0099V43.4982H23.6367C24.0412 43.4982 24.3691 43.1703 24.3691 42.7658C24.3691 42.3613 24.0412 42.0334 23.6367 42.0334H12.0434H3.88818H2.32412C1.85029 42.0334 1.46484 41.6431 1.46484 41.1633V5.16426C1.46484 4.68594 1.85029 4.29688 2.32412 4.29688H47.673C48.1484 4.29688 48.5352 4.68594 48.5352 5.16426V41.1633C48.5352 41.6431 48.1484 42.0334 47.673 42.0334H46.6959H38.5407H26.8228C26.4184 42.0334 26.0904 42.3613 26.0904 42.7658C26.0904 43.1703 26.4184 43.4982 26.8228 43.4982H37.8083V46.0099C37.8083 46.6484 38.3269 47.168 38.9643 47.168H46.2724C46.9098 47.168 47.4283 46.6484 47.4283 46.0099V43.4982H47.673C48.9562 43.4982 50 42.4508 50 41.1633V5.16426C50 3.87822 48.9562 2.83203 47.673 2.83203ZM4.62061 43.4982H11.3109V45.7031H4.62061V43.4982ZM45.9635 45.7031H39.2731V43.4982H45.9635V45.7031Z" fill="#C0A67B"/>
<path d="M8.74512 23.0845C8.74512 28.6844 13.3307 33.2403 18.967 33.2403C18.9722 33.2403 18.9773 33.2401 18.9825 33.2401C18.9838 33.2401 18.9851 33.2403 18.9863 33.2403C18.9885 33.2403 18.9905 33.24 18.9927 33.24C21.7601 33.2331 24.2721 32.1273 26.1103 30.3394C26.1456 30.3147 26.1795 30.287 26.2109 30.2554C26.2401 30.2259 26.2656 30.1943 26.2888 30.1614C28.0541 28.3581 29.1524 25.9073 29.1846 23.2061C29.1925 23.1629 29.1972 23.1187 29.1972 23.0734C29.1972 23.0273 29.1924 22.9823 29.1843 22.9386C29.1459 20.2456 28.0484 17.8031 26.2878 16.0045C26.2623 15.9666 26.2332 15.9304 26.1999 15.8968C26.1637 15.8603 26.1245 15.8284 26.0831 15.8012C24.2417 14.0229 21.7311 12.9259 18.9671 12.9259C13.3306 12.9259 8.74512 17.483 8.74512 23.0845ZM19.6994 15.4918V14.4215C21.5614 14.5754 23.2597 15.3106 24.6094 16.4433L23.8574 17.1894C23.5703 17.4742 23.5686 17.9381 23.8534 18.2251C23.9966 18.3695 24.185 18.4416 24.3733 18.4416C24.5599 18.4416 24.7464 18.3708 24.8893 18.2291L25.6493 17.4749C26.7896 18.8124 27.5308 20.4952 27.689 22.3409H26.6184C26.2139 22.3409 25.8859 22.6689 25.8859 23.0734C25.8859 23.4779 26.2139 23.8058 26.6184 23.8058H27.6909C27.5373 25.6531 26.7993 27.338 25.6612 28.6781L24.903 27.9259C24.6159 27.6409 24.1521 27.6427 23.8673 27.9299C23.5824 28.217 23.5842 28.6808 23.8713 28.9656L24.6233 29.7118C23.2761 30.8469 21.5796 31.5846 19.7188 31.7426V30.6742C19.7188 30.2698 19.3908 29.9418 18.9863 29.9418C18.5818 29.9418 18.2539 30.2698 18.2539 30.6742V31.7453C16.3886 31.5952 14.6864 30.8637 13.3333 29.7323L14.0938 28.9762C14.3806 28.6909 14.3818 28.2273 14.0967 27.9404C13.8114 27.6535 13.3479 27.6523 13.0608 27.9374L12.2915 28.7025C11.1453 27.3631 10.4004 25.676 10.2422 23.8251H11.3323C11.7368 23.8251 12.0647 23.4972 12.0647 23.0927C12.0647 22.6882 11.7368 22.3603 11.3323 22.3603H10.2405C10.3951 20.5085 11.1367 18.8199 12.2796 17.4782L13.0502 18.2429C13.1931 18.3847 13.3796 18.4554 13.5661 18.4554C13.7545 18.4554 13.9429 18.3831 14.086 18.2389C14.3709 17.9518 14.3691 17.488 14.082 17.2032L13.3191 16.4461C14.67 15.3116 16.3701 14.5753 18.2345 14.4213V15.4916C18.2345 15.8961 18.5624 16.224 18.9669 16.224C19.3714 16.224 19.6994 15.8963 19.6994 15.4918Z" fill="#C0A67B"/>
<path d="M13.2871 23.0705C13.2871 26.1836 15.8348 28.7163 18.9663 28.7163C22.0979 28.7163 24.6455 26.1836 24.6455 23.0705C24.6455 19.9574 22.0979 17.4247 18.9663 17.4247C15.8348 17.4247 13.2871 19.9574 13.2871 23.0705ZM23.1808 23.0705C23.1808 25.3759 21.2902 27.2514 18.9664 27.2514C16.6426 27.2514 14.752 25.3759 14.752 23.0705C14.752 20.7651 16.6426 18.8895 18.9664 18.8895C21.2902 18.8895 23.1808 20.7651 23.1808 23.0705Z" fill="#C0A67B"/>
<path d="M31.7627 23.5157C31.7627 23.9202 32.0906 24.2482 32.4951 24.2482H40.8469C41.2514 24.2482 41.5793 23.9202 41.5793 23.5157C41.5793 23.1113 41.2514 22.7833 40.8469 22.7833H32.4951C32.0906 22.7833 31.7627 23.1113 31.7627 23.5157Z" fill="#C0A67B"/>
<path d="M32.4951 27.7482H40.8469C41.2514 27.7482 41.5793 27.4202 41.5793 27.0157C41.5793 26.6113 41.2514 26.2833 40.8469 26.2833H32.4951C32.0906 26.2833 31.7627 26.6113 31.7627 27.0157C31.7627 27.4202 32.0906 27.7482 32.4951 27.7482Z" fill="#C0A67B"/>
<path d="M32.4951 31.2482H40.8469C41.2514 31.2482 41.5793 30.9202 41.5793 30.5157C41.5793 30.1113 41.2514 29.7833 40.8469 29.7833H32.4951C32.0906 29.7833 31.7627 30.1113 31.7627 30.5157C31.7627 30.9202 32.0906 31.2482 32.4951 31.2482Z" fill="#C0A67B"/>
<path d="M6.07197 39.4167H44.254C45.3539 39.4167 46.2487 38.519 46.2487 37.4155V8.91462C46.2487 7.81121 45.3539 6.91345 44.254 6.91345H27.0772C26.6727 6.91345 26.3447 7.24138 26.3447 7.64587C26.3447 8.05037 26.6727 8.3783 27.0772 8.3783H44.254C44.5462 8.3783 44.7839 8.61882 44.7839 8.91462V37.4156C44.7839 37.7063 44.5412 37.9519 44.254 37.9519H6.07197C5.78477 37.9519 5.54209 37.7063 5.54209 37.4156V35.7248H6.91074C7.61377 35.7248 8.18574 35.1515 8.18574 34.447V30.8914C8.18574 30.1869 7.61377 29.6136 6.91074 29.6136H5.54199V16.7138H6.91074C7.61377 16.7138 8.18574 16.1406 8.18574 15.4361V11.8832C8.18574 11.1771 7.61377 10.6027 6.91074 10.6027H5.54199V8.91462C5.54199 8.61892 5.77969 8.3783 6.07188 8.3783H23.6363C24.0408 8.3783 24.3688 8.05037 24.3688 7.64587C24.3688 7.24138 24.0408 6.91345 23.6363 6.91345H6.07197C4.97207 6.91345 4.07725 7.81111 4.07725 8.91462V10.6072C3.41504 10.6527 2.88965 11.2068 2.88965 11.8833V15.4362C2.88965 16.1111 3.41494 16.6641 4.07725 16.7095V29.6181C3.41504 29.6635 2.88965 30.2165 2.88965 30.8915V34.4471C2.88965 35.122 3.41494 35.6751 4.07725 35.7205V37.4158C4.07715 38.519 4.97197 39.4167 6.07197 39.4167ZM4.35449 12.0676H6.7208V15.249H4.35449V12.0676ZM4.35449 31.0784H6.7208V34.2598H4.35449V31.0784Z" fill="#C0A67B"/>
</g>
<defs>
<clipPath id="clip0_288_634">
<rect width="50" height="50" fill="white"/>
</clipPath>
</defs>
</svg>
