<svg width="50" height="50" viewBox="0 0 50 50" fill="none" xmlns="http://www.w3.org/2000/svg">
<g clip-path="url(#clip0_288_653)">
<path d="M48.9266 27.4172C49.3312 27.4172 49.6591 27.0893 49.6591 26.6847V19.5176C49.6591 18.7099 49.0019 18.0527 48.1942 18.0527H44.776V15.6111C44.776 15.5635 44.7733 15.5164 44.7688 15.4699L46.2212 14.2743C49.6513 11.4507 50.1448 6.36292 47.3211 2.9329C44.4977 -0.49712 39.4099 -0.990611 35.9796 1.83302C34.886 2.73328 34.0473 3.90679 33.5543 5.22622C33.3797 5.69217 33.4544 6.20295 33.7592 6.62759C34.0273 7.00105 34.4588 7.30117 35.0419 7.51964C36.5611 8.08902 37.4071 7.47081 37.6706 6.76773C37.8943 6.16857 38.2754 5.63553 38.7728 5.22612C39.528 4.6045 40.4796 4.31327 41.4539 4.40849C42.4276 4.50293 43.3063 4.97083 43.9279 5.72606C44.3126 6.19338 44.5686 6.72867 44.6887 7.31689C44.7697 7.71321 45.1567 7.96879 45.5531 7.88802C45.9495 7.80706 46.2052 7.42012 46.1242 7.02371C45.9581 6.21037 45.5897 5.43971 45.0591 4.79504C44.1887 3.73764 42.9586 3.08252 41.5955 2.95028C40.2325 2.81834 38.8992 3.22472 37.8418 4.09519C37.1474 4.66681 36.6145 5.41159 36.2997 6.251C36.2499 6.27746 36.02 6.3218 35.5559 6.14777C35.0917 5.97393 34.9476 5.78935 34.9274 5.7368C35.3308 4.6589 36.0165 3.70014 36.9108 2.96396C39.7172 0.653935 43.8799 1.05748 46.1902 3.86392C48.5003 6.67026 48.0967 10.833 45.2901 13.1434L43.9129 14.277C43.7291 14.1937 43.5257 14.1463 43.3111 14.1463H41.7669L44.3592 12.0122C44.9156 11.5543 45.3606 10.9979 45.6817 10.3588C45.8633 9.99735 45.7175 9.55708 45.3561 9.37553C44.9947 9.19388 44.5544 9.33969 44.3728 9.70114C44.1438 10.1566 43.826 10.5537 43.4282 10.8813L39.893 13.7915V11.7047C39.893 10.8969 39.2358 10.2397 38.4281 10.2397H13.2685C12.8639 10.2397 12.5361 10.5676 12.5361 10.9722C12.5361 11.3768 12.8639 11.7047 13.2685 11.7047H33.6927C34.2854 13.2744 36.5469 15.1112 38.4278 15.5244V26.039C36.5469 26.4522 34.2854 28.289 33.6927 29.8587H20.6418C20.2372 29.8587 19.9093 30.1865 19.9093 30.5911C19.9093 30.9958 20.2372 31.3236 20.6418 31.3236H38.4279C39.2356 31.3236 39.8928 30.6664 39.8928 29.8587V17.4524C40.8603 18.388 42.1566 19.1773 43.311 19.4309V29.9455C41.4301 30.3587 39.1686 32.1955 38.5759 33.7652H12.1113C11.8011 32.9439 11.034 32.0493 10.1037 31.3236H17.7119C18.1165 31.3236 18.4444 30.9958 18.4444 30.5911C18.4444 30.1865 18.1165 29.8587 17.7119 29.8587H7.22817C6.63545 28.2889 4.37397 26.4522 2.49308 26.039V15.5244C4.37397 15.1112 6.63545 13.2743 7.22817 11.7047H10.3387C10.7434 11.7047 11.0712 11.3768 11.0712 10.9722C11.0712 10.5676 10.7434 10.2397 10.3387 10.2397H2.49298C1.68521 10.2397 1.02804 10.8969 1.02804 11.7047V29.8588C1.02804 30.6665 1.68521 31.3237 2.49298 31.3237H5.91119V33.7653C5.91119 34.5731 6.56836 35.2302 7.37613 35.2302H10.7943V37.6718C10.7943 38.4796 11.4515 39.1367 12.2593 39.1367H13.7134L7.72156 44.0692L6.79044 42.9381L10.0543 40.2514C10.3667 39.9943 10.4114 39.5328 10.1542 39.2203C9.8972 38.9079 9.43555 38.8631 9.12322 39.1204L5.46516 42.1317C4.74743 42.2183 2.61662 42.5866 0.87588 44.0195C0.573711 44.2682 0.386492 44.6196 0.348794 45.0092C0.310998 45.3986 0.427217 45.7795 0.675867 46.0816L3.4616 49.4657C3.71025 49.7678 4.06184 49.955 4.45122 49.9927C4.49947 49.9974 4.54742 49.9997 4.59528 49.9997C4.93377 49.9996 5.25899 49.8835 5.52376 49.6655C7.2645 48.2325 8.03545 46.2122 8.25832 45.5246L16.0184 39.1366H48.1942C49.0019 39.1366 49.6591 38.4794 49.6591 37.6716V29.6145C49.6591 29.2099 49.3312 28.882 48.9266 28.882C48.522 28.882 48.1942 29.2099 48.1942 29.6145V33.8519C46.3133 34.2651 44.0518 36.102 43.4591 37.6716H16.9945C16.6843 36.8504 15.9171 35.9558 14.9868 35.23H43.311C44.1188 35.23 44.776 34.5729 44.776 33.7651V21.3589C45.7434 22.2945 47.0398 23.0838 48.1942 23.3374V26.6847C48.1942 27.0893 48.522 27.4172 48.9266 27.4172ZM4.59264 48.5348L1.80612 45.1512L1.8068 45.1506H1.8069C3.11002 44.0779 4.73904 43.7224 5.44904 43.6133L6.80109 45.2557C6.55723 45.9326 5.89517 47.4623 4.59264 48.5348ZM35.3427 11.7046H38.4279V14.0103C37.8235 13.8124 37.1164 13.4092 36.4648 12.875C35.9369 12.4421 35.5741 12.0366 35.3427 11.7046ZM35.3427 29.8587C35.5742 29.5266 35.937 29.1211 36.4649 28.6883C37.1164 28.1541 37.8235 27.7509 38.428 27.5529V29.8587H35.3427ZM40.2258 15.6111H43.311V17.9168C42.7067 17.7189 41.9996 17.3157 41.348 16.7815C40.82 16.3487 40.4572 15.9432 40.2258 15.6111ZM5.57825 11.7046C5.34679 12.0366 4.98397 12.4421 4.45601 12.875C3.8045 13.4092 3.09742 13.8124 2.49298 14.0103V11.7046H5.57825ZM2.49298 27.5529C3.09732 27.7509 3.8044 28.1541 4.45601 28.6883C4.98397 29.1211 5.34679 29.5266 5.57825 29.8587H2.49308V27.5529H2.49298ZM7.37613 31.4595C7.98047 31.6574 8.68755 32.0606 9.33915 32.5948C9.86712 33.0276 10.2299 33.4331 10.4614 33.7652H7.37623V31.4595H7.37613ZM46.2311 36.5013C46.8826 35.9671 47.5897 35.5639 48.1942 35.366V37.6717H45.109C45.3403 37.3397 45.7032 36.9342 46.2311 36.5013ZM12.2593 37.6717V35.366C12.8636 35.5639 13.5707 35.9671 14.2223 36.5013C14.7503 36.9342 15.1131 37.3397 15.3445 37.6717H12.2593ZM40.2258 33.7652C40.4573 33.4331 40.8201 33.0276 41.3481 32.5948C41.9996 32.0606 42.7067 31.6574 43.3111 31.4595V33.7652H40.2258ZM46.2311 20.6881C45.7032 20.2553 45.3403 19.8498 45.1089 19.5177H48.1941V21.8235C47.5897 21.6255 46.8827 21.2223 46.2311 20.6881Z" fill="#C0A67B"/>
<path d="M8.47461 20.7818C8.47461 24.5026 13.7392 27.4173 20.46 27.4173C27.1808 27.4173 32.4454 24.5025 32.4454 20.7818C32.4454 17.061 27.1808 14.1462 20.46 14.1462C13.7392 14.1462 8.47461 17.0609 8.47461 20.7818ZM20.46 15.6111C26.1627 15.6111 30.9804 17.9789 30.9804 20.7817C30.9804 23.5844 26.1627 25.9522 20.46 25.9522C14.7573 25.9522 9.93955 23.5844 9.93955 20.7817C9.93955 17.9789 14.7574 15.6111 20.46 15.6111Z" fill="#C0A67B"/>
</g>
<defs>
<clipPath id="clip0_288_653">
<rect width="50" height="50" fill="white"/>
</clipPath>
</defs>
</svg>
