<svg width="50" height="50" viewBox="0 0 50 50" fill="none" xmlns="http://www.w3.org/2000/svg">
<g clip-path="url(#clip0_288_608)">
<path d="M49.8768 32.3772C49.8268 32.3024 49.3656 31.6326 48.5538 31.1687C47.4231 30.5225 46.1498 30.5973 44.9657 31.3778C43.7599 30.5164 42.3454 30.5145 41.0312 31.3907C39.526 32.3944 37.9082 33.8024 37.2417 34.3986H35.4206L33.3462 32.8426C34.6069 33.2245 35.8612 33.5178 36.7416 33.5178C39.6297 33.5178 40.5472 29.9816 40.5845 29.8309C40.6765 29.4647 40.4751 29.0889 40.1195 28.9619L29.1607 25.048C29.1572 25.0469 29.1534 25.0457 29.15 25.0446C29.1355 25.04 29.1206 25.0354 29.1061 25.0316C29.0962 25.029 29.0867 25.0263 29.0768 25.024C29.0642 25.0213 29.0516 25.019 29.039 25.0168C29.0264 25.0145 29.0138 25.0126 29.0008 25.011C28.9909 25.0099 28.981 25.0091 28.9711 25.008C28.9558 25.0068 28.9402 25.0061 28.9249 25.0057C28.9211 25.0057 28.9177 25.0053 28.9139 25.0053H26.5655C26.16 25.0053 25.8316 25.3338 25.8316 25.7393C25.8316 26.1444 26.16 26.4728 26.5655 26.4728H28.7868L38.9435 30.1002C38.6261 30.8628 37.9394 32.0503 36.7416 32.0503C34.9403 32.0503 30.6888 30.3978 29.2026 29.7611C29.1973 29.7588 29.1912 29.7573 29.1855 29.7546C29.1714 29.7493 29.1576 29.7439 29.1435 29.7393C29.1344 29.7363 29.1256 29.7336 29.1164 29.731C29.1019 29.7271 29.0878 29.7229 29.0733 29.7199C29.0638 29.7176 29.0542 29.7161 29.0443 29.7142C29.0306 29.7115 29.0165 29.7096 29.0024 29.7077C28.9921 29.7065 28.9814 29.7054 28.9711 29.7046C28.9577 29.7035 28.9444 29.7031 28.931 29.7027C28.9253 29.7027 28.9196 29.702 28.9139 29.702H26.5655C26.16 29.702 25.8316 30.0304 25.8316 30.4355C25.8316 30.841 26.16 31.1695 26.5655 31.1695H28.6693L34.7359 35.7193C34.8629 35.8146 35.0174 35.8661 35.1761 35.8661H41.4383C41.6221 35.8661 41.7991 35.7971 41.9346 35.6727C41.9552 35.654 43.9876 33.7932 45.7592 32.6118C46.4798 32.1315 47.1439 32.0694 47.7894 32.4226C47.9706 32.5214 48.1277 32.6408 48.2567 32.7556L42.6422 38.3701L35.2352 39.8517L20.557 34.444C20.4758 34.4139 20.3899 34.3986 20.3033 34.3986H17.9062V26.4732H23.1407C23.5462 26.4732 23.8747 26.1444 23.8747 25.7393C23.8747 25.3338 23.5462 25.0053 23.1407 25.0053H17.9062V24.9565C17.9062 24.551 17.5777 24.2225 17.1722 24.2225H14.7751V23.3909C14.7751 22.9854 14.4466 22.657 14.0411 22.657H0.733947C0.328445 22.657 0 22.9854 0 23.3909C0 23.7961 0.328445 24.1249 0.733947 24.1249H13.3072V36.7469H0.733947C0.328445 36.7469 0 37.0754 0 37.4809C0 37.886 0.328445 38.2148 0.733947 38.2148H14.0411C14.4466 38.2148 14.7751 37.886 14.7751 37.4809V36.6493H17.1722C17.5777 36.6493 17.9062 36.3205 17.9062 35.9153V35.8665H20.1725L34.9224 41.3006C35.004 41.3307 35.0899 41.3459 35.1761 41.3459C35.2241 41.3459 35.2722 41.341 35.3199 41.3315L43.1476 39.7659C43.2899 39.7377 43.4204 39.6679 43.523 39.5652L49.7852 33.303C50.0324 33.0558 50.0709 32.6683 49.8768 32.3772ZM41.1556 34.3986H39.4912C40.1874 33.8215 41.0431 33.147 41.8453 32.6118C42.4846 32.1857 43.0824 32.0888 43.6569 32.3181C42.5617 33.1566 41.5767 34.0213 41.1556 34.3986ZM16.4383 35.1814H14.7751V25.6904H16.4383V35.1814Z" fill="#C0A67B"/>
<path d="M34.4074 22.4811C34.4933 22.5147 34.5841 22.5315 34.6745 22.5315C34.7649 22.5315 34.8553 22.5147 34.9411 22.4811C35.2215 22.3716 41.8617 19.73 46.2303 13.6135C48.4692 10.4793 48.0168 5.60452 45.2004 2.51614C43.9495 1.14399 42.3565 0.296365 40.5941 0.0655759C38.7188 -0.180091 36.7287 0.26394 34.6745 1.38546C32.6206 0.26394 30.6305 -0.179709 28.7548 0.0655759C26.9924 0.296365 25.3998 1.14399 24.1486 2.51614C21.3322 5.60452 20.8798 10.4793 23.1186 13.6135C27.4872 19.73 34.1271 22.3716 34.4074 22.4811ZM25.2327 3.50491C26.4645 2.15412 28.0152 1.47396 29.7455 1.47396C31.1695 1.47396 32.7156 1.93478 34.3044 2.86175C34.5333 2.99526 34.8156 2.99526 35.0441 2.86175C38.5643 0.808298 41.8709 1.04252 44.1158 3.50491C46.4447 6.05847 46.8575 10.2108 45.0363 12.7601C41.4051 17.8436 35.9387 20.4479 34.6745 21.001C33.4095 20.4475 27.9434 17.8436 24.3126 12.7601C22.4915 10.2108 22.9042 6.05847 25.2327 3.50491Z" fill="#C0A67B"/>
<path d="M35.4574 15.5842H31.5435C31.138 15.5842 30.8096 15.9126 30.8096 16.3181C30.8096 16.7232 31.138 17.0521 31.5435 17.0521H33.9407V18.6664C33.9407 19.0716 34.2691 19.4004 34.6746 19.4004C35.0797 19.4004 35.4086 19.0716 35.4086 18.6664V17.0521H35.4574C37.1568 17.0521 38.5397 15.6692 38.5397 13.9698C38.5397 12.2703 37.1568 10.8875 35.4574 10.8875H33.8918C33.0015 10.8875 32.2775 10.1631 32.2775 9.27313C32.2775 8.38278 33.0015 7.65875 33.8918 7.65875H37.8057C38.2112 7.65875 38.5397 7.32993 38.5397 6.92481C38.5397 6.5193 38.2112 6.19086 37.8057 6.19086H35.4086V4.57648C35.4086 4.17097 35.0797 3.84253 34.6746 3.84253C34.2691 3.84253 33.9407 4.17097 33.9407 4.57648V6.19086H33.8918C32.1924 6.19086 30.8096 7.57369 30.8096 9.27313C30.8096 10.9726 32.1924 12.3554 33.8918 12.3554H35.4574C36.3474 12.3554 37.0718 13.0794 37.0718 13.9698C37.0718 14.8598 36.3474 15.5842 35.4574 15.5842Z" fill="#C0A67B"/>
</g>
<defs>
<clipPath id="clip0_288_608">
<rect width="50" height="50" fill="white"/>
</clipPath>
</defs>
</svg>
