<svg width="50" height="50" viewBox="0 0 50 50" fill="none" xmlns="http://www.w3.org/2000/svg">
<path d="M1.19286 49.1244C1.20698 49.1244 1.22071 49.1241 1.23482 49.1237C10.0945 48.8072 18.7333 46.8682 26.9109 43.3602C27.2829 43.2009 27.4553 42.7693 27.2962 42.3967C27.1368 42.024 26.7061 41.8516 26.3345 42.011C19.8854 44.7771 13.144 46.5475 6.23287 47.2944C20.2756 44.2447 32.8791 37.1599 42.2282 26.3501C42.5902 25.9311 42.5734 25.3146 42.1889 24.916L40.2258 22.8811H48.5354V31.63L46.6941 29.9181C46.2806 29.5339 45.6397 29.5408 45.2353 29.9341C44.2157 30.926 38.6629 36.1 29.4435 40.5888C29.0796 40.7657 28.9282 41.2049 29.1048 41.5695C29.2818 41.9338 29.7197 42.0859 30.084 41.9086C38.8628 37.6346 44.4136 32.7273 45.9769 31.2539L48.2192 33.3381C48.8967 33.968 49.9999 33.4838 49.9999 32.5596V22.4755C49.9999 21.89 49.5246 21.4133 48.9398 21.4133H39.271C38.3364 21.4133 37.8607 22.5416 38.5088 23.2136L40.8774 25.6689C39.5293 27.2093 38.1434 28.6414 36.7296 29.9742V18.8036C36.7296 18.3984 36.402 18.0697 35.9972 18.0697C35.5925 18.0697 35.2648 18.3984 35.2648 18.8036V31.3005C33.0172 33.2796 30.6013 35.1089 28.0657 36.7517C28.0657 36.4998 28.0657 2.16299 28.0657 1.71159C28.0657 1.60419 28.1534 1.51666 28.2606 1.51666H35.0699C35.1774 1.51666 35.2648 1.60419 35.2648 1.71159V15.3789C35.2648 15.7841 35.5925 16.1128 35.9972 16.1128C36.402 16.1128 36.7296 15.7841 36.7296 15.3789V1.71198C36.7296 0.794655 35.985 0.0489502 35.0699 0.0489502H28.2606C27.3454 0.0489502 26.6008 0.794655 26.6008 1.71198V9.26917H19.5966C18.6814 9.26917 17.9372 10.0153 17.9372 10.9322V18.4898H10.933C10.0178 18.4898 9.2732 19.2359 9.2732 20.1528V27.7104H2.26938C1.35423 27.7104 0.609592 28.4565 0.609592 29.3734V46.8877C0.244142 47.0949 0 47.4889 0 47.9289C0 48.5848 0.532153 49.1244 1.19286 49.1244ZM19.4024 10.9322C19.4024 10.8248 19.4898 10.7373 19.597 10.7373H26.6012V37.6721C24.3108 39.0668 21.895 40.3335 19.4024 41.448C19.4024 40.8418 19.4024 11.6485 19.4024 10.9322ZM10.7384 20.1528C10.7384 20.045 10.8258 19.9575 10.9334 19.9575H17.9376V42.0817C15.611 43.0548 13.1951 43.9095 10.7384 44.6288C10.7384 43.9401 10.7384 20.8381 10.7384 20.1528ZM2.07444 29.3734C2.07444 29.2656 2.1618 29.1781 2.26938 29.1781H9.27358V45.0405C6.90693 45.678 4.49183 46.1959 2.07444 46.5846V29.3734Z" fill="#C0A67B"/>
</svg>
