<svg width="40" height="40" viewBox="0 0 40 40" fill="none" xmlns="http://www.w3.org/2000/svg">
<path d="M20.0004 13.6362C17.8684 13.6362 16.1338 11.9019 16.1338 9.7699C16.1338 7.63794 17.8684 5.90332 20.0004 5.90332C22.1317 5.90332 23.8654 7.63794 23.8654 9.7699C23.8654 11.9019 22.1317 13.6362 20.0004 13.6362ZM20.0004 7.09167C18.5236 7.09167 17.3221 8.29315 17.3221 9.7699C17.3221 11.2466 18.5236 12.4481 20.0004 12.4481C21.4765 12.4481 22.6774 11.2466 22.6774 9.7699C22.6774 8.29315 21.4765 7.09167 20.0004 7.09167Z" fill="#C0A67B"/>
<path d="M24.4719 32.2354H15.5287C15.2007 32.2354 14.9346 31.9693 14.9346 31.6412V29.1095C14.9346 28.7814 15.2007 28.5156 15.5287 28.5156H16.5651V18.9798H15.5287C15.2007 18.9798 14.9346 18.7137 14.9346 18.3856V15.8539C14.9346 15.5258 15.2007 15.26 15.5287 15.26H22.8414C23.1694 15.26 23.4355 15.5258 23.4355 15.8539V18.414C23.4355 18.7421 23.1694 19.0082 22.8414 19.0082C22.5133 19.0082 22.2472 18.7421 22.2472 18.414V16.4481H16.1226V17.7917H17.159C17.4871 17.7917 17.7532 18.0576 17.7532 18.3856V29.1095C17.7532 29.4376 17.4871 29.7037 17.159 29.7037H16.1226V31.0474H23.8777V29.7037H22.8414C22.5133 29.7037 22.2472 29.4376 22.2472 29.1095V20.3943C22.2472 20.0662 22.5133 19.8004 22.8414 19.8004C23.1694 19.8004 23.4355 20.0662 23.4355 20.3943V28.5156H24.4719C24.8 28.5156 25.0658 28.7814 25.0658 29.1095V31.6412C25.0658 31.9693 24.8 32.2354 24.4719 32.2354Z" fill="#C0A67B"/>
<path d="M20 40C14.6579 40 9.63531 37.9196 5.85785 34.1422C2.08038 30.3647 0 25.3421 0 20C0 14.6579 2.08038 9.63531 5.85785 5.85785C9.63531 2.08038 14.6579 0 20 0C25.3421 0 30.3647 2.08038 34.1422 5.85785C37.9196 9.63531 40 14.6579 40 20C40 25.3421 37.9196 30.3647 34.1422 34.1422C30.3647 37.9196 25.3421 40 20 40ZM20 1.18805C14.9753 1.18805 10.2512 3.14484 6.698 6.698C3.14484 10.2512 1.18805 14.9753 1.18805 20C1.18805 25.0247 3.14484 29.7488 6.698 33.302C10.2512 36.8552 14.9753 38.812 20 38.812C25.0247 38.812 29.7488 36.8552 33.302 33.302C36.8552 29.7488 38.812 25.0247 38.812 20C38.812 14.9753 36.8552 10.2512 33.302 6.698C29.7488 3.14484 25.0247 1.18805 20 1.18805Z" fill="#C0A67B"/>
<path d="M20.0001 36.6837C16.883 36.6837 13.8425 35.8186 11.2076 34.1813C8.64539 32.5898 6.55951 30.3345 5.17462 27.6594C5.02387 27.3679 5.1377 27.0096 5.42914 26.8589C5.72058 26.7081 6.07916 26.822 6.22992 27.1134C8.90631 32.2837 14.1828 35.4957 20.0001 35.4957C28.5444 35.4957 35.4954 28.5444 35.4954 20.0001C35.4954 11.4561 28.5444 4.50446 20.0001 4.50446C11.4558 4.50446 4.50446 11.4558 4.50446 20.0001C4.50446 21.7399 4.79041 23.4476 5.35468 25.0757C5.4621 25.3858 5.29791 25.7242 4.98785 25.8314C4.6778 25.9388 4.33936 25.7746 4.23193 25.4648C3.62433 23.7113 3.31641 21.8726 3.31641 20.0001C3.31641 10.8005 10.8005 3.31641 20.0001 3.31641C29.1993 3.31641 36.6837 10.8008 36.6837 20.0001C36.6837 29.1993 29.1996 36.6837 20.0001 36.6837Z" fill="#C0A67B"/>
</svg>
