<svg width="92" height="24" viewBox="0 0 92 24" fill="none" xmlns="http://www.w3.org/2000/svg">
<path d="M67.2852 1.71923C67.2852 0.770223 68.0749 0 69.0484 0H89.3792C90.3531 0 91.1425 0.770223 91.1425 1.71923V22.2811C91.1425 23.2304 90.3531 24 89.3792 24H69.0484C68.0749 24 67.2852 23.2304 67.2852 22.2814V1.71892V1.71923Z" fill="#C0A67B"/>
<path d="M0.5 20.1043H10.4563V16.8365H4.10374V4.37032H0.5V20.1043ZM15.4971 20.1043V9.26708H11.8937V20.1043H15.4971ZM13.6958 7.7877C14.9521 7.7877 15.7342 6.95546 15.7342 5.91486C15.7109 4.85159 14.9521 4.04297 13.7197 4.04297C12.4869 4.04297 11.6809 4.85191 11.6809 5.91486C11.6809 6.95546 12.463 7.7877 13.6721 7.7877H13.6958ZM17.1701 20.1043H20.7735V14.0521C20.7735 13.7282 20.7968 13.4043 20.8922 13.1736C21.1523 12.5264 21.7452 11.856 22.7408 11.856C24.045 11.856 24.5668 12.85 24.5668 14.3061V20.104H28.1696V13.8903C28.1696 10.5614 26.3918 9.01244 24.0208 9.01244C22.0771 9.01244 21.2234 10.0987 20.7492 10.8387H20.7735V9.26708H17.1701C17.2176 10.2841 17.1701 20.1043 17.1701 20.1043ZM33.2532 4.37032H29.6498V20.1043H33.2532V16.5907L34.1538 15.4572L36.975 20.1043H41.4078L36.6671 13.3769L40.8152 8.80029H36.4775C36.4775 8.80029 33.5143 12.8947 33.2532 13.3807V4.37032Z" fill="#C0A67B"/>
<path d="M51.0457 15.5809C51.0932 15.3027 51.1644 14.7688 51.1644 14.1651C51.1644 11.3637 49.7418 8.51953 45.9963 8.51953C41.9899 8.51953 40.1406 11.687 40.1406 14.5598C40.1406 18.1129 42.3929 20.3316 46.3279 20.3316C47.8928 20.3316 49.3384 20.1012 50.5242 19.6155L50.05 17.2366C49.0777 17.5589 48.0821 17.7203 46.8496 17.7203C45.1666 17.7203 43.6971 17.0294 43.5784 15.5576L51.0457 15.5803V15.5809ZM43.5548 13.144C43.6496 12.2192 44.2664 10.8548 45.8071 10.8548C47.4426 10.8548 47.8223 12.3115 47.8223 13.144H43.5551H43.5548ZM60.0586 4.3675V9.81415H60.0111C59.4893 9.0518 58.3989 8.54314 56.9536 8.54314C54.1796 8.54314 51.7381 10.7622 51.7614 14.5532C51.7614 18.0672 53.9664 20.3559 56.7159 20.3559C58.2097 20.3559 59.6316 19.7081 60.3433 18.4597H60.4141L60.5567 20.1015H63.7568C63.7096 19.3385 63.6617 18.0209 63.6617 16.7263V4.36719H60.0583L60.0586 4.3675ZM60.0586 15.0852C60.0586 15.3622 60.035 15.6401 59.9871 15.8705C59.7746 16.8651 58.921 17.5579 57.8778 17.5579C56.3847 17.5579 55.4123 16.3562 55.4123 14.4607C55.4123 12.681 56.2427 11.2476 57.9017 11.2476C59.0158 11.2476 59.7979 12.0102 60.0114 12.9577C60.0586 13.1664 60.0586 13.3977 60.0586 13.6055V15.0848V15.0852Z" fill="#C0A67B"/>
<path d="M74.5152 20.0926V9.25536H70.9118V20.0926H74.5155H74.5152ZM72.7141 7.77598C73.9704 7.77598 74.7526 6.94375 74.7526 5.90377C74.729 4.84019 73.9704 4.03125 72.738 4.03125C71.5047 4.03125 70.6992 4.84019 70.6992 5.90377C70.6992 6.94375 71.481 7.77598 72.6905 7.77598H72.7138H72.7141ZM76.5096 20.0926H80.1127V14.0413C80.1127 13.7177 80.1363 13.3935 80.2314 13.1625C80.4918 12.515 81.0847 11.8449 82.0803 11.8449C83.3839 11.8449 83.9057 12.8386 83.9057 14.2957V20.0926H87.5088V13.8789C87.5088 10.5503 85.7313 9.00135 83.3606 9.00135C81.4169 9.00135 80.5633 10.0873 80.0891 10.827H80.113V9.25568H76.5099C76.5568 10.2724 76.5096 20.0929 76.5096 20.0929V20.0926Z" fill="white"/>
</svg>
