<svg width="25" height="20" viewBox="0 0 25 20" fill="none" xmlns="http://www.w3.org/2000/svg">
<path d="M6.57199 19.152C7.88932 19.152 9.02932 18.696 9.99199 17.784C10.9547 16.872 11.436 15.7067 11.436 14.288C11.436 12.768 10.9547 11.5773 9.99199 10.716C9.02932 9.85467 7.88932 9.424 6.57199 9.424C5.50799 9.424 4.57066 9.75333 3.75999 10.412C3.60799 9.956 3.53199 9.424 3.53199 8.816C3.53199 7.34667 4.10199 5.90267 5.24199 4.484C6.38199 3.06533 7.73732 2.02667 9.30799 1.368L8.62399 0C5.93866 1.26667 3.96266 2.91333 2.69599 4.94C1.42932 6.96667 0.79599 9.22133 0.79599 11.704C0.79599 12.312 0.87199 13.0973 1.02399 14.06C1.17599 15.0227 1.53066 15.9093 2.08799 16.72C2.54399 17.4293 3.12666 18.012 3.83599 18.468C4.54532 18.924 5.45732 19.152 6.57199 19.152ZM19.492 19.152C20.8093 19.152 21.9493 18.696 22.912 17.784C23.8747 16.872 24.356 15.7067 24.356 14.288C24.356 12.768 23.8747 11.5773 22.912 10.716C21.9493 9.85467 20.8093 9.424 19.492 9.424C18.428 9.424 17.4907 9.75333 16.68 10.412C16.528 9.956 16.452 9.424 16.452 8.816C16.452 7.34667 17.022 5.90267 18.162 4.484C19.302 3.06533 20.6573 2.02667 22.228 1.368L21.544 0C18.8587 1.26667 16.8827 2.91333 15.616 4.94C14.3493 6.96667 13.716 9.22133 13.716 11.704C13.716 12.312 13.792 13.0973 13.944 14.06C14.096 15.0227 14.4507 15.9093 15.008 16.72C15.464 17.4293 16.0467 18.012 16.756 18.468C17.4653 18.924 18.3773 19.152 19.492 19.152Z" fill="#C0A67B"/>
</svg>
